<?xml version="1.0" encoding="UTF-8" standalone="no"?>
<!DOCTYPE svg PUBLIC "-//W3C//DTD SVG 1.1//EN" "http://www.w3.org/Graphics/SVG/1.1/DTD/svg11.dtd">
<svg width="590px" height="329px" viewBox="0 0 590 329" version="1.1" xmlns="http://www.w3.org/2000/svg" xmlns:xlink="http://www.w3.org/1999/xlink" xml:space="preserve" style="fill-rule:evenodd;clip-rule:evenodd;stroke-linejoin:round;stroke-miterlimit:2;">
    <g id="Layer-1">
        <g transform="matrix(1,0,0,1,403.063,259.614)">
            <path d="M0,-180.997L27.854,-180.997C27.854,-180.997 19.544,-93.652 16.342,-43.713C15.263,-26.888 15.361,-14.878 15.546,-12.887C16.266,-5.132 19.219,-1.396 21.331,0L-19.126,-0.222C-15.429,-6.686 -11.229,-32.397 -10.319,-47.026C-9.409,-61.654 0,-180.997 0,-180.997" style="fill:black;fill-rule:nonzero;"/>
        </g>
        <g transform="matrix(1,0,0,1,165.115,158.872)">
            <path d="M0,100.402C6.215,100.342 21.865,100.485 31.789,100.79C28.283,94.187 26.964,93.315 26.922,85.515C26.881,77.716 26.955,74.57 28.449,65.907C29.943,57.244 31.051,52.761 32.719,45.299C34.404,37.762 34.598,37.261 34.957,34.947C39.611,31.77 45.603,27.272 56.497,24.905C67.392,22.538 72.91,22.416 81.262,28.438C80.516,18.592 80.042,16.844 79.225,14.206C77.385,8.271 74.437,5.107 71.159,2.892C63.225,2.924 57.411,3.19 51.564,5.118C45.506,7.115 45.005,7.097 38.259,10.777C38.043,4.438 37.123,-2.299 37.123,-2.299C25.915,-2.432 13.842,-2.297 13.194,-2.299C14.168,3.868 14.225,21.48 12.045,33.332C9.865,45.183 7.742,61.558 5.873,72.582C4.004,83.606 -0.706,102.834 0,100.402" style="fill:black;fill-rule:nonzero;"/>
        </g>
        <g transform="matrix(-1,0,0,1,229.935,259.795)">
            <path d="M-0.001,-24.459C-6.751,-24.459 -12.23,-18.979 -12.23,-12.229C-12.23,-5.48 -6.751,0 -0.001,0C6.749,0 12.229,-5.48 12.229,-12.229C12.229,-18.979 6.749,-24.459 -0.001,-24.459" style="fill:black;fill-rule:nonzero;"/>
        </g>
        <g transform="matrix(-1,0,0,1,330.273,61.291)">
            <path d="M0,-49.036C-13.532,-49.036 -24.518,-38.05 -24.518,-24.518C-24.518,-10.986 -13.532,0 0,0C13.531,0 24.518,-10.986 24.518,-24.518C24.518,-38.05 13.531,-49.036 0,-49.036" style="fill:black;fill-rule:nonzero;"/>
        </g>
        <g transform="matrix(1,0,0,1,274.913,88.1366)">
            <path d="M0,203.258C7.413,204.64 17.613,207.075 22.729,206.09C18.76,213.633 2.185,225.078 -1.85,227.174C-6.333,229.503 -14.191,232.995 -20.599,233.261C-27.008,233.527 -28.608,232.058 -29.93,228.965C-31.253,225.871 -27.823,219.874 -20.599,215.932C-13.375,211.989 -12.955,212.141 -9.772,210.08C-5.999,207.635 -1.643,205.075 0,203.258M15.577,160.681C21.667,155.799 36.569,146.018 38.986,146.073C36.596,162.223 32.913,178.638 31.718,184.085C30.6,189.179 30.271,191.101 29.431,192.584C28.592,194.066 26.642,194.31 25.639,194.617C24.636,194.924 12.155,194.839 6.062,193.485C10.195,185.062 14.447,173.038 15.577,160.681M23.045,91.444C30.101,84.795 49.831,81.248 49.831,81.248C49.831,81.248 43.574,124.273 42.322,129.068C33.426,132.849 18.424,141.575 17.085,142.698C17.873,133.116 22.8,96.097 23.045,91.444M31.375,29.76C41.019,17.954 61.969,13.798 61.969,13.798L55.983,56.695C55.983,56.695 44.173,61.367 40.686,62.515C36.902,63.761 27.052,66.339 27.052,66.339C27.052,66.339 30.874,34.663 31.375,29.76M34.702,-30.269C38.348,-27.456 43.385,-24.442 51.89,-23.401C60.396,-22.359 65.395,-24.472 69.795,-26.469C68.28,-23.971 67.34,-20.929 66.653,-18.001C65.933,-14.931 65.362,-11.264 64.823,-9.202C58.341,-8.98 52.923,-7.421 47.633,-5.636C42.645,-3.952 35.62,-1.142 33.085,1.453C34.131,-4.533 37.544,-20.263 34.702,-30.269" style="fill:black;fill-rule:nonzero;"/>
        </g>
        <g transform="matrix(1,0,0,1,383.23,115.19)">
            <path d="M0,-13.042C2.101,-11.215 3.497,-9.725 5.546,-9.145C7.594,-8.565 10.999,-6.701 11.436,-6.267C6.861,-6.328 6.28,-6.658 6.71,-5.009C7.14,-3.359 9.223,-0.51 9.671,0.513C5.541,-3.62 4.209,-7.634 2.489,-9.145C0.827,-10.605 -0.837,-11.037 -1.657,-11.592C-1.956,-11.794 -2.145,-11.505 -1.4,-12.25C-0.49,-13.16 -0.591,-13.555 0,-13.042" style="fill:black;fill-rule:nonzero;"/>
        </g>
        <g transform="matrix(1,0,0,1,517.31,122.178)">
            <path d="M0,93.769C-0.49,110.622 -0.981,122.604 -0.796,124.595C-0.076,132.35 2.877,136.086 4.989,137.482L-35.468,137.26C-31.771,130.796 -27.655,105.08 -26.661,90.456C-25.97,80.287 -18.109,-18.983 -18.109,-18.983C-22.617,-18.983 -50.935,-18.824 -53.69,-18.861C-56.445,-18.898 -60.069,-17.303 -62.621,-14.826L-60.65,-42.927L54.24,-43.713C54.24,-43.713 52.852,-21.872 52.448,-16.048C47.536,-19.573 44.302,-18.849 42.609,-18.861C40.914,-18.873 16.882,-19.37 8.172,-18.861C8.172,-18.861 0.379,80.737 0,93.769" style="fill:black;fill-rule:nonzero;"/>
        </g>
        <path d="M22.414,255.909C21.016,258.249 20.469,259.166 18.517,260.199L58.894,260.199C58.894,260.199 79.939,259.79 83.134,259.723C93.776,259.498 104.2,256.307 112.174,252.811C119.758,249.484 124.255,245.091 127.534,242.537C138.44,234.037 145.84,215.767 147.769,211.309C150.076,205.975 152.133,198.693 153.474,191.175C154.686,184.377 154.299,176.708 154.235,173.472C154.104,166.866 152.7,155.112 151.479,149.846C149.722,142.266 146.816,134.223 144.094,128.871C141.488,123.749 140.977,121.874 134.494,113.617C127.469,104.67 122.753,101.698 117.214,97.886C114.339,96.07 106.256,90.644 98.974,87.876C94.809,86.293 88.001,83.936 80.494,82.155C72.961,80.369 62.143,78.959 51.934,78.58C47.72,78.424 42.203,78.58 42.203,78.58C43.618,79.309 45.662,81.471 45.467,84.572C45.33,86.741 44.821,90.693 44.494,91.928C44.167,93.162 42.79,103.075 43.054,104.56C43.318,106.044 44.021,111.132 48.334,112.425C52.647,113.718 58.417,112.484 62.014,110.757C65.656,109.008 70.371,105.937 75.982,104.796C79.79,104.021 117.239,101.149 127.534,149.846C128.716,155.437 128.974,166.53 128.974,166.53C117.239,155.052 63.476,136.13 36.208,183.573C20.121,211.562 24.493,252.428 22.414,255.909ZM127.283,179.826C125.238,178.233 117.506,171.892 110.374,169.19C90.409,161.625 43.415,167.168 55.018,226.664C56.07,232.06 58.853,237.156 63.062,240.911C66.269,243.772 70.254,245.287 75.588,245.095C82.933,244.831 89.156,242.37 94.989,238.349C100.733,234.389 103.851,232.517 108.341,227.103C113.034,221.442 113.629,219.894 118.965,209.643C124.302,199.391 126.715,187.114 127.283,179.826Z" style="fill:black;"/>
        <path d="M261.6,291.655C266.262,286.924 269.85,283.116 285.847,284.971C301.844,286.826 304.875,285.449 307.118,280.651C309.361,275.853 309.384,271.782 309.728,270.643C312.116,277.555 313.216,278.237 311.806,283.594C311.182,285.963 308.561,290.266 300.358,291.317C296.145,291.856 292.259,291.605 284.767,290.597C277.8,289.66 274.999,286.595 261.6,291.655ZM278.854,248.53C279.501,245.082 281.706,239.107 292.216,233.364C302.727,227.621 306.954,225.064 311.605,222.861C316.256,220.658 322.856,216.999 324.246,213.003C326.001,207.954 322.791,205.687 322.791,205.687L324.745,194.007C324.745,194.007 331.479,195.961 334.721,203.526C336.596,207.901 335.686,214.409 333.058,217.659C329.203,222.426 323.28,226.134 319.607,227.894C315.934,229.655 307.559,233.679 303.245,236.471C299.532,238.874 294.155,242.074 288.447,246.852C286.462,248.514 284.747,250.9 287.002,254.816C285.813,260.792 285.158,263.469 285.076,263.527C280.7,262.664 277.755,254.38 278.854,248.53ZM340.013,118.753C347.921,120.021 357.207,124.471 357.206,136.82C357.206,149.169 350.213,153.989 347.126,156.6C344.04,159.21 335.297,163.648 327.408,165.311C320.158,166.839 313.584,167.646 303.171,172.356C291.901,177.454 289.037,180.832 290.825,184.737C291.301,185.776 293.998,188.327 293.998,188.327L292.488,199.037C292.488,199.037 265.203,191.347 283.469,170.052C287.417,165.45 294.145,161.714 301.88,158.737C309.614,155.76 320.246,152.482 326.422,150.631C332.598,148.781 339.25,143.699 341.067,138.793C342.885,133.887 341.015,132.787 337.823,131.725C338.809,125.584 339.146,124.362 340.013,118.753ZM365.398,83.52C363.643,83.77 363.053,83.491 362.403,83.188C361.283,82.663 361.449,81.857 361.449,81.857C357.167,81.258 355.221,82.366 355.221,82.366C355.159,82.397 349.307,81.542 346.465,81.579C339.596,81.667 332.432,82.571 325.483,85.025C313.427,89.281 301.383,95.178 293.416,102.784C288.695,107.291 286.072,111.088 283.267,116.564C280.463,122.041 279.084,125.464 279.25,130.165C279.472,136.478 280.736,137.102 282.643,139.448C284.55,141.794 287.521,143.274 289.826,143.935C292.132,144.595 293.842,144.735 298.386,143.935C298.565,142.135 298.755,138.033 300.206,128.536C297.228,127.88 296.68,127.319 299.582,121.965C302.038,117.436 304.563,113.807 311.806,108.364C319.048,102.921 332.901,97.849 345.898,95.968C347.606,95.721 348.601,96.22 351.041,98.95C355.42,103.847 358.66,104.35 363.6,104.89C370.115,105.602 374.881,105.049 379.348,104.316C380.785,104.08 383.077,102.965 382.967,101.698C382.875,100.636 382.649,97.628 381.086,94.136C379.567,90.741 378.81,89.551 375.424,86.362C374.527,85.518 370.33,83.257 367.227,82.481C367.227,82.481 367.222,83.26 365.398,83.52ZM362.377,95.117C362.004,97.012 359.942,96.806 358.03,95.823C356.119,94.839 354.358,93.078 354.587,91.862C355.227,88.466 362.909,92.417 362.377,95.117Z" style="fill:black;"/>
    </g>
</svg>
