<?xml version="1.0" encoding="utf-8"?>
<!-- Generator: Adobe Illustrator 23.1.1, SVG Export Plug-In . SVG Version: 6.00 Build 0)  -->
<svg version="1.1" id="Layer_1" xmlns="http://www.w3.org/2000/svg" xmlns:xlink="http://www.w3.org/1999/xlink" x="0px" y="0px"
	 viewBox="0 0 1209 528" style="enable-background:new 0 0 1209 528;" xml:space="preserve">
<style type="text/css">
	.st0{fill:#F0F2F0;}
	.st1{fill:#E6EDFF;}
	.st2{fill:none;stroke:#000000;stroke-width:2;stroke-miterlimit:10;}
	.st3{fill:none;stroke:#A8A8A8;stroke-miterlimit:10;}
	.st4{fill:#A8A8A8;}
	.st5{fill:none;stroke:#4DB360;stroke-width:5;stroke-miterlimit:10;}
	.st6{fill:none;stroke:#ED1C24;stroke-width:5;stroke-miterlimit:10;}
	.st7{fill:none;stroke:#0000FF;stroke-width:5;stroke-miterlimit:10;}
	.st8{fill:#ED1C24;stroke:#000000;stroke-miterlimit:10;}
	.st9{fill:none;stroke:#000000;stroke-width:3;stroke-miterlimit:10;}
	.st10{fill:#4DB360;stroke:#000000;stroke-miterlimit:10;}
	.st11{fill:#0000FF;stroke:#000000;stroke-miterlimit:10;}
	.st12{fill:none;stroke:#000000;stroke-miterlimit:10;}
</style>
<g id="XMLID_1_">
	<g>
		<path class="st0" d="M64.97,56.93c5.09,66.04,17.3,225.18,18.59,248.99c1.43,26.54,44.48,27.26,59.54,27.26
			c15.07,0,57.63-1.2,59.54-27.26c1.74-23.78,13.7-183.05,18.66-249.06c1.32-17.6,2.14-28.57,2.14-28.57l6.22-0.48
			c3.23,4.54-4.78,98.69-4.78,98.69c-4.98,90.96-7.17,218.64-11.96,224.59c-5.75,7.15-133.13,6.46-139.65,0
			c-9.01-8.92-4.78-133.48-11.96-224.59c0,0-8.85-95.46-4.78-98.21h6.22C62.75,28.29,63.61,39.29,64.97,56.93z"/>
		<path class="st1" d="M221.3,56.86L221.3,56.86c-4.95,66.01-16.91,225.27-18.65,249.06c-1.92,26.06-44.48,27.26-59.54,27.26
			c-15.07,0-58.11-0.72-59.54-27.26c-1.28-23.81-13.5-182.96-18.59-248.99c3.22,3.52,3.41,3.1,4.72,3.29
			c1.38,0.2,145.07,0.2,146.82,0C218.27,60.01,220.14,58.74,221.3,56.86z"/>
	</g>
	<g>
		<path class="st2" d="M143.1,333.18c-15.07,0-58.11-0.72-59.54-27.26c-1.28-23.81-13.5-182.96-18.59-248.99
			c-1.36-17.64-2.22-28.64-2.22-28.64h-6.22c-4.06,2.75,4.78,98.21,4.78,98.21c7.17,91.11,2.95,215.66,11.96,224.59
			c6.51,6.46,133.9,7.15,139.65,0c4.78-5.95,6.98-133.63,11.96-224.59c0,0,8.01-94.15,4.78-98.69l-6.22,0.48
			c0,0-0.82,10.97-2.14,28.57c-4.96,66.01-16.92,225.27-18.66,249.06C200.73,331.98,158.17,333.18,143.1,333.18"/>
		<path class="st2" d="M64.91,56.86c0.02,0.02,0.04,0.04,0.06,0.06c3.22,3.52,3.41,3.1,4.72,3.29c1.38,0.2,145.07,0.2,146.82,0
			c1.76-0.2,3.62-1.48,4.78-3.35"/>
	</g>
</g>
<g>
	<path d="M101.16,187.62v-12.84h1.7v12.84H101.16z"/>
	<path d="M105.34,181.36c0-2.13,0.57-3.8,1.72-5c1.14-1.21,2.62-1.81,4.43-1.81c1.18,0,2.25,0.28,3.21,0.85
		c0.95,0.57,1.68,1.36,2.18,2.37s0.75,2.16,0.75,3.45c0,1.3-0.26,2.47-0.79,3.49s-1.27,1.81-2.23,2.33s-2,0.79-3.12,0.79
		c-1.21,0-2.29-0.29-3.24-0.88c-0.95-0.58-1.67-1.38-2.16-2.39C105.58,183.56,105.34,182.49,105.34,181.36z M107.09,181.39
		c0,1.55,0.42,2.77,1.25,3.66s1.88,1.34,3.13,1.34c1.28,0,2.33-0.45,3.16-1.35c0.83-0.9,1.24-2.17,1.24-3.83
		c0-1.04-0.18-1.96-0.53-2.74c-0.35-0.78-0.87-1.38-1.55-1.81c-0.68-0.43-1.44-0.64-2.29-0.64c-1.2,0-2.24,0.41-3.1,1.24
		C107.52,178.08,107.09,179.46,107.09,181.39z"/>
	<path d="M119.83,187.62v-12.84h5.69c1.14,0,2.01,0.12,2.61,0.35c0.59,0.23,1.07,0.64,1.43,1.22c0.36,0.58,0.53,1.23,0.53,1.94
		c0,0.91-0.29,1.68-0.88,2.3c-0.59,0.62-1.5,1.02-2.73,1.19c0.45,0.22,0.79,0.43,1.02,0.64c0.5,0.46,0.97,1.03,1.41,1.71l2.23,3.49
		h-2.14l-1.7-2.67c-0.5-0.77-0.91-1.36-1.23-1.77c-0.32-0.41-0.61-0.7-0.86-0.86c-0.25-0.16-0.51-0.28-0.78-0.34
		c-0.19-0.04-0.51-0.06-0.95-0.06h-1.97v5.7H119.83z M121.53,180.44h3.65c0.78,0,1.38-0.08,1.82-0.24c0.44-0.16,0.77-0.42,1-0.77
		s0.34-0.74,0.34-1.15c0-0.61-0.22-1.11-0.66-1.5c-0.44-0.39-1.14-0.59-2.09-0.59h-4.06V180.44z"/>
	<path d="M145.83,180.07h-8.48v-1.47h8.48V180.07z M145.83,183.96h-8.48v-1.47h8.48V183.96z"/>
	<path d="M158.49,187.62h-1.58v-10.04c-0.38,0.36-0.88,0.72-1.49,1.09c-0.62,0.36-1.17,0.63-1.66,0.81v-1.52
		c0.88-0.41,1.65-0.92,2.31-1.51c0.66-0.59,1.13-1.16,1.4-1.72h1.02V187.62z"/>
	<path d="M163.42,187.62v-1.79h1.79v1.79H163.42z"/>
	<path d="M167.52,184.23l1.58-0.21c0.18,0.89,0.49,1.54,0.92,1.93c0.43,0.39,0.96,0.59,1.59,0.59c0.74,0,1.37-0.26,1.88-0.77
		s0.77-1.15,0.77-1.91c0-0.72-0.24-1.32-0.71-1.79s-1.07-0.71-1.8-0.71c-0.3,0-0.67,0.06-1.11,0.18l0.17-1.38
		c0.11,0.01,0.19,0.02,0.25,0.02c0.67,0,1.28-0.18,1.81-0.53c0.54-0.35,0.81-0.89,0.81-1.62c0-0.58-0.2-1.06-0.59-1.44
		c-0.39-0.38-0.9-0.57-1.52-0.57c-0.61,0-1.12,0.19-1.53,0.58s-0.67,0.96-0.79,1.73l-1.58-0.28c0.19-1.06,0.63-1.88,1.31-2.46
		s1.53-0.87,2.55-0.87c0.7,0,1.35,0.15,1.94,0.45s1.04,0.71,1.35,1.23c0.31,0.52,0.47,1.07,0.47,1.66c0,0.55-0.15,1.06-0.45,1.51
		s-0.74,0.82-1.32,1.09c0.76,0.17,1.35,0.54,1.77,1.09c0.42,0.55,0.63,1.24,0.63,2.07c0,1.12-0.41,2.07-1.23,2.85
		s-1.85,1.17-3.1,1.17c-1.13,0-2.06-0.34-2.81-1.01C168.05,186.16,167.63,185.29,167.52,184.23z"/>
	<path d="M177.5,184.23l1.58-0.21c0.18,0.89,0.49,1.54,0.92,1.93c0.43,0.39,0.96,0.59,1.59,0.59c0.74,0,1.37-0.26,1.88-0.77
		s0.77-1.15,0.77-1.91c0-0.72-0.24-1.32-0.71-1.79s-1.07-0.71-1.8-0.71c-0.3,0-0.67,0.06-1.11,0.18l0.17-1.38
		c0.11,0.01,0.19,0.02,0.25,0.02c0.67,0,1.28-0.18,1.81-0.53c0.54-0.35,0.81-0.89,0.81-1.62c0-0.58-0.2-1.06-0.59-1.44
		c-0.39-0.38-0.9-0.57-1.52-0.57c-0.61,0-1.12,0.19-1.53,0.58s-0.67,0.96-0.79,1.73l-1.58-0.28c0.19-1.06,0.63-1.88,1.31-2.46
		s1.53-0.87,2.55-0.87c0.7,0,1.35,0.15,1.94,0.45s1.04,0.71,1.35,1.23c0.31,0.52,0.47,1.07,0.47,1.66c0,0.55-0.15,1.06-0.45,1.51
		s-0.74,0.82-1.32,1.09c0.76,0.17,1.35,0.54,1.77,1.09c0.42,0.55,0.63,1.24,0.63,2.07c0,1.12-0.41,2.07-1.23,2.85
		s-1.85,1.17-3.1,1.17c-1.13,0-2.06-0.34-2.81-1.01C178.03,186.16,177.6,185.29,177.5,184.23z"/>
</g>
<g>
	<path d="M101.16,350.45v-12.84h1.7v12.84H101.16z"/>
	<path d="M105.34,344.2c0-2.13,0.57-3.8,1.72-5c1.14-1.21,2.62-1.81,4.43-1.81c1.18,0,2.25,0.28,3.21,0.85
		c0.95,0.57,1.68,1.36,2.18,2.37s0.75,2.16,0.75,3.45c0,1.3-0.26,2.47-0.79,3.49s-1.27,1.81-2.23,2.33s-2,0.79-3.12,0.79
		c-1.21,0-2.29-0.29-3.24-0.88c-0.95-0.58-1.67-1.38-2.16-2.39C105.58,346.4,105.34,345.33,105.34,344.2z M107.09,344.23
		c0,1.55,0.42,2.77,1.25,3.66s1.88,1.34,3.13,1.34c1.28,0,2.33-0.45,3.16-1.35c0.83-0.9,1.24-2.17,1.24-3.83
		c0-1.04-0.18-1.96-0.53-2.74c-0.35-0.78-0.87-1.38-1.55-1.81c-0.68-0.43-1.44-0.64-2.29-0.64c-1.2,0-2.24,0.41-3.1,1.24
		C107.52,340.92,107.09,342.29,107.09,344.23z"/>
	<path d="M119.83,350.45v-12.84h5.69c1.14,0,2.01,0.12,2.61,0.35c0.59,0.23,1.07,0.64,1.43,1.22c0.36,0.58,0.53,1.23,0.53,1.94
		c0,0.91-0.29,1.68-0.88,2.3c-0.59,0.62-1.5,1.02-2.73,1.19c0.45,0.22,0.79,0.43,1.02,0.64c0.5,0.46,0.97,1.03,1.41,1.71l2.23,3.49
		h-2.14l-1.7-2.67c-0.5-0.77-0.91-1.36-1.23-1.77c-0.32-0.41-0.61-0.7-0.86-0.86c-0.25-0.16-0.51-0.28-0.78-0.34
		c-0.19-0.04-0.51-0.06-0.95-0.06h-1.97v5.7H119.83z M121.53,343.28h3.65c0.78,0,1.38-0.08,1.82-0.24c0.44-0.16,0.77-0.42,1-0.77
		s0.34-0.74,0.34-1.15c0-0.61-0.22-1.11-0.66-1.5c-0.44-0.39-1.14-0.59-2.09-0.59h-4.06V343.28z"/>
	<path d="M145.83,342.91h-8.48v-1.47h8.48V342.91z M145.83,346.8h-8.48v-1.47h8.48V346.8z"/>
	<path d="M158.49,350.45h-1.58v-10.04c-0.38,0.36-0.88,0.72-1.49,1.09c-0.62,0.36-1.17,0.63-1.66,0.81v-1.52
		c0.88-0.41,1.65-0.92,2.31-1.51c0.66-0.59,1.13-1.16,1.4-1.72h1.02V350.45z"/>
	<path d="M163.42,350.45v-1.79h1.79v1.79H163.42z"/>
	<path d="M167.51,347.09l1.66-0.14c0.12,0.81,0.41,1.41,0.85,1.82c0.45,0.41,0.98,0.61,1.62,0.61c0.76,0,1.4-0.29,1.93-0.86
		s0.79-1.33,0.79-2.28c0-0.9-0.25-1.61-0.76-2.13s-1.17-0.78-1.98-0.78c-0.51,0-0.97,0.12-1.38,0.35c-0.41,0.23-0.73,0.53-0.96,0.9
		l-1.48-0.19l1.24-6.59h6.38v1.51h-5.12l-0.69,3.45c0.77-0.54,1.58-0.81,2.43-0.81c1.12,0,2.07,0.39,2.84,1.16
		c0.77,0.78,1.16,1.78,1.16,3c0,1.16-0.34,2.17-1.02,3.01c-0.82,1.04-1.95,1.56-3.37,1.56c-1.17,0-2.12-0.33-2.86-0.98
		C168.04,349.04,167.62,348.17,167.51,347.09z"/>
	<path d="M177.49,344.12c0-1.52,0.16-2.74,0.47-3.67c0.31-0.93,0.78-1.64,1.39-2.14s1.39-0.75,2.33-0.75c0.69,0,1.29,0.14,1.81,0.42
		s0.95,0.68,1.29,1.2c0.34,0.52,0.6,1.16,0.8,1.91c0.19,0.75,0.29,1.76,0.29,3.04c0,1.51-0.15,2.72-0.46,3.65
		c-0.31,0.92-0.77,1.64-1.39,2.15c-0.62,0.5-1.39,0.76-2.33,0.76c-1.24,0-2.21-0.44-2.92-1.33
		C177.91,348.27,177.49,346.53,177.49,344.12z M179.11,344.12c0,2.11,0.25,3.51,0.74,4.21c0.49,0.7,1.1,1.05,1.83,1.05
		s1.33-0.35,1.83-1.05c0.49-0.7,0.74-2.1,0.74-4.2c0-2.11-0.25-3.52-0.74-4.21c-0.49-0.69-1.11-1.04-1.84-1.04
		c-0.72,0-1.3,0.31-1.73,0.92C179.38,340.57,179.11,342.02,179.11,344.12z"/>
</g>
<g>
	<path d="M101.16,375.37v-12.84h1.7v12.84H101.16z"/>
	<path d="M105.34,369.11c0-2.13,0.57-3.8,1.72-5c1.14-1.21,2.62-1.81,4.43-1.81c1.18,0,2.25,0.28,3.21,0.85
		c0.95,0.57,1.68,1.36,2.18,2.37s0.75,2.16,0.75,3.45c0,1.3-0.26,2.47-0.79,3.49s-1.27,1.81-2.23,2.33s-2,0.79-3.12,0.79
		c-1.21,0-2.29-0.29-3.24-0.88c-0.95-0.58-1.67-1.38-2.16-2.39C105.58,371.31,105.34,370.24,105.34,369.11z M107.09,369.14
		c0,1.55,0.42,2.77,1.25,3.66s1.88,1.34,3.13,1.34c1.28,0,2.33-0.45,3.16-1.35c0.83-0.9,1.24-2.17,1.24-3.83
		c0-1.04-0.18-1.96-0.53-2.74c-0.35-0.78-0.87-1.38-1.55-1.81c-0.68-0.43-1.44-0.64-2.29-0.64c-1.2,0-2.24,0.41-3.1,1.24
		C107.52,365.83,107.09,367.21,107.09,369.14z"/>
	<path d="M119.83,375.37v-12.84h5.69c1.14,0,2.01,0.12,2.61,0.35c0.59,0.23,1.07,0.64,1.43,1.22c0.36,0.58,0.53,1.23,0.53,1.94
		c0,0.91-0.29,1.68-0.88,2.3c-0.59,0.62-1.5,1.02-2.73,1.19c0.45,0.22,0.79,0.43,1.02,0.64c0.5,0.46,0.97,1.03,1.41,1.71l2.23,3.49
		h-2.14l-1.7-2.67c-0.5-0.77-0.91-1.36-1.23-1.77c-0.32-0.41-0.61-0.7-0.86-0.86c-0.25-0.16-0.51-0.28-0.78-0.34
		c-0.19-0.04-0.51-0.06-0.95-0.06h-1.97v5.7H119.83z M121.53,368.19h3.65c0.78,0,1.38-0.08,1.82-0.24c0.44-0.16,0.77-0.42,1-0.77
		s0.34-0.74,0.34-1.15c0-0.61-0.22-1.11-0.66-1.5c-0.44-0.39-1.14-0.59-2.09-0.59h-4.06V368.19z"/>
	<path d="M145.83,367.82h-8.48v-1.47h8.48V367.82z M145.83,371.71h-8.48v-1.47h8.48V371.71z"/>
	<path d="M158.49,375.37h-1.58v-10.04c-0.38,0.36-0.88,0.72-1.49,1.09c-0.62,0.36-1.17,0.63-1.66,0.81v-1.52
		c0.88-0.41,1.65-0.92,2.31-1.51c0.66-0.59,1.13-1.16,1.4-1.72h1.02V375.37z"/>
	<path d="M163.42,375.37v-1.79h1.79v1.79H163.42z"/>
	<path d="M167.51,369.03c0-1.52,0.16-2.74,0.47-3.67c0.31-0.93,0.78-1.64,1.39-2.14s1.39-0.75,2.33-0.75c0.69,0,1.29,0.14,1.81,0.42
		s0.95,0.68,1.29,1.2c0.34,0.52,0.6,1.16,0.8,1.91c0.19,0.75,0.29,1.76,0.29,3.04c0,1.51-0.15,2.72-0.46,3.65
		c-0.31,0.92-0.77,1.64-1.39,2.15c-0.62,0.5-1.39,0.76-2.33,0.76c-1.24,0-2.21-0.44-2.92-1.33
		C167.94,373.18,167.51,371.45,167.51,369.03z M169.13,369.03c0,2.11,0.25,3.51,0.74,4.21c0.49,0.7,1.1,1.05,1.83,1.05
		s1.33-0.35,1.83-1.05c0.49-0.7,0.74-2.1,0.74-4.2c0-2.11-0.25-3.52-0.74-4.21c-0.49-0.69-1.11-1.04-1.84-1.04
		c-0.72,0-1.3,0.31-1.73,0.92C169.4,365.48,169.13,366.93,169.13,369.03z"/>
	<path d="M177.49,369.03c0-1.52,0.16-2.74,0.47-3.67c0.31-0.93,0.78-1.64,1.39-2.14s1.39-0.75,2.33-0.75c0.69,0,1.29,0.14,1.81,0.42
		s0.95,0.68,1.29,1.2c0.34,0.52,0.6,1.16,0.8,1.91c0.19,0.75,0.29,1.76,0.29,3.04c0,1.51-0.15,2.72-0.46,3.65
		c-0.31,0.92-0.77,1.64-1.39,2.15c-0.62,0.5-1.39,0.76-2.33,0.76c-1.24,0-2.21-0.44-2.92-1.33
		C177.91,373.18,177.49,371.45,177.49,369.03z M179.11,369.03c0,2.11,0.25,3.51,0.74,4.21c0.49,0.7,1.1,1.05,1.83,1.05
		s1.33-0.35,1.83-1.05c0.49-0.7,0.74-2.1,0.74-4.2c0-2.11-0.25-3.52-0.74-4.21c-0.49-0.69-1.11-1.04-1.84-1.04
		c-0.72,0-1.3,0.31-1.73,0.92C179.38,365.48,179.11,366.93,179.11,369.03z"/>
</g>
<g>
	<g>
		<g>
			<g>
				<line class="st3" x1="500.5" y1="64" x2="500.5" y2="51"/>
				<g>
					<path class="st4" d="M500.85,47.05c0.74,1.99,2,4.45,3.33,5.98l-3.33-1.2l-3.33,1.2C498.85,51.51,500.11,49.04,500.85,47.05z"
						/>
				</g>
			</g>
		</g>
		<g>
			<g>
				<line class="st3" x1="585.5" y1="64" x2="585.5" y2="51"/>
				<g>
					<path class="st4" d="M585.5,47.05c0.74,1.99,2,4.45,3.33,5.98l-3.33-1.2l-3.33,1.2C583.51,51.51,584.76,49.04,585.5,47.05z"/>
				</g>
			</g>
		</g>
		<g>
			<g>
				<line class="st3" x1="542.5" y1="64" x2="542.5" y2="51"/>
				<g>
					<path class="st4" d="M542.46,47.05c0.74,1.99,2,4.45,3.33,5.98l-3.33-1.2l-3.33,1.2C540.46,51.51,541.72,49.04,542.46,47.05z"
						/>
				</g>
			</g>
		</g>
		<g>
			<g>
				<line class="st3" x1="622.87" y1="43.41" x2="612.04" y2="41.9"/>
				<g>
					<path class="st4" d="M607.86,41.32c2.07-0.46,4.69-1.36,6.39-2.47l-1.65,3.13l0.73,3.46C612,43.91,609.73,42.32,607.86,41.32z"
						/>
				</g>
			</g>
		</g>
		<g>
			<g>
				<line class="st3" x1="464.38" y1="43.41" x2="475.2" y2="41.9"/>
				<g>
					<path class="st4" d="M479.39,41.32c-1.87,1-4.14,2.59-5.47,4.12l0.73-3.46L473,38.85C474.7,39.95,477.32,40.86,479.39,41.32z"
						/>
				</g>
			</g>
		</g>
		<g>
			<g>
				<line class="st3" x1="500.85" y1="331.14" x2="505.02" y2="320.72"/>
				<g>
					<path class="st4" d="M506.59,316.79c-0.05,2.12,0.2,4.88,0.87,6.79l-2.64-2.35l-3.54-0.12
						C503.08,320.19,505.17,318.37,506.59,316.79z"/>
				</g>
			</g>
		</g>
		<g>
			<g>
				<line class="st3" x1="585.5" y1="331.14" x2="581.33" y2="320.72"/>
				<g>
					<path class="st4" d="M579.76,316.79c1.42,1.57,3.51,3.39,5.31,4.32l-3.54,0.12l-2.64,2.35
						C579.56,321.67,579.82,318.91,579.76,316.79z"/>
				</g>
			</g>
		</g>
		<g>
			<g>
				<line class="st3" x1="542.5" y1="338" x2="542.5" y2="325"/>
				<g>
					<path class="st4" d="M542.46,320.38c0.74,1.99,2,4.45,3.33,5.98l-3.33-1.2l-3.33,1.2
						C540.46,324.83,541.72,322.37,542.46,320.38z"/>
				</g>
			</g>
		</g>
		<g>
			<g>
				<g>
					<line class="st3" x1="473.59" y1="171.16" x2="482.68" y2="169.79"/>
					<g>
						<path class="st4" d="M486.86,169.16c-1.86,1.03-4.11,2.64-5.42,4.19l0.69-3.47l-1.69-3.11
							C482.16,167.85,484.78,168.72,486.86,169.16z"/>
					</g>
				</g>
			</g>
			<g>
				<g>
					<line class="st3" x1="468.57" y1="107.32" x2="477.66" y2="105.94"/>
					<g>
						<path class="st4" d="M481.84,105.31c-1.86,1.03-4.11,2.64-5.42,4.19l0.69-3.47l-1.69-3.11
							C477.13,104,479.76,104.88,481.84,105.31z"/>
					</g>
				</g>
			</g>
			<g>
				<g>
					<line class="st3" x1="477.18" y1="231.42" x2="486.98" y2="230.02"/>
					<g>
						<path class="st4" d="M491.16,229.42c-1.86,1.01-4.13,2.61-5.45,4.15l0.72-3.47l-1.67-3.12
							C486.47,228.07,489.09,228.97,491.16,229.42z"/>
					</g>
				</g>
			</g>
			<g>
				<g>
					<line class="st3" x1="481.48" y1="288.1" x2="491.29" y2="286.69"/>
					<g>
						<path class="st4" d="M495.47,286.09c-1.86,1.01-4.13,2.61-5.45,4.15l0.72-3.47l-1.67-3.12
							C490.78,284.75,493.4,285.64,495.47,286.09z"/>
					</g>
				</g>
			</g>
		</g>
		<g>
			<g>
				<g>
					<line class="st3" x1="599.35" y1="230.71" x2="608.44" y2="232.09"/>
					<g>
						<path class="st4" d="M595.17,230.08c1.86,1.03,4.11,2.64,5.42,4.19l-0.69-3.47l1.69-3.11
							C599.87,228.77,597.25,229.65,595.17,230.08z"/>
					</g>
				</g>
			</g>
			<g>
				<g>
					<line class="st3" x1="595.42" y1="286.72" x2="604.51" y2="288.1"/>
					<g>
						<path class="st4" d="M591.24,286.09c1.86,1.03,4.11,2.64,5.42,4.19l-0.69-3.47l1.69-3.11
							C595.94,284.78,593.32,285.66,591.24,286.09z"/>
					</g>
				</g>
			</g>
			<g>
				<g>
					<line class="st3" x1="603.31" y1="169.04" x2="613.12" y2="170.45"/>
					<g>
						<path class="st4" d="M599.13,168.44c1.86,1.01,4.13,2.61,5.45,4.15l-0.72-3.47l1.66-3.12
							C603.82,167.1,601.2,167.99,599.13,168.44z"/>
					</g>
				</g>
			</g>
			<g>
				<g>
					<line class="st3" x1="606.9" y1="105.91" x2="616.71" y2="107.32"/>
					<g>
						<path class="st4" d="M602.72,105.31c1.86,1.01,4.13,2.61,5.45,4.14l-0.72-3.47l1.67-3.12
							C607.41,103.97,604.79,104.86,602.72,105.31z"/>
					</g>
				</g>
			</g>
		</g>
		<g>
			<g>
				<line class="st3" x1="593.39" y1="357.68" x2="593.93" y2="370.68"/>
				<g>
					<path class="st4" d="M594.11,374.9c-0.82-1.96-2.18-4.37-3.58-5.84l3.38,1.07l3.28-1.34
						C595.92,370.37,594.76,372.88,594.11,374.9z"/>
				</g>
			</g>
		</g>
		<g>
			<g>
				<line class="st3" x1="492.96" y1="357.68" x2="492.42" y2="370.68"/>
				<g>
					<path class="st4" d="M492.24,374.9c-0.65-2.02-1.81-4.53-3.08-6.12l3.28,1.34l3.38-1.06
						C494.42,370.53,493.06,372.95,492.24,374.9z"/>
				</g>
			</g>
		</g>
		<g>
			<g>
				<line class="st3" x1="543.5" y1="359" x2="543.5" y2="372"/>
				<g>
					<path class="st4" d="M543.17,376.34c-0.74-1.99-2-4.45-3.33-5.98l3.33,1.2l3.33-1.2C545.17,371.88,543.91,374.35,543.17,376.34
						z"/>
				</g>
			</g>
		</g>
		<g>
			<g>
				<line class="st3" x1="626.22" y1="31.05" x2="624.66" y2="18.38"/>
				<g>
					<path class="st4" d="M624.14,14.19c0.98,1.88,2.53,4.18,4.04,5.53l-3.45-0.79l-3.16,1.6
						C622.71,18.85,623.66,16.25,624.14,14.19z"/>
				</g>
			</g>
		</g>
		<g>
			<g>
				<line class="st3" x1="459.56" y1="31.81" x2="460.7" y2="19.16"/>
				<g>
					<path class="st4" d="M461.07,14.95c0.56,2.05,1.59,4.61,2.78,6.26l-3.21-1.5l-3.42,0.9C458.69,19.21,460.16,16.87,461.07,14.95
						z"/>
				</g>
			</g>
		</g>
		<g>
			<g>
				<line class="st3" x1="619.94" y1="245.42" x2="632.93" y2="245.95"/>
				<g>
					<path class="st4" d="M637.15,246.12c-2.02,0.66-4.53,1.81-6.11,3.08l1.34-3.28l-1.07-3.38
						C632.78,243.95,635.19,245.31,637.15,246.12z"/>
				</g>
			</g>
		</g>
		<g>
			<g>
				<line class="st3" x1="623.93" y1="157.37" x2="636.85" y2="158.7"/>
				<g>
					<path class="st4" d="M641.05,159.14c-2.05,0.53-4.64,1.53-6.29,2.7l1.54-3.19l-0.86-3.43
						C636.83,156.69,639.15,158.2,641.05,159.14z"/>
				</g>
			</g>
		</g>
		<g>
			<g>
				<line class="st3" x1="616.37" y1="319.13" x2="629.33" y2="319.93"/>
				<g>
					<path class="st4" d="M633.55,320.2c-2.03,0.61-4.57,1.72-6.18,2.95l1.41-3.25l-1-3.4C629.23,317.93,631.61,319.34,633.55,320.2
						z"/>
				</g>
			</g>
		</g>
		<g>
			<g>
				<line class="st3" x1="628.23" y1="84.91" x2="641.16" y2="86.25"/>
				<g>
					<path class="st4" d="M645.36,86.68c-2.05,0.53-4.64,1.53-6.29,2.7l1.54-3.19l-0.86-3.43
						C641.13,84.24,643.46,85.74,645.36,86.68z"/>
				</g>
			</g>
		</g>
		<g>
			<g>
				<line class="st3" x1="450.56" y1="158.8" x2="463.54" y2="158.26"/>
				<g>
					<path class="st4" d="M446.34,158.97c2.02,0.66,4.53,1.81,6.11,3.08l-1.34-3.28l1.07-3.38
						C450.71,156.79,448.29,158.15,446.34,158.97z"/>
				</g>
			</g>
		</g>
		<g>
			<g>
				<line class="st3" x1="452.37" y1="246.59" x2="465.29" y2="245.25"/>
				<g>
					<path class="st4" d="M448.17,247.02c2.05,0.53,4.64,1.53,6.29,2.7l-1.54-3.19l0.86-3.43
						C452.39,244.58,450.07,246.09,448.17,247.02z"/>
				</g>
			</g>
		</g>
		<g>
			<g>
				<line class="st3" x1="444.82" y1="85.71" x2="457.79" y2="84.91"/>
				<g>
					<path class="st4" d="M440.61,85.98c2.03,0.61,4.57,1.72,6.18,2.95l-1.41-3.25l1-3.4C444.93,83.71,442.54,85.12,440.61,85.98z"
						/>
				</g>
			</g>
		</g>
		<g>
			<g>
				<line class="st3" x1="455.22" y1="320.28" x2="468.2" y2="319.54"/>
				<g>
					<path class="st4" d="M451.01,320.51c2.03,0.62,4.56,1.74,6.16,2.99l-1.39-3.26l1.01-3.39
						C455.34,318.27,452.95,319.67,451.01,320.51z"/>
				</g>
			</g>
		</g>
	</g>
	<path class="st5" d="M620.98,61.45c-4.96,66.01-16.92,225.28-18.66,249.06c-1.92,26.06-44.48,27.26-59.54,27.26
		c-15.06,0-58.11-0.72-59.54-27.26c-1.28-23.81-13.5-182.96-18.59-248.99"/>
	<path class="st6" d="M464.65,61.51c-1.25-16.21-2.03-29.52-2.03-29.52l-6.22-0.72c-4.06,2.75,4.78,98.21,4.78,98.21
		c7.17,91.11,2.95,215.66,11.96,224.59c6.51,6.46,133.9,7.15,139.65,0c4.79-5.95,6.98-133.63,11.96-224.59
		c0,0,8.01-94.15,4.79-98.69l-6.22,0.48c0,0-1.11,13.91-2.33,30.17"/>
	<path class="st7" d="M464.38,60.74c0.02,0.02,0.29,0.34,0.31,0.37c3.22,3.52,3.41,3.1,4.72,3.29c1.38,0.2,145.07,0.2,146.82,0
		c1.76-0.2,3.62-1.48,4.79-3.35"/>
</g>
<g>
	<rect x="795.5" y="137.5" class="st8" width="71" height="31"/>
	<g>
		<path d="M900.07,114.47V97.93h2.19v16.54H900.07z"/>
		<path d="M905.86,114.47v-11.98h1.83v1.7c0.88-1.32,2.15-1.97,3.81-1.97c0.72,0,1.38,0.13,1.99,0.39s1.06,0.6,1.36,1.02
			c0.3,0.42,0.51,0.92,0.63,1.5c0.08,0.38,0.11,1.03,0.11,1.97v7.37h-2.03v-7.29c0-0.83-0.08-1.45-0.24-1.86
			c-0.16-0.41-0.44-0.74-0.84-0.98s-0.87-0.37-1.42-0.37c-0.87,0-1.61,0.28-2.24,0.82s-0.94,1.59-0.94,3.12v6.54H905.86z"/>
		<path d="M923.14,112.65l0.29,1.79c-0.57,0.12-1.08,0.18-1.53,0.18c-0.74,0-1.31-0.12-1.71-0.35c-0.41-0.23-0.69-0.54-0.86-0.92
			c-0.17-0.38-0.25-1.18-0.25-2.4v-6.89h-1.49v-1.58h1.49v-2.97l2.02-1.22v4.19h2.04v1.58h-2.04v7.01c0,0.58,0.04,0.95,0.11,1.12
			c0.07,0.17,0.19,0.3,0.35,0.4c0.16,0.1,0.39,0.15,0.69,0.15C922.48,112.73,922.77,112.71,923.14,112.65z"/>
		<path d="M933.33,110.61l2.1,0.26c-0.33,1.23-0.94,2.18-1.84,2.85c-0.9,0.68-2.04,1.01-3.43,1.01c-1.75,0-3.14-0.54-4.17-1.62
			c-1.03-1.08-1.54-2.59-1.54-4.54c0-2.02,0.52-3.58,1.56-4.69c1.04-1.11,2.38-1.67,4.04-1.67c1.6,0,2.91,0.55,3.93,1.64
			c1.02,1.09,1.52,2.62,1.52,4.6c0,0.12,0,0.3-0.01,0.54h-8.93c0.08,1.32,0.45,2.32,1.12,3.02c0.67,0.7,1.5,1.05,2.5,1.05
			c0.75,0,1.38-0.2,1.91-0.59C932.6,112.09,933.02,111.47,933.33,110.61z M926.66,107.33h6.69c-0.09-1.01-0.35-1.76-0.77-2.27
			c-0.65-0.78-1.49-1.17-2.52-1.17c-0.93,0-1.72,0.31-2.35,0.94C927.08,105.45,926.73,106.28,926.66,107.33z"/>
		<path d="M937.96,114.47v-11.98h1.83v1.82c0.47-0.85,0.9-1.41,1.29-1.68c0.39-0.27,0.83-0.41,1.3-0.41c0.68,0,1.38,0.22,2.09,0.65
			l-0.7,1.88c-0.5-0.29-0.99-0.44-1.49-0.44c-0.44,0-0.84,0.13-1.2,0.4c-0.35,0.27-0.61,0.64-0.76,1.11
			c-0.23,0.72-0.34,1.51-0.34,2.37v6.27H937.96z"/>
		<path d="M945.68,100.27v-2.34h2.03v2.34H945.68z M945.68,114.47v-11.98h2.03v11.98H945.68z"/>
		<path d="M950.05,108.48c0-2.22,0.62-3.86,1.85-4.93c1.03-0.89,2.29-1.33,3.77-1.33c1.65,0,2.99,0.54,4.04,1.62
			c1.04,1.08,1.57,2.57,1.57,4.47c0,1.54-0.23,2.76-0.69,3.64c-0.46,0.88-1.14,1.57-2.02,2.06c-0.88,0.49-1.85,0.73-2.89,0.73
			c-1.68,0-3.03-0.54-4.07-1.61C950.57,112.05,950.05,110.5,950.05,108.48z M952.14,108.48c0,1.53,0.33,2.68,1,3.45
			c0.67,0.76,1.51,1.15,2.53,1.15c1.01,0,1.85-0.38,2.52-1.15c0.67-0.77,1-1.94,1-3.51c0-1.48-0.34-2.6-1.01-3.37
			c-0.67-0.76-1.51-1.14-2.51-1.14c-1.01,0-1.86,0.38-2.53,1.14C952.47,105.8,952.14,106.94,952.14,108.48z"/>
		<path d="M963.63,114.47v-11.98h1.83v1.82c0.47-0.85,0.9-1.41,1.29-1.68c0.39-0.27,0.83-0.41,1.3-0.41c0.68,0,1.38,0.22,2.09,0.65
			l-0.7,1.88c-0.5-0.29-0.99-0.44-1.49-0.44c-0.44,0-0.84,0.13-1.2,0.4c-0.35,0.27-0.61,0.64-0.76,1.11
			c-0.23,0.72-0.34,1.51-0.34,2.37v6.27H963.63z"/>
		<path d="M978.4,114.47V97.93h2.19v16.54H978.4z"/>
		<path d="M983.78,106.41c0-2.75,0.74-4.89,2.21-6.45c1.47-1.55,3.38-2.33,5.71-2.33c1.53,0,2.9,0.36,4.13,1.09s2.16,1.75,2.8,3.05
			c0.64,1.3,0.96,2.79,0.96,4.44c0,1.68-0.34,3.18-1.02,4.5c-0.68,1.32-1.64,2.33-2.88,3.01c-1.24,0.68-2.58,1.02-4.02,1.02
			c-1.56,0-2.95-0.38-4.17-1.13c-1.23-0.75-2.15-1.78-2.79-3.08S983.78,107.87,983.78,106.41z M986.04,106.45
			c0,1.99,0.54,3.56,1.61,4.71c1.07,1.15,2.42,1.72,4.03,1.72c1.65,0,3-0.58,4.07-1.74c1.06-1.16,1.6-2.8,1.6-4.93
			c0-1.35-0.23-2.52-0.68-3.53s-1.12-1.78-2-2.34c-0.88-0.55-1.86-0.83-2.95-0.83c-1.55,0-2.88,0.53-4,1.6
			C986.59,102.18,986.04,103.96,986.04,106.45z"/>
		<path d="M1002.45,114.47V97.93h7.33c1.47,0,2.59,0.15,3.36,0.45c0.77,0.3,1.38,0.82,1.84,1.57c0.46,0.75,0.69,1.58,0.69,2.49
			c0,1.17-0.38,2.16-1.14,2.97s-1.93,1.32-3.52,1.53c0.58,0.28,1.02,0.55,1.32,0.82c0.64,0.59,1.25,1.32,1.82,2.2l2.88,4.5h-2.75
			l-2.19-3.44c-0.64-0.99-1.17-1.75-1.58-2.28c-0.41-0.53-0.78-0.9-1.11-1.11s-0.66-0.36-1-0.44c-0.25-0.05-0.65-0.08-1.22-0.08
			h-2.54v7.34H1002.45z M1004.64,105.23h4.7c1,0,1.78-0.1,2.35-0.31c0.56-0.21,0.99-0.54,1.29-0.99c0.29-0.45,0.44-0.95,0.44-1.48
			c0-0.78-0.28-1.43-0.85-1.93c-0.57-0.5-1.46-0.76-2.69-0.76h-5.23V105.23z"/>
	</g>
	<g>
		<path d="M1036.77,114.47V97.93h11.96v1.95h-9.77v5.07h9.15v1.94h-9.15v5.63h10.15v1.95H1036.77z"/>
		<path d="M1050.52,114.47l4.38-6.23l-4.05-5.75h2.54l1.84,2.81c0.35,0.53,0.62,0.98,0.83,1.34c0.33-0.5,0.64-0.94,0.91-1.32
			l2.02-2.83h2.43l-4.14,5.64l4.46,6.34h-2.49l-2.46-3.72l-0.65-1l-3.15,4.73H1050.52z"/>
		<path d="M1067.86,112.65l0.29,1.79c-0.57,0.12-1.08,0.18-1.53,0.18c-0.74,0-1.31-0.12-1.71-0.35c-0.41-0.23-0.69-0.54-0.86-0.92
			c-0.17-0.38-0.25-1.18-0.25-2.4v-6.89h-1.49v-1.58h1.49v-2.97l2.02-1.22v4.19h2.04v1.58h-2.04v7.01c0,0.58,0.04,0.95,0.11,1.12
			c0.07,0.17,0.19,0.3,0.35,0.4c0.16,0.1,0.39,0.15,0.69,0.15C1067.2,112.73,1067.49,112.71,1067.86,112.65z"/>
		<path d="M1078.05,110.61l2.1,0.26c-0.33,1.23-0.94,2.18-1.84,2.85c-0.9,0.68-2.04,1.01-3.43,1.01c-1.75,0-3.14-0.54-4.17-1.62
			c-1.03-1.08-1.54-2.59-1.54-4.54c0-2.02,0.52-3.58,1.56-4.69c1.04-1.11,2.38-1.67,4.04-1.67c1.6,0,2.91,0.55,3.93,1.64
			c1.02,1.09,1.52,2.62,1.52,4.6c0,0.12,0,0.3-0.01,0.54h-8.93c0.08,1.32,0.45,2.32,1.12,3.02c0.67,0.7,1.5,1.05,2.5,1.05
			c0.75,0,1.38-0.2,1.91-0.59C1077.32,112.09,1077.74,111.47,1078.05,110.61z M1071.38,107.33h6.69c-0.09-1.01-0.35-1.76-0.77-2.27
			c-0.65-0.78-1.49-1.17-2.52-1.17c-0.93,0-1.72,0.31-2.35,0.94C1071.8,105.45,1071.45,106.28,1071.38,107.33z"/>
		<path d="M1082.67,114.47v-11.98h1.83v1.82c0.47-0.85,0.9-1.41,1.29-1.68c0.39-0.27,0.83-0.41,1.3-0.41c0.68,0,1.38,0.22,2.09,0.65
			l-0.7,1.88c-0.5-0.29-0.99-0.44-1.49-0.44c-0.44,0-0.84,0.13-1.2,0.4c-0.35,0.27-0.61,0.64-0.76,1.11
			c-0.23,0.72-0.34,1.51-0.34,2.37v6.27H1082.67z"/>
		<path d="M1090.4,100.27v-2.34h2.03v2.34H1090.4z M1090.4,114.47v-11.98h2.03v11.98H1090.4z"/>
		<path d="M1094.77,108.48c0-2.22,0.62-3.86,1.85-4.93c1.03-0.89,2.29-1.33,3.77-1.33c1.65,0,2.99,0.54,4.04,1.62
			c1.04,1.08,1.57,2.57,1.57,4.47c0,1.54-0.23,2.76-0.69,3.64c-0.46,0.88-1.14,1.57-2.02,2.06c-0.88,0.49-1.85,0.73-2.89,0.73
			c-1.68,0-3.03-0.54-4.07-1.61C1095.29,112.05,1094.77,110.5,1094.77,108.48z M1096.86,108.48c0,1.53,0.33,2.68,1,3.45
			c0.67,0.76,1.51,1.15,2.53,1.15c1.01,0,1.85-0.38,2.52-1.15c0.67-0.77,1-1.94,1-3.51c0-1.48-0.34-2.6-1.01-3.37
			c-0.67-0.76-1.51-1.14-2.51-1.14c-1.01,0-1.86,0.38-2.53,1.14C1097.19,105.8,1096.86,106.94,1096.86,108.48z"/>
		<path d="M1108.35,114.47v-11.98h1.83v1.82c0.47-0.85,0.9-1.41,1.29-1.68c0.39-0.27,0.83-0.41,1.3-0.41c0.68,0,1.38,0.22,2.09,0.65
			l-0.7,1.88c-0.5-0.29-0.99-0.44-1.49-0.44c-0.44,0-0.84,0.13-1.2,0.4c-0.35,0.27-0.61,0.64-0.76,1.11
			c-0.23,0.72-0.34,1.51-0.34,2.37v6.27H1108.35z"/>
		<path d="M1123.12,114.47V97.93h2.19v16.54H1123.12z"/>
		<path d="M1128.5,106.41c0-2.75,0.74-4.89,2.21-6.45c1.47-1.55,3.38-2.33,5.71-2.33c1.53,0,2.9,0.36,4.13,1.09s2.16,1.75,2.8,3.05
			c0.64,1.3,0.96,2.79,0.96,4.44c0,1.68-0.34,3.18-1.02,4.5c-0.68,1.32-1.64,2.33-2.88,3.01c-1.24,0.68-2.58,1.02-4.02,1.02
			c-1.56,0-2.95-0.38-4.17-1.13c-1.23-0.75-2.15-1.78-2.79-3.08S1128.5,107.87,1128.5,106.41z M1130.75,106.45
			c0,1.99,0.54,3.56,1.61,4.71c1.07,1.15,2.42,1.72,4.03,1.72c1.65,0,3-0.58,4.07-1.74c1.06-1.16,1.6-2.8,1.6-4.93
			c0-1.35-0.23-2.52-0.68-3.53s-1.12-1.78-2-2.34c-0.88-0.55-1.86-0.83-2.95-0.83c-1.55,0-2.88,0.53-4,1.6
			C1131.31,102.18,1130.75,103.96,1130.75,106.45z"/>
		<path d="M1147.17,114.47V97.93h7.33c1.47,0,2.59,0.15,3.36,0.45c0.77,0.3,1.38,0.82,1.84,1.57c0.46,0.75,0.69,1.58,0.69,2.49
			c0,1.17-0.38,2.16-1.14,2.97s-1.93,1.32-3.52,1.53c0.58,0.28,1.02,0.55,1.32,0.82c0.64,0.59,1.25,1.32,1.82,2.2l2.88,4.5h-2.75
			l-2.19-3.44c-0.64-0.99-1.17-1.75-1.58-2.28c-0.41-0.53-0.78-0.9-1.11-1.11s-0.66-0.36-1-0.44c-0.25-0.05-0.65-0.08-1.22-0.08
			h-2.54v7.34H1147.17z M1149.36,105.23h4.7c1,0,1.78-0.1,2.35-0.31c0.56-0.21,0.99-0.54,1.29-0.99c0.29-0.45,0.44-0.95,0.44-1.48
			c0-0.78-0.28-1.43-0.85-1.93c-0.57-0.5-1.46-0.76-2.69-0.76h-5.23V105.23z"/>
	</g>
	<line class="st9" x1="782" y1="127.5" x2="1170" y2="127.5"/>
	<g>
		<path d="M798.97,109.68l2.06-0.18c0.1,0.83,0.33,1.51,0.68,2.04c0.36,0.53,0.91,0.96,1.66,1.29c0.75,0.33,1.6,0.49,2.54,0.49
			c0.83,0,1.57-0.12,2.21-0.37s1.12-0.59,1.43-1.02c0.31-0.43,0.47-0.9,0.47-1.42c0-0.52-0.15-0.97-0.45-1.36
			c-0.3-0.39-0.8-0.71-1.49-0.98c-0.44-0.17-1.43-0.44-2.94-0.81c-1.52-0.36-2.58-0.71-3.19-1.03c-0.79-0.41-1.38-0.93-1.77-1.54
			c-0.39-0.61-0.58-1.3-0.58-2.06c0-0.83,0.24-1.62,0.71-2.34c0.47-0.73,1.17-1.28,2.08-1.65s1.92-0.56,3.04-0.56
			c1.23,0,2.31,0.2,3.24,0.59c0.94,0.39,1.66,0.98,2.16,1.74c0.5,0.77,0.77,1.64,0.81,2.61l-2.1,0.16
			c-0.11-1.05-0.49-1.84-1.14-2.37c-0.65-0.53-1.61-0.8-2.88-0.8c-1.32,0-2.29,0.24-2.89,0.73c-0.61,0.49-0.91,1.07-0.91,1.75
			c0,0.59,0.21,1.08,0.64,1.47c0.42,0.38,1.52,0.78,3.3,1.18c1.78,0.4,3,0.75,3.66,1.05c0.96,0.44,1.67,1.01,2.13,1.69
			s0.69,1.46,0.69,2.35c0,0.88-0.25,1.71-0.76,2.49c-0.5,0.78-1.23,1.38-2.17,1.82c-0.94,0.43-2.01,0.65-3.19,0.65
			c-1.5,0-2.75-0.22-3.76-0.65s-1.8-1.09-2.38-1.97S799,110.79,798.97,109.68z"/>
		<path d="M822.72,114.99v-1.76c-0.93,1.35-2.2,2.03-3.8,2.03c-0.71,0-1.37-0.14-1.98-0.41c-0.61-0.27-1.07-0.61-1.36-1.02
			c-0.3-0.41-0.51-0.91-0.63-1.51c-0.08-0.4-0.12-1.03-0.12-1.9v-7.42h2.03v6.64c0,1.06,0.04,1.78,0.12,2.14
			c0.13,0.53,0.4,0.95,0.81,1.26c0.41,0.3,0.93,0.46,1.54,0.46c0.61,0,1.18-0.16,1.71-0.47c0.53-0.31,0.91-0.74,1.13-1.28
			c0.22-0.54,0.33-1.32,0.33-2.34v-6.42h2.03v11.98H822.72z"/>
		<path d="M827.69,114.99v-11.98h1.83v1.82c0.47-0.85,0.9-1.41,1.29-1.68c0.39-0.27,0.83-0.41,1.3-0.41c0.68,0,1.38,0.22,2.09,0.65
			l-0.7,1.88c-0.5-0.29-0.99-0.44-1.49-0.44c-0.44,0-0.84,0.13-1.2,0.4c-0.35,0.27-0.61,0.64-0.76,1.11
			c-0.23,0.72-0.34,1.51-0.34,2.37v6.27H827.69z"/>
		<path d="M835.9,114.99v-10.4h-1.79v-1.58h1.79v-1.28c0-0.8,0.07-1.4,0.21-1.79c0.2-0.53,0.54-0.95,1.03-1.28
			c0.49-0.33,1.18-0.49,2.07-0.49c0.57,0,1.2,0.07,1.89,0.2l-0.3,1.77c-0.42-0.08-0.82-0.11-1.2-0.11c-0.62,0-1.05,0.13-1.31,0.39
			c-0.26,0.26-0.38,0.76-0.38,1.48v1.11h2.33v1.58h-2.33v10.4H835.9z"/>
		<path d="M849.65,113.52c-0.75,0.64-1.48,1.09-2.17,1.35c-0.7,0.26-1.44,0.39-2.24,0.39c-1.32,0-2.33-0.32-3.03-0.96
			c-0.71-0.64-1.06-1.46-1.06-2.46c0-0.59,0.13-1.12,0.4-1.61c0.27-0.49,0.62-0.88,1.05-1.17s0.92-0.52,1.46-0.67
			c0.4-0.11,1-0.21,1.81-0.3c1.64-0.2,2.85-0.43,3.62-0.7c0.01-0.28,0.01-0.46,0.01-0.53c0-0.83-0.19-1.41-0.58-1.75
			c-0.52-0.46-1.29-0.69-2.31-0.69c-0.96,0-1.66,0.17-2.12,0.5c-0.46,0.33-0.79,0.93-1.01,1.78l-1.99-0.27
			c0.18-0.85,0.48-1.54,0.89-2.06c0.41-0.52,1.01-0.93,1.79-1.21c0.78-0.28,1.69-0.42,2.72-0.42c1.02,0,1.85,0.12,2.49,0.36
			c0.64,0.24,1.11,0.54,1.41,0.91s0.51,0.83,0.63,1.38c0.07,0.35,0.1,0.97,0.1,1.87v2.71c0,1.89,0.04,3.08,0.13,3.58
			c0.09,0.5,0.26,0.98,0.51,1.44h-2.12C849.84,114.57,849.71,114.08,849.65,113.52z M849.48,108.98c-0.74,0.3-1.84,0.56-3.32,0.77
			c-0.83,0.12-1.43,0.26-1.77,0.41s-0.61,0.37-0.8,0.66c-0.19,0.29-0.28,0.61-0.28,0.96c0,0.54,0.21,0.99,0.61,1.35
			c0.41,0.36,1.01,0.54,1.8,0.54c0.78,0,1.48-0.17,2.09-0.51s1.06-0.81,1.34-1.41c0.22-0.46,0.33-1.13,0.33-2.03V108.98z"/>
		<path d="M862.5,110.61l2,0.26c-0.22,1.38-0.78,2.45-1.68,3.23c-0.9,0.78-2,1.17-3.31,1.17c-1.64,0-2.96-0.54-3.95-1.61
			c-1-1.07-1.5-2.61-1.5-4.61c0-1.29,0.21-2.43,0.64-3.4s1.08-1.7,1.96-2.18c0.88-0.49,1.83-0.73,2.86-0.73
			c1.3,0,2.37,0.33,3.19,0.99c0.83,0.66,1.36,1.59,1.59,2.8l-1.97,0.3c-0.19-0.8-0.52-1.41-1-1.82s-1.05-0.61-1.73-0.61
			c-1.02,0-1.85,0.37-2.49,1.1c-0.64,0.73-0.96,1.89-0.96,3.48c0,1.61,0.31,2.78,0.93,3.51c0.62,0.73,1.42,1.09,2.41,1.09
			c0.8,0,1.46-0.24,2-0.73C862.02,112.37,862.35,111.62,862.5,110.61z"/>
		<path d="M874.43,111.14l2.1,0.26c-0.33,1.23-0.94,2.18-1.84,2.85c-0.9,0.68-2.04,1.01-3.43,1.01c-1.75,0-3.14-0.54-4.17-1.62
			c-1.03-1.08-1.54-2.59-1.54-4.54c0-2.02,0.52-3.58,1.56-4.69c1.04-1.11,2.38-1.67,4.04-1.67c1.6,0,2.91,0.55,3.93,1.64
			c1.02,1.09,1.52,2.62,1.52,4.6c0,0.12,0,0.3-0.01,0.54h-8.93c0.08,1.32,0.45,2.32,1.12,3.02c0.67,0.7,1.5,1.05,2.5,1.05
			c0.75,0,1.38-0.2,1.91-0.59C873.71,112.62,874.12,111.99,874.43,111.14z M867.77,107.85h6.69c-0.09-1.01-0.35-1.76-0.77-2.27
			c-0.65-0.78-1.49-1.17-2.52-1.17c-0.93,0-1.72,0.31-2.35,0.94C868.18,105.97,867.83,106.81,867.77,107.85z"/>
	</g>
	<g>
		<path d="M900.53,255.79h-2.5v-15.93c-0.6,0.57-1.39,1.15-2.37,1.72c-0.98,0.57-1.85,1-2.63,1.29v-2.42
			c1.4-0.66,2.62-1.45,3.67-2.39s1.79-1.84,2.22-2.72h1.61V255.79z"/>
		<path d="M908.33,255.79v-2.85h2.85v2.85H908.33z"/>
		<path d="M914.85,250.42l2.5-0.33c0.29,1.42,0.78,2.44,1.46,3.06c0.69,0.62,1.53,0.94,2.52,0.94c1.18,0,2.17-0.41,2.98-1.22
			c0.81-0.81,1.21-1.82,1.21-3.03c0-1.15-0.38-2.09-1.12-2.84c-0.75-0.75-1.7-1.12-2.86-1.12c-0.47,0-1.06,0.09-1.76,0.28l0.28-2.19
			c0.17,0.02,0.3,0.03,0.4,0.03c1.06,0,2.02-0.28,2.87-0.83c0.85-0.56,1.28-1.41,1.28-2.57c0-0.92-0.31-1.67-0.93-2.28
			s-1.42-0.9-2.4-0.9c-0.97,0-1.78,0.3-2.43,0.92c-0.65,0.61-1.06,1.53-1.25,2.75l-2.5-0.44c0.3-1.67,1-2.97,2.08-3.89
			s2.43-1.38,4.04-1.38c1.11,0,2.13,0.24,3.07,0.71c0.93,0.48,1.65,1.13,2.15,1.95c0.5,0.82,0.74,1.7,0.74,2.62
			c0,0.88-0.24,1.68-0.71,2.4c-0.47,0.72-1.17,1.3-2.1,1.72c1.2,0.28,2.14,0.85,2.8,1.73c0.67,0.88,1,1.97,1,3.28
			c0,1.78-0.65,3.28-1.94,4.52c-1.3,1.24-2.93,1.85-4.92,1.85c-1.79,0-3.27-0.53-4.45-1.6
			C915.69,253.49,915.01,252.11,914.85,250.42z"/>
		<path d="M930.66,250.42l2.5-0.33c0.29,1.42,0.78,2.44,1.46,3.06c0.69,0.62,1.53,0.94,2.52,0.94c1.18,0,2.17-0.41,2.98-1.22
			c0.81-0.81,1.21-1.82,1.21-3.03c0-1.15-0.38-2.09-1.12-2.84c-0.75-0.75-1.7-1.12-2.86-1.12c-0.47,0-1.06,0.09-1.76,0.28l0.28-2.19
			c0.17,0.02,0.3,0.03,0.4,0.03c1.06,0,2.02-0.28,2.87-0.83c0.85-0.56,1.28-1.41,1.28-2.57c0-0.92-0.31-1.67-0.93-2.28
			s-1.42-0.9-2.4-0.9c-0.97,0-1.78,0.3-2.43,0.92c-0.65,0.61-1.06,1.53-1.25,2.75l-2.5-0.44c0.3-1.67,1-2.97,2.08-3.89
			s2.43-1.38,4.04-1.38c1.11,0,2.13,0.24,3.07,0.71c0.93,0.48,1.65,1.13,2.15,1.95c0.5,0.82,0.74,1.7,0.74,2.62
			c0,0.88-0.24,1.68-0.71,2.4c-0.47,0.72-1.17,1.3-2.1,1.72c1.2,0.28,2.14,0.85,2.8,1.73c0.67,0.88,1,1.97,1,3.28
			c0,1.78-0.65,3.28-1.94,4.52c-1.3,1.24-2.93,1.85-4.92,1.85c-1.79,0-3.27-0.53-4.45-1.6C931.5,253.49,930.83,252.11,930.66,250.42
			z"/>
	</g>
	<g>
		<path d="M1039.63,208.69h-2.5v-15.93c-0.6,0.57-1.39,1.15-2.37,1.72c-0.98,0.57-1.85,1-2.63,1.29v-2.42
			c1.4-0.66,2.62-1.45,3.67-2.39s1.79-1.84,2.22-2.72h1.61V208.69z"/>
		<path d="M1047.43,208.69v-2.85h2.85v2.85H1047.43z"/>
		<path d="M1053.94,203.32l2.5-0.33c0.29,1.42,0.78,2.44,1.46,3.06c0.69,0.62,1.53,0.94,2.52,0.94c1.18,0,2.17-0.41,2.98-1.22
			c0.81-0.81,1.21-1.82,1.21-3.03c0-1.15-0.38-2.09-1.12-2.84c-0.75-0.75-1.7-1.12-2.86-1.12c-0.47,0-1.06,0.09-1.76,0.28l0.28-2.19
			c0.17,0.02,0.3,0.03,0.4,0.03c1.06,0,2.02-0.28,2.87-0.83c0.85-0.56,1.28-1.41,1.28-2.57c0-0.92-0.31-1.67-0.93-2.28
			s-1.42-0.9-2.4-0.9c-0.97,0-1.78,0.3-2.43,0.92c-0.65,0.61-1.06,1.53-1.25,2.75l-2.5-0.44c0.3-1.67,1-2.97,2.08-3.89
			s2.43-1.38,4.04-1.38c1.11,0,2.13,0.24,3.07,0.71c0.93,0.48,1.65,1.13,2.15,1.95c0.5,0.82,0.74,1.7,0.74,2.62
			c0,0.88-0.24,1.68-0.71,2.4c-0.47,0.72-1.17,1.3-2.1,1.72c1.2,0.28,2.14,0.85,2.8,1.73c0.67,0.88,1,1.97,1,3.28
			c0,1.78-0.65,3.28-1.94,4.52c-1.3,1.24-2.93,1.85-4.92,1.85c-1.79,0-3.27-0.53-4.45-1.6
			C1054.78,206.39,1054.11,205.01,1053.94,203.32z"/>
		<path d="M1069.76,203.32l2.5-0.33c0.29,1.42,0.78,2.44,1.46,3.06c0.69,0.62,1.53,0.94,2.52,0.94c1.18,0,2.17-0.41,2.98-1.22
			c0.81-0.81,1.21-1.82,1.21-3.03c0-1.15-0.38-2.09-1.12-2.84c-0.75-0.75-1.7-1.12-2.86-1.12c-0.47,0-1.06,0.09-1.76,0.28l0.28-2.19
			c0.17,0.02,0.3,0.03,0.4,0.03c1.06,0,2.02-0.28,2.87-0.83c0.85-0.56,1.28-1.41,1.28-2.57c0-0.92-0.31-1.67-0.93-2.28
			s-1.42-0.9-2.4-0.9c-0.97,0-1.78,0.3-2.43,0.92c-0.65,0.61-1.06,1.53-1.25,2.75l-2.5-0.44c0.3-1.67,1-2.97,2.08-3.89
			s2.43-1.38,4.04-1.38c1.11,0,2.13,0.24,3.07,0.71c0.93,0.48,1.65,1.13,2.15,1.95c0.5,0.82,0.74,1.7,0.74,2.62
			c0,0.88-0.24,1.68-0.71,2.4c-0.47,0.72-1.17,1.3-2.1,1.72c1.2,0.28,2.14,0.85,2.8,1.73c0.67,0.88,1,1.97,1,3.28
			c0,1.78-0.65,3.28-1.94,4.52c-1.3,1.24-2.93,1.85-4.92,1.85c-1.79,0-3.27-0.53-4.45-1.6
			C1070.6,206.39,1069.92,205.01,1069.76,203.32z"/>
	</g>
	<g>
		<path d="M1039.63,255.79h-2.5v-15.93c-0.6,0.57-1.39,1.15-2.37,1.72c-0.98,0.57-1.85,1-2.63,1.29v-2.42
			c1.4-0.66,2.62-1.45,3.67-2.39s1.79-1.84,2.22-2.72h1.61V255.79z"/>
		<path d="M1047.43,255.79v-2.85h2.85v2.85H1047.43z"/>
		<path d="M1053.93,245.75c0-2.41,0.25-4.34,0.74-5.81c0.5-1.47,1.23-2.6,2.21-3.39s2.21-1.19,3.69-1.19c1.09,0,2.05,0.22,2.87,0.66
			c0.82,0.44,1.5,1.07,2.04,1.9c0.54,0.83,0.96,1.84,1.26,3.03c0.3,1.19,0.46,2.79,0.46,4.81c0,2.39-0.25,4.32-0.74,5.78
			c-0.49,1.47-1.22,2.6-2.2,3.4s-2.21,1.2-3.7,1.2c-1.96,0-3.5-0.7-4.62-2.11C1054.6,252.33,1053.93,249.57,1053.93,245.75z
			 M1056.5,245.75c0,3.34,0.39,5.57,1.17,6.67c0.78,1.11,1.75,1.66,2.9,1.66c1.15,0,2.11-0.56,2.89-1.67s1.17-3.33,1.17-6.67
			c0-3.35-0.39-5.58-1.17-6.68s-1.76-1.65-2.92-1.65c-1.15,0-2.06,0.49-2.75,1.46C1056.93,240.12,1056.5,242.41,1056.5,245.75z"/>
		<path d="M1069.74,245.75c0-2.41,0.25-4.34,0.74-5.81c0.5-1.47,1.23-2.6,2.21-3.39s2.21-1.19,3.69-1.19c1.09,0,2.05,0.22,2.87,0.66
			c0.82,0.44,1.5,1.07,2.04,1.9c0.54,0.83,0.96,1.84,1.26,3.03c0.3,1.19,0.46,2.79,0.46,4.81c0,2.39-0.25,4.32-0.74,5.78
			c-0.49,1.47-1.22,2.6-2.2,3.4s-2.21,1.2-3.7,1.2c-1.96,0-3.5-0.7-4.62-2.11C1070.41,252.33,1069.74,249.57,1069.74,245.75z
			 M1072.31,245.75c0,3.34,0.39,5.57,1.17,6.67c0.78,1.11,1.75,1.66,2.9,1.66c1.15,0,2.11-0.56,2.89-1.67s1.17-3.33,1.17-6.67
			c0-3.35-0.39-5.58-1.17-6.68s-1.76-1.65-2.92-1.65c-1.15,0-2.06,0.49-2.75,1.46C1072.74,240.12,1072.31,242.41,1072.31,245.75z"/>
	</g>
	<g>
		<path d="M900.53,208.69h-2.5v-15.93c-0.6,0.57-1.39,1.15-2.37,1.72c-0.98,0.57-1.85,1-2.63,1.29v-2.42
			c1.4-0.66,2.62-1.45,3.67-2.39s1.79-1.84,2.22-2.72h1.61V208.69z"/>
		<path d="M908.33,208.69v-2.85h2.85v2.85H908.33z"/>
		<path d="M914.83,203.36l2.62-0.22c0.19,1.28,0.65,2.24,1.35,2.88s1.56,0.96,2.56,0.96c1.2,0,2.22-0.45,3.05-1.36
			s1.25-2.11,1.25-3.61c0-1.42-0.4-2.55-1.2-3.37c-0.8-0.82-1.85-1.24-3.15-1.24c-0.8,0-1.53,0.18-2.18,0.55
			c-0.65,0.37-1.16,0.84-1.53,1.42l-2.35-0.31l1.97-10.46h10.12V191h-8.12l-1.1,5.47c1.22-0.85,2.5-1.28,3.85-1.28
			c1.78,0,3.28,0.62,4.5,1.85c1.22,1.23,1.83,2.81,1.83,4.75c0,1.84-0.54,3.43-1.61,4.78c-1.3,1.65-3.09,2.47-5.35,2.47
			c-1.85,0-3.36-0.52-4.53-1.55C915.67,206.45,915,205.07,914.83,203.36z"/>
		<path d="M930.65,198.65c0-2.41,0.25-4.34,0.74-5.81c0.5-1.47,1.23-2.6,2.21-3.39s2.21-1.19,3.69-1.19c1.09,0,2.05,0.22,2.87,0.66
			c0.82,0.44,1.5,1.07,2.04,1.9c0.54,0.83,0.96,1.84,1.26,3.03c0.3,1.19,0.46,2.79,0.46,4.81c0,2.39-0.25,4.32-0.74,5.78
			c-0.49,1.47-1.22,2.6-2.2,3.4s-2.21,1.2-3.7,1.2c-1.96,0-3.5-0.7-4.62-2.11C931.32,205.23,930.65,202.48,930.65,198.65z
			 M933.22,198.65c0,3.34,0.39,5.57,1.17,6.67c0.78,1.11,1.75,1.66,2.9,1.66c1.15,0,2.11-0.56,2.89-1.67s1.17-3.33,1.17-6.67
			c0-3.35-0.39-5.58-1.17-6.68s-1.76-1.65-2.92-1.65c-1.15,0-2.06,0.49-2.75,1.46C933.65,193.02,933.22,195.31,933.22,198.65z"/>
	</g>
	<g>
		<path d="M900.53,161.59h-2.5v-15.93c-0.6,0.57-1.39,1.15-2.37,1.72c-0.98,0.57-1.85,1-2.63,1.29v-2.42
			c1.4-0.66,2.62-1.45,3.67-2.39s1.79-1.84,2.22-2.72h1.61V161.59z"/>
		<path d="M908.33,161.59v-2.85h2.85v2.85H908.33z"/>
		<path d="M914.83,156.26l2.62-0.22c0.19,1.28,0.65,2.24,1.35,2.88s1.56,0.96,2.56,0.96c1.2,0,2.22-0.45,3.05-1.36
			s1.25-2.11,1.25-3.61c0-1.42-0.4-2.55-1.2-3.37c-0.8-0.82-1.85-1.24-3.15-1.24c-0.8,0-1.53,0.18-2.18,0.55
			c-0.65,0.37-1.16,0.84-1.53,1.42l-2.35-0.31l1.97-10.46h10.12v2.39h-8.12l-1.1,5.47c1.22-0.85,2.5-1.28,3.85-1.28
			c1.78,0,3.28,0.62,4.5,1.85c1.22,1.23,1.83,2.81,1.83,4.75c0,1.84-0.54,3.43-1.61,4.78c-1.3,1.65-3.09,2.47-5.35,2.47
			c-1.85,0-3.36-0.52-4.53-1.55C915.67,159.35,915,157.98,914.83,156.26z"/>
		<path d="M930.65,151.56c0-2.41,0.25-4.34,0.74-5.81c0.5-1.47,1.23-2.6,2.21-3.39s2.21-1.19,3.69-1.19c1.09,0,2.05,0.22,2.87,0.66
			c0.82,0.44,1.5,1.07,2.04,1.9c0.54,0.83,0.96,1.84,1.26,3.03c0.3,1.19,0.46,2.79,0.46,4.81c0,2.39-0.25,4.32-0.74,5.78
			c-0.49,1.47-1.22,2.6-2.2,3.4s-2.21,1.2-3.7,1.2c-1.96,0-3.5-0.7-4.62-2.11C931.32,158.14,930.65,155.38,930.65,151.56z
			 M933.22,151.56c0,3.34,0.39,5.57,1.17,6.67c0.78,1.11,1.75,1.66,2.9,1.66c1.15,0,2.11-0.56,2.89-1.67s1.17-3.33,1.17-6.67
			c0-3.35-0.39-5.58-1.17-6.68s-1.76-1.65-2.92-1.65c-1.15,0-2.06,0.49-2.75,1.46C933.65,145.92,933.22,148.21,933.22,151.56z"/>
	</g>
	<g>
		<path d="M1039.63,161.59h-2.5v-15.93c-0.6,0.57-1.39,1.15-2.37,1.72c-0.98,0.57-1.85,1-2.63,1.29v-2.42
			c1.4-0.66,2.62-1.45,3.67-2.39s1.79-1.84,2.22-2.72h1.61V161.59z"/>
		<path d="M1047.43,161.59v-2.85h2.85v2.85H1047.43z"/>
		<path d="M1053.93,151.56c0-2.41,0.25-4.34,0.74-5.81c0.5-1.47,1.23-2.6,2.21-3.39s2.21-1.19,3.69-1.19c1.09,0,2.05,0.22,2.87,0.66
			c0.82,0.44,1.5,1.07,2.04,1.9c0.54,0.83,0.96,1.84,1.26,3.03c0.3,1.19,0.46,2.79,0.46,4.81c0,2.39-0.25,4.32-0.74,5.78
			c-0.49,1.47-1.22,2.6-2.2,3.4s-2.21,1.2-3.7,1.2c-1.96,0-3.5-0.7-4.62-2.11C1054.6,158.14,1053.93,155.38,1053.93,151.56z
			 M1056.5,151.56c0,3.34,0.39,5.57,1.17,6.67c0.78,1.11,1.75,1.66,2.9,1.66c1.15,0,2.11-0.56,2.89-1.67s1.17-3.33,1.17-6.67
			c0-3.35-0.39-5.58-1.17-6.68s-1.76-1.65-2.92-1.65c-1.15,0-2.06,0.49-2.75,1.46C1056.93,145.92,1056.5,148.21,1056.5,151.56z"/>
		<path d="M1069.74,151.56c0-2.41,0.25-4.34,0.74-5.81c0.5-1.47,1.23-2.6,2.21-3.39s2.21-1.19,3.69-1.19c1.09,0,2.05,0.22,2.87,0.66
			c0.82,0.44,1.5,1.07,2.04,1.9c0.54,0.83,0.96,1.84,1.26,3.03c0.3,1.19,0.46,2.79,0.46,4.81c0,2.39-0.25,4.32-0.74,5.78
			c-0.49,1.47-1.22,2.6-2.2,3.4s-2.21,1.2-3.7,1.2c-1.96,0-3.5-0.7-4.62-2.11C1070.41,158.14,1069.74,155.38,1069.74,151.56z
			 M1072.31,151.56c0,3.34,0.39,5.57,1.17,6.67c0.78,1.11,1.75,1.66,2.9,1.66c1.15,0,2.11-0.56,2.89-1.67s1.17-3.33,1.17-6.67
			c0-3.35-0.39-5.58-1.17-6.68s-1.76-1.65-2.92-1.65c-1.15,0-2.06,0.49-2.75,1.46C1072.74,145.92,1072.31,148.21,1072.31,151.56z"/>
	</g>
	<rect x="795.5" y="185.5" class="st10" width="71" height="30"/>
	<rect x="795.5" y="232.5" class="st11" width="71" height="31"/>
	<line class="st9" x1="782" y1="274.5" x2="1170" y2="274.5"/>
	<line class="st12" x1="782" y1="225.5" x2="1170" y2="225.5"/>
	<line class="st12" x1="782" y1="177.5" x2="1170" y2="177.5"/>
</g>
<g>
	<path d="M62.94,453.26h-2.36c-1.25-1.88-2.19-3.83-2.84-5.86c-0.65-2.03-0.98-3.99-0.98-5.88c0-2.35,0.4-4.58,1.21-6.68
		c0.7-1.82,1.59-3.5,2.66-5.04h2.34c-1.12,2.47-1.88,4.56-2.3,6.29c-0.42,1.73-0.63,3.56-0.63,5.5c0,1.33,0.12,2.7,0.37,4.1
		c0.25,1.4,0.59,2.73,1.02,3.99C61.72,450.51,62.22,451.71,62.94,453.26z"/>
	<path d="M68.14,438.99l-3.11-0.56c0.35-1.25,0.95-2.18,1.81-2.78c0.85-0.6,2.12-0.9,3.81-0.9c1.53,0,2.67,0.18,3.42,0.54
		c0.75,0.36,1.28,0.82,1.58,1.38c0.3,0.56,0.46,1.58,0.46,3.07l-0.04,4c0,1.14,0.05,1.98,0.17,2.52c0.11,0.54,0.31,1.12,0.62,1.74
		h-3.39c-0.09-0.23-0.2-0.57-0.33-1.01c-0.06-0.2-0.1-0.34-0.12-0.4c-0.59,0.57-1.21,1-1.88,1.28c-0.67,0.29-1.38,0.43-2.14,0.43
		c-1.33,0-2.39-0.36-3.16-1.09c-0.77-0.72-1.15-1.64-1.15-2.75c0-0.73,0.17-1.38,0.52-1.96c0.35-0.57,0.84-1.01,1.47-1.32
		c0.63-0.3,1.54-0.57,2.73-0.8c1.6-0.3,2.71-0.58,3.33-0.84v-0.34c0-0.66-0.16-1.13-0.49-1.41c-0.33-0.28-0.94-0.42-1.84-0.42
		c-0.61,0-1.09,0.12-1.43,0.36C68.63,437.97,68.35,438.39,68.14,438.99z M72.73,441.77c-0.44,0.15-1.14,0.32-2.09,0.53
		s-1.57,0.4-1.87,0.6c-0.45,0.32-0.67,0.72-0.67,1.21c0,0.48,0.18,0.89,0.54,1.25c0.36,0.35,0.81,0.52,1.37,0.52
		c0.62,0,1.21-0.2,1.77-0.61c0.42-0.31,0.69-0.69,0.82-1.13c0.09-0.29,0.13-0.85,0.13-1.67V441.77z"/>
	<path d="M78.53,453.26c0.68-1.45,1.15-2.56,1.43-3.33c0.28-0.77,0.53-1.66,0.77-2.67c0.24-1.01,0.41-1.97,0.52-2.88
		c0.11-0.91,0.17-1.84,0.17-2.79c0-1.94-0.21-3.77-0.62-5.5c-0.42-1.73-1.18-3.83-2.29-6.29h2.33c1.23,1.75,2.18,3.61,2.86,5.57
		c0.68,1.96,1.02,3.95,1.02,5.97c0,1.7-0.27,3.52-0.81,5.47c-0.61,2.18-1.62,4.33-3.02,6.46H78.53z"/>
	<path d="M91.54,448l6.87-17.9h2.55l7.32,17.9h-2.7l-2.09-5.42h-7.48L94.06,448H91.54z M96.71,440.65h6.07l-1.87-4.96
		c-0.57-1.51-0.99-2.74-1.27-3.71c-0.23,1.15-0.55,2.29-0.96,3.42L96.71,440.65z"/>
	<path d="M115.06,449.07l2.14,0.32c0.09,0.66,0.34,1.14,0.74,1.44c0.54,0.41,1.29,0.61,2.23,0.61c1.02,0,1.8-0.2,2.36-0.61
		c0.55-0.41,0.93-0.98,1.12-1.71c0.11-0.45,0.17-1.39,0.16-2.82c-0.96,1.13-2.16,1.7-3.59,1.7c-1.78,0-3.16-0.64-4.14-1.93
		c-0.98-1.29-1.46-2.83-1.46-4.62c0-1.24,0.22-2.38,0.67-3.43c0.45-1.04,1.1-1.85,1.95-2.42c0.85-0.57,1.85-0.86,3-0.86
		c1.53,0,2.79,0.62,3.78,1.86v-1.56h2.03v11.21c0,2.02-0.21,3.45-0.62,4.29c-0.41,0.84-1.06,1.51-1.95,2
		c-0.89,0.49-1.99,0.73-3.29,0.73c-1.55,0-2.8-0.35-3.75-1.04S115.03,450.47,115.06,449.07z M116.88,441.29
		c0,1.7,0.34,2.94,1.01,3.72c0.68,0.78,1.52,1.17,2.54,1.17c1.01,0,1.86-0.39,2.54-1.17s1.03-2,1.03-3.66
		c0-1.59-0.35-2.78-1.06-3.59c-0.7-0.8-1.55-1.21-2.55-1.21c-0.98,0-1.81,0.4-2.49,1.19S116.88,439.72,116.88,441.29z"/>
	<path d="M129.32,448v-17.9h2.2V448H129.32z"/>
	<path d="M143.39,446.4c-0.81,0.69-1.6,1.18-2.35,1.46c-0.75,0.29-1.56,0.43-2.42,0.43c-1.42,0-2.52-0.35-3.28-1.04
		c-0.77-0.7-1.15-1.58-1.15-2.67c0-0.63,0.14-1.21,0.43-1.74c0.29-0.53,0.67-0.95,1.13-1.26c0.47-0.32,1-0.56,1.58-0.72
		c0.43-0.12,1.08-0.22,1.95-0.33c1.77-0.21,3.08-0.46,3.92-0.76c0.01-0.3,0.01-0.49,0.01-0.57c0-0.9-0.21-1.53-0.62-1.89
		c-0.56-0.5-1.4-0.75-2.5-0.75c-1.03,0-1.8,0.18-2.29,0.54c-0.49,0.36-0.86,1-1.09,1.92l-2.15-0.29c0.2-0.92,0.52-1.66,0.96-2.23
		c0.45-0.56,1.09-1,1.94-1.3c0.85-0.31,1.83-0.46,2.94-0.46c1.11,0,2.01,0.13,2.7,0.39c0.69,0.26,1.2,0.59,1.53,0.98
		c0.33,0.4,0.55,0.89,0.68,1.5c0.07,0.38,0.11,1.05,0.11,2.03v2.93c0,2.04,0.05,3.33,0.14,3.88c0.09,0.54,0.28,1.06,0.56,1.56h-2.29
		C143.6,447.54,143.45,447.01,143.39,446.4z M143.2,441.49c-0.8,0.32-1.99,0.6-3.59,0.83c-0.9,0.13-1.54,0.28-1.92,0.44
		c-0.37,0.16-0.66,0.4-0.87,0.71c-0.2,0.31-0.31,0.66-0.31,1.04c0,0.59,0.22,1.07,0.67,1.46c0.44,0.39,1.09,0.59,1.95,0.59
		c0.85,0,1.6-0.19,2.26-0.56c0.66-0.37,1.14-0.88,1.45-1.52c0.24-0.5,0.35-1.23,0.35-2.2V441.49z"/>
	<path d="M147.95,444.13l2.17-0.34c0.12,0.87,0.46,1.54,1.02,2c0.56,0.46,1.34,0.7,2.34,0.7c1.01,0,1.76-0.21,2.25-0.62
		c0.49-0.41,0.73-0.89,0.73-1.45c0-0.5-0.22-0.89-0.65-1.17c-0.3-0.2-1.05-0.45-2.25-0.75c-1.61-0.41-2.73-0.76-3.35-1.05
		c-0.62-0.3-1.09-0.71-1.42-1.23c-0.32-0.52-0.48-1.1-0.48-1.74c0-0.58,0.13-1.11,0.4-1.61c0.26-0.49,0.62-0.9,1.08-1.23
		c0.34-0.25,0.81-0.47,1.4-0.64c0.59-0.18,1.22-0.26,1.9-0.26c1.02,0,1.91,0.15,2.68,0.44c0.77,0.29,1.34,0.69,1.7,1.19
		c0.37,0.5,0.62,1.17,0.76,2.01l-2.15,0.29c-0.1-0.67-0.38-1.19-0.85-1.56c-0.47-0.38-1.13-0.56-1.98-0.56
		c-1.01,0-1.73,0.17-2.16,0.5c-0.43,0.33-0.65,0.72-0.65,1.17c0,0.29,0.09,0.54,0.27,0.77c0.18,0.24,0.46,0.43,0.84,0.59
		c0.22,0.08,0.87,0.27,1.94,0.56c1.55,0.41,2.64,0.75,3.25,1.02c0.61,0.26,1.1,0.65,1.45,1.15c0.35,0.51,0.52,1.13,0.52,1.88
		c0,0.73-0.21,1.42-0.64,2.07c-0.43,0.65-1.04,1.15-1.85,1.5s-1.72,0.53-2.73,0.53c-1.68,0-2.97-0.35-3.85-1.05
		C148.76,446.54,148.19,445.51,147.95,444.13z"/>
	<path d="M160.45,444.13l2.17-0.34c0.12,0.87,0.46,1.54,1.02,2c0.56,0.46,1.34,0.7,2.34,0.7c1.01,0,1.76-0.21,2.25-0.62
		c0.49-0.41,0.73-0.89,0.73-1.45c0-0.5-0.22-0.89-0.65-1.17c-0.3-0.2-1.05-0.45-2.25-0.75c-1.61-0.41-2.73-0.76-3.35-1.05
		c-0.62-0.3-1.09-0.71-1.42-1.23c-0.32-0.52-0.48-1.1-0.48-1.74c0-0.58,0.13-1.11,0.4-1.61c0.26-0.49,0.62-0.9,1.08-1.23
		c0.34-0.25,0.81-0.47,1.4-0.64c0.59-0.18,1.22-0.26,1.9-0.26c1.02,0,1.91,0.15,2.68,0.44c0.77,0.29,1.34,0.69,1.7,1.19
		c0.37,0.5,0.62,1.17,0.76,2.01l-2.15,0.29c-0.1-0.67-0.38-1.19-0.85-1.56c-0.47-0.38-1.13-0.56-1.98-0.56
		c-1.01,0-1.73,0.17-2.16,0.5c-0.43,0.33-0.65,0.72-0.65,1.17c0,0.29,0.09,0.54,0.27,0.77c0.18,0.24,0.46,0.43,0.84,0.59
		c0.22,0.08,0.87,0.27,1.94,0.56c1.55,0.41,2.64,0.75,3.25,1.02c0.61,0.26,1.1,0.65,1.45,1.15c0.35,0.51,0.52,1.13,0.52,1.88
		c0,0.73-0.21,1.42-0.64,2.07c-0.43,0.65-1.04,1.15-1.85,1.5s-1.72,0.53-2.73,0.53c-1.68,0-2.97-0.35-3.85-1.05
		C161.26,446.54,160.69,445.51,160.45,444.13z"/>
	<path d="M181.3,448v-11.26h-1.94v-1.71h1.94v-1.38c0-0.87,0.08-1.52,0.23-1.94c0.21-0.57,0.58-1.03,1.12-1.38
		c0.53-0.35,1.28-0.53,2.24-0.53c0.62,0,1.3,0.07,2.05,0.22l-0.33,1.92c-0.46-0.08-0.89-0.12-1.29-0.12c-0.67,0-1.14,0.14-1.42,0.43
		c-0.28,0.29-0.42,0.82-0.42,1.6v1.2h2.53v1.71h-2.53V448H181.3z"/>
	<path d="M187.73,432.63v-2.53h2.2v2.53H187.73z M187.73,448v-12.96h2.2V448H187.73z"/>
	<path d="M193.23,448v-17.9h2.2V448H193.23z"/>
	<path d="M198.78,448v-17.9h2.2V448H198.78z"/>
	<path d="M213.26,443.82l2.27,0.28c-0.36,1.33-1.02,2.36-1.99,3.09c-0.97,0.73-2.21,1.1-3.71,1.1c-1.9,0-3.4-0.58-4.51-1.75
		c-1.11-1.17-1.67-2.81-1.67-4.91c0-2.18,0.56-3.87,1.68-5.08c1.12-1.2,2.58-1.81,4.37-1.81c1.73,0,3.15,0.59,4.25,1.77
		c1.1,1.18,1.65,2.84,1.65,4.98c0,0.13,0,0.32-0.01,0.59h-9.67c0.08,1.42,0.48,2.51,1.21,3.27c0.72,0.76,1.63,1.13,2.71,1.13
		c0.81,0,1.49-0.21,2.06-0.63C212.47,445.43,212.92,444.75,213.26,443.82z M206.04,440.27h7.24c-0.1-1.09-0.37-1.91-0.83-2.46
		c-0.7-0.85-1.61-1.27-2.72-1.27c-1.01,0-1.86,0.34-2.55,1.01C206.5,438.24,206.12,439.14,206.04,440.27z"/>
	<path d="M226.7,448v-1.64c-0.82,1.29-2.03,1.93-3.63,1.93c-1.03,0-1.98-0.29-2.85-0.86c-0.87-0.57-1.54-1.37-2.01-2.39
		c-0.48-1.02-0.71-2.2-0.71-3.52c0-1.29,0.22-2.47,0.65-3.52c0.43-1.05,1.08-1.86,1.94-2.42c0.86-0.56,1.83-0.84,2.89-0.84
		c0.78,0,1.48,0.17,2.09,0.49c0.61,0.33,1.11,0.76,1.49,1.29v-6.42h2.19V448H226.7z M219.75,441.53c0,1.66,0.35,2.9,1.05,3.72
		c0.7,0.82,1.53,1.23,2.48,1.23c0.96,0,1.78-0.39,2.45-1.18c0.67-0.79,1.01-1.98,1.01-3.6c0-1.77-0.34-3.08-1.03-3.91
		s-1.53-1.25-2.53-1.25c-0.98,0-1.79,0.4-2.45,1.2C220.08,438.56,219.75,439.81,219.75,441.53z"/>
	<path d="M90.77,478l-3.97-12.96h2.27l2.06,7.48l0.77,2.78c0.03-0.14,0.26-1.03,0.67-2.67l2.06-7.59h2.26l1.94,7.52l0.65,2.48
		l0.74-2.5l2.22-7.5h2.14L100.54,478h-2.28l-2.06-7.76l-0.5-2.21L93.07,478H90.77z"/>
	<path d="M106.45,462.63v-2.53h2.2v2.53H106.45z M106.45,478v-12.96h2.2V478H106.45z"/>
	<path d="M116.79,476.04l0.32,1.94c-0.62,0.13-1.17,0.2-1.66,0.2c-0.8,0-1.42-0.12-1.86-0.38c-0.44-0.25-0.75-0.58-0.93-1
		c-0.18-0.41-0.27-1.28-0.27-2.59v-7.46h-1.61v-1.71h1.61v-3.21l2.19-1.32v4.53h2.21v1.71h-2.21v7.58c0,0.62,0.04,1.03,0.12,1.21
		c0.08,0.18,0.2,0.32,0.38,0.43c0.17,0.11,0.42,0.16,0.75,0.16C116.07,476.12,116.39,476.09,116.79,476.04z"/>
	<path d="M118.93,478v-17.9h2.2v6.42c1.03-1.19,2.32-1.78,3.88-1.78c0.96,0,1.79,0.19,2.5,0.57s1.21,0.9,1.52,1.57
		c0.31,0.67,0.46,1.64,0.46,2.91V478h-2.2v-8.21c0-1.1-0.24-1.9-0.71-2.4c-0.48-0.5-1.15-0.75-2.02-0.75
		c-0.65,0-1.26,0.17-1.84,0.51c-0.57,0.34-0.98,0.8-1.23,1.38c-0.24,0.58-0.37,1.38-0.37,2.39V478H118.93z"/>
	<path d="M142.18,478l-3.97-12.96h2.27l2.06,7.48l0.77,2.78c0.03-0.14,0.26-1.03,0.67-2.67l2.06-7.59h2.26l1.94,7.52l0.65,2.48
		l0.74-2.5l2.22-7.5H156L151.94,478h-2.28l-2.06-7.76l-0.5-2.21l-2.62,9.97H142.18z"/>
	<path d="M166.3,476.4c-0.81,0.69-1.6,1.18-2.35,1.46c-0.75,0.29-1.56,0.43-2.42,0.43c-1.42,0-2.52-0.35-3.28-1.04
		c-0.77-0.7-1.15-1.58-1.15-2.67c0-0.63,0.14-1.21,0.43-1.74c0.29-0.53,0.67-0.95,1.13-1.26c0.47-0.32,1-0.56,1.58-0.72
		c0.43-0.12,1.08-0.22,1.95-0.33c1.77-0.21,3.08-0.46,3.92-0.76c0.01-0.3,0.01-0.49,0.01-0.57c0-0.9-0.21-1.53-0.62-1.89
		c-0.56-0.5-1.4-0.74-2.5-0.74c-1.03,0-1.8,0.18-2.29,0.54c-0.49,0.36-0.86,1-1.09,1.92l-2.15-0.29c0.2-0.92,0.52-1.66,0.96-2.23
		c0.45-0.56,1.09-1,1.94-1.3c0.85-0.31,1.83-0.46,2.94-0.46c1.11,0,2.01,0.13,2.7,0.39c0.69,0.26,1.2,0.59,1.53,0.98
		c0.33,0.4,0.55,0.89,0.68,1.5c0.07,0.38,0.11,1.05,0.11,2.03v2.93c0,2.04,0.05,3.33,0.14,3.88c0.09,0.54,0.28,1.06,0.56,1.56h-2.29
		C166.51,477.54,166.36,477.01,166.3,476.4z M166.11,471.49c-0.8,0.32-1.99,0.6-3.59,0.83c-0.9,0.13-1.54,0.28-1.92,0.44
		c-0.37,0.16-0.66,0.4-0.87,0.71c-0.2,0.31-0.31,0.66-0.31,1.04c0,0.59,0.22,1.07,0.67,1.46c0.44,0.39,1.09,0.59,1.95,0.59
		c0.85,0,1.6-0.19,2.26-0.56c0.66-0.37,1.14-0.88,1.45-1.52c0.24-0.5,0.35-1.23,0.35-2.2V471.49z"/>
	<path d="M176.54,476.04l0.32,1.94c-0.62,0.13-1.17,0.2-1.66,0.2c-0.8,0-1.42-0.12-1.86-0.38c-0.44-0.25-0.75-0.58-0.93-1
		c-0.18-0.41-0.27-1.28-0.27-2.59v-7.46h-1.61v-1.71h1.61v-3.21l2.19-1.32v4.53h2.21v1.71h-2.21v7.58c0,0.62,0.04,1.03,0.12,1.21
		c0.08,0.18,0.2,0.32,0.38,0.43c0.17,0.11,0.42,0.16,0.75,0.16C175.82,476.12,176.14,476.09,176.54,476.04z"/>
	<path d="M187.56,473.82l2.27,0.28c-0.36,1.33-1.02,2.36-1.99,3.09c-0.97,0.73-2.21,1.1-3.71,1.1c-1.9,0-3.4-0.58-4.51-1.75
		c-1.11-1.17-1.67-2.81-1.67-4.91c0-2.18,0.56-3.87,1.68-5.08c1.12-1.2,2.58-1.81,4.37-1.81c1.73,0,3.15,0.59,4.25,1.77
		c1.1,1.18,1.65,2.84,1.65,4.98c0,0.13,0,0.32-0.01,0.59h-9.67c0.08,1.42,0.48,2.51,1.21,3.27c0.72,0.76,1.63,1.13,2.71,1.13
		c0.81,0,1.49-0.21,2.06-0.63C186.78,475.43,187.23,474.75,187.56,473.82z M180.35,470.27h7.24c-0.1-1.09-0.37-1.91-0.83-2.46
		c-0.7-0.85-1.61-1.27-2.72-1.27c-1.01,0-1.86,0.34-2.55,1.01C180.8,468.24,180.42,469.14,180.35,470.27z"/>
	<path d="M192.57,478v-12.96h1.98V467c0.5-0.92,0.97-1.53,1.4-1.82c0.43-0.29,0.9-0.44,1.41-0.44c0.74,0,1.49,0.24,2.26,0.71
		l-0.76,2.04c-0.54-0.32-1.07-0.48-1.61-0.48c-0.48,0-0.91,0.14-1.29,0.43c-0.38,0.29-0.66,0.69-0.82,1.2
		c-0.24,0.78-0.37,1.64-0.37,2.56V478H192.57z"/>
</g>
<g>
	<path d="M435.17,453.26h-2.36c-1.25-1.88-2.19-3.83-2.84-5.86c-0.65-2.03-0.98-3.99-0.98-5.88c0-2.35,0.4-4.58,1.21-6.68
		c0.7-1.82,1.59-3.5,2.66-5.04h2.34c-1.12,2.47-1.88,4.56-2.3,6.29c-0.42,1.73-0.63,3.56-0.63,5.5c0,1.33,0.12,2.7,0.37,4.1
		c0.25,1.4,0.59,2.73,1.02,3.99C433.95,450.51,434.45,451.71,435.17,453.26z"/>
	<path d="M437.66,448v-17.9h3.43v6.45c1.06-1.2,2.31-1.81,3.76-1.81c1.58,0,2.88,0.57,3.92,1.71c1.03,1.14,1.55,2.79,1.55,4.93
		c0,2.21-0.53,3.92-1.58,5.12c-1.05,1.2-2.33,1.79-3.84,1.79c-0.74,0-1.47-0.19-2.19-0.56c-0.72-0.37-1.34-0.92-1.86-1.64v1.9
		H437.66z M441.07,441.24c0,1.34,0.21,2.34,0.63,2.98c0.59,0.91,1.38,1.37,2.37,1.37c0.76,0,1.4-0.32,1.94-0.97
		c0.53-0.65,0.8-1.67,0.8-3.06c0-1.48-0.27-2.55-0.8-3.21c-0.54-0.65-1.23-0.98-2.06-0.98c-0.82,0-1.51,0.32-2.05,0.96
		C441.34,438.96,441.07,439.94,441.07,441.24z"/>
	<path d="M452.12,453.26c0.68-1.45,1.15-2.56,1.43-3.33s0.53-1.66,0.77-2.67c0.24-1.01,0.41-1.97,0.53-2.88
		c0.11-0.91,0.17-1.84,0.17-2.79c0-1.94-0.21-3.77-0.62-5.5c-0.42-1.73-1.18-3.83-2.29-6.29h2.33c1.23,1.75,2.18,3.61,2.86,5.57
		s1.02,3.95,1.02,5.97c0,1.7-0.27,3.52-0.81,5.47c-0.61,2.18-1.62,4.33-3.01,6.46H452.12z"/>
	<path d="M468.48,448v-17.9h6.17c1.39,0,2.45,0.09,3.19,0.26c1.03,0.24,1.9,0.66,2.62,1.28c0.94,0.8,1.65,1.82,2.12,3.06
		c0.47,1.24,0.7,2.66,0.7,4.26c0,1.36-0.16,2.56-0.48,3.61c-0.32,1.05-0.72,1.92-1.22,2.61c-0.5,0.69-1.04,1.23-1.63,1.62
		s-1.3,0.69-2.14,0.9c-0.83,0.2-1.79,0.3-2.87,0.3H468.48z M470.85,445.89h3.82c1.18,0,2.11-0.11,2.78-0.33
		c0.67-0.22,1.21-0.53,1.61-0.93c0.56-0.56,1-1.32,1.31-2.27c0.31-0.95,0.47-2.1,0.47-3.45c0-1.87-0.31-3.31-0.92-4.32
		c-0.61-1-1.36-1.68-2.24-2.02c-0.63-0.24-1.66-0.37-3.06-0.37h-3.76V445.89z"/>
	<path d="M495.13,443.82l2.27,0.28c-0.36,1.33-1.02,2.36-1.99,3.09c-0.97,0.73-2.21,1.1-3.71,1.1c-1.9,0-3.4-0.58-4.51-1.75
		c-1.11-1.17-1.67-2.81-1.67-4.91c0-2.18,0.56-3.87,1.69-5.08c1.12-1.2,2.58-1.81,4.37-1.81c1.73,0,3.15,0.59,4.25,1.77
		c1.1,1.18,1.65,2.84,1.65,4.98c0,0.13,0,0.32-0.01,0.59h-9.67c0.08,1.42,0.48,2.51,1.21,3.27c0.72,0.76,1.63,1.13,2.71,1.13
		c0.81,0,1.49-0.21,2.06-0.63C494.35,445.43,494.8,444.75,495.13,443.82z M487.92,440.27h7.24c-0.1-1.09-0.37-1.91-0.83-2.46
		c-0.7-0.85-1.61-1.27-2.72-1.27c-1.01,0-1.86,0.34-2.55,1.01C488.37,438.24,487.99,439.14,487.92,440.27z"/>
	<path d="M499.28,444.13l2.17-0.34c0.12,0.87,0.46,1.54,1.02,2c0.56,0.46,1.34,0.7,2.34,0.7c1.01,0,1.76-0.21,2.25-0.62
		c0.49-0.41,0.73-0.89,0.73-1.45c0-0.5-0.21-0.89-0.65-1.17c-0.3-0.2-1.05-0.45-2.25-0.75c-1.61-0.41-2.73-0.76-3.35-1.05
		c-0.62-0.3-1.09-0.71-1.42-1.23c-0.32-0.52-0.48-1.1-0.48-1.74c0-0.58,0.13-1.11,0.4-1.61c0.26-0.49,0.62-0.9,1.08-1.23
		c0.34-0.25,0.81-0.47,1.4-0.64c0.59-0.18,1.22-0.26,1.9-0.26c1.02,0,1.91,0.15,2.68,0.44s1.34,0.69,1.7,1.19
		c0.37,0.5,0.62,1.17,0.76,2.01l-2.15,0.29c-0.1-0.67-0.38-1.19-0.85-1.56c-0.47-0.38-1.13-0.56-1.98-0.56
		c-1.01,0-1.73,0.17-2.16,0.5c-0.43,0.33-0.65,0.72-0.65,1.17c0,0.29,0.09,0.54,0.27,0.77c0.18,0.24,0.46,0.43,0.84,0.59
		c0.22,0.08,0.87,0.27,1.94,0.56c1.55,0.41,2.64,0.75,3.25,1.02c0.62,0.26,1.1,0.65,1.45,1.15c0.35,0.51,0.52,1.13,0.52,1.88
		c0,0.73-0.21,1.42-0.64,2.07c-0.43,0.65-1.04,1.15-1.85,1.5s-1.72,0.53-2.73,0.53c-1.68,0-2.97-0.35-3.85-1.05
		C500.09,446.54,499.53,445.51,499.28,444.13z"/>
	<path d="M521.12,443.25l2.16,0.28c-0.24,1.49-0.84,2.66-1.81,3.5c-0.97,0.84-2.17,1.26-3.58,1.26c-1.77,0-3.2-0.58-4.28-1.74
		c-1.08-1.16-1.62-2.82-1.62-4.99c0-1.4,0.23-2.62,0.7-3.67c0.46-1.05,1.17-1.84,2.12-2.36c0.95-0.52,1.98-0.79,3.09-0.79
		c1.41,0,2.56,0.36,3.46,1.07c0.89,0.71,1.47,1.72,1.72,3.03l-2.14,0.33c-0.2-0.87-0.56-1.53-1.08-1.96
		c-0.52-0.44-1.14-0.66-1.87-0.66c-1.11,0-2.01,0.4-2.7,1.19c-0.69,0.79-1.04,2.05-1.04,3.77c0,1.74,0.33,3.01,1,3.8
		c0.67,0.79,1.54,1.18,2.61,1.18c0.86,0,1.58-0.27,2.16-0.79C520.6,445.16,520.96,444.35,521.12,443.25z"/>
	<path d="M525.14,448v-12.96h1.98V437c0.5-0.92,0.97-1.53,1.4-1.82c0.43-0.29,0.9-0.44,1.41-0.44c0.74,0,1.49,0.24,2.26,0.71
		l-0.76,2.04c-0.54-0.32-1.07-0.48-1.61-0.48c-0.48,0-0.91,0.14-1.29,0.43c-0.38,0.29-0.66,0.69-0.82,1.2
		c-0.24,0.78-0.37,1.64-0.37,2.56V448H525.14z"/>
	<path d="M533.5,432.63v-2.53h2.2v2.53H533.5z M533.5,448v-12.96h2.2V448H533.5z"/>
	<path d="M539.04,452.97v-17.93h2v1.69c0.47-0.66,1.01-1.15,1.6-1.48c0.59-0.33,1.31-0.49,2.16-0.49c1.11,0,2.08,0.29,2.93,0.86
		c0.85,0.57,1.49,1.37,1.92,2.41c0.43,1.04,0.65,2.18,0.65,3.41c0,1.33-0.24,2.52-0.71,3.58c-0.48,1.06-1.17,1.88-2.08,2.44
		c-0.91,0.57-1.86,0.85-2.86,0.85c-0.73,0-1.39-0.15-1.97-0.46c-0.58-0.31-1.06-0.7-1.43-1.17v6.31H539.04z M541.03,441.59
		c0,1.67,0.34,2.9,1.01,3.7c0.67,0.8,1.49,1.2,2.45,1.2c0.98,0,1.81-0.41,2.51-1.24c0.7-0.82,1.04-2.11,1.04-3.84
		c0-1.65-0.34-2.89-1.02-3.71s-1.49-1.23-2.44-1.23c-0.94,0-1.76,0.44-2.48,1.31C541.39,438.65,541.03,439.92,541.03,441.59z"/>
	<path d="M557.74,446.04l0.32,1.94c-0.62,0.13-1.17,0.2-1.66,0.2c-0.8,0-1.42-0.12-1.86-0.38c-0.44-0.25-0.75-0.58-0.93-1
		c-0.18-0.41-0.27-1.28-0.27-2.59v-7.46h-1.61v-1.71h1.61v-3.21l2.19-1.32v4.53h2.21v1.71h-2.21v7.58c0,0.62,0.04,1.03,0.12,1.21
		c0.08,0.18,0.2,0.32,0.38,0.43c0.18,0.11,0.43,0.16,0.75,0.16C557.02,446.12,557.34,446.09,557.74,446.04z"/>
	<path d="M559.9,432.63v-2.53h2.2v2.53H559.9z M559.9,448v-12.96h2.2V448H559.9z"/>
	<path d="M564.62,441.52c0-2.4,0.67-4.18,2-5.33c1.12-0.96,2.47-1.44,4.08-1.44c1.78,0,3.24,0.58,4.37,1.75s1.7,2.78,1.7,4.84
		c0,1.67-0.25,2.98-0.75,3.94c-0.5,0.96-1.23,1.7-2.19,2.23c-0.96,0.53-2,0.79-3.13,0.79c-1.82,0-3.28-0.58-4.4-1.75
		C565.19,445.38,564.62,443.71,564.62,441.52z M566.88,441.52c0,1.66,0.36,2.9,1.09,3.73c0.72,0.83,1.63,1.24,2.73,1.24
		c1.09,0,2-0.42,2.72-1.25c0.72-0.83,1.09-2.1,1.09-3.79c0-1.6-0.37-2.82-1.09-3.64c-0.73-0.83-1.63-1.24-2.71-1.24
		c-1.1,0-2.01,0.41-2.73,1.23C567.25,438.62,566.88,439.86,566.88,441.52z"/>
	<path d="M579.35,448v-12.96h1.98v1.84c0.95-1.42,2.33-2.14,4.13-2.14c0.78,0,1.5,0.14,2.15,0.42c0.65,0.28,1.14,0.65,1.47,1.1
		c0.33,0.46,0.55,1,0.68,1.62c0.08,0.41,0.12,1.12,0.12,2.14V448h-2.2v-7.89c0-0.89-0.08-1.56-0.26-2.01
		c-0.17-0.44-0.47-0.8-0.91-1.06c-0.43-0.26-0.95-0.4-1.53-0.4c-0.94,0-1.74,0.3-2.42,0.89c-0.68,0.59-1.02,1.72-1.02,3.38V448
		H579.35z"/>
	<path d="M608.69,448v-1.9c-1.01,1.46-2.38,2.2-4.11,2.2c-0.76,0-1.48-0.15-2.14-0.44s-1.16-0.66-1.48-1.11s-0.55-0.99-0.68-1.63
		c-0.09-0.43-0.13-1.12-0.13-2.05v-8.03h2.2v7.19c0,1.15,0.04,1.92,0.13,2.32c0.14,0.58,0.43,1.03,0.88,1.36
		c0.45,0.33,1,0.49,1.66,0.49s1.28-0.17,1.86-0.51c0.58-0.34,0.99-0.8,1.23-1.38c0.24-0.58,0.36-1.43,0.36-2.53v-6.95h2.2V448
		H608.69z"/>
	<path d="M613.22,444.13l2.17-0.34c0.12,0.87,0.46,1.54,1.02,2c0.56,0.46,1.34,0.7,2.34,0.7c1.01,0,1.76-0.21,2.25-0.62
		c0.49-0.41,0.73-0.89,0.73-1.45c0-0.5-0.22-0.89-0.65-1.17c-0.3-0.2-1.05-0.45-2.25-0.75c-1.61-0.41-2.73-0.76-3.35-1.05
		s-1.09-0.71-1.42-1.23c-0.32-0.52-0.48-1.1-0.48-1.74c0-0.58,0.13-1.11,0.4-1.61c0.26-0.49,0.62-0.9,1.08-1.23
		c0.34-0.25,0.81-0.47,1.4-0.64c0.59-0.18,1.22-0.26,1.9-0.26c1.02,0,1.91,0.15,2.68,0.44c0.77,0.29,1.34,0.69,1.7,1.19
		c0.37,0.5,0.62,1.17,0.76,2.01l-2.15,0.29c-0.1-0.67-0.38-1.19-0.85-1.56c-0.47-0.38-1.13-0.56-1.98-0.56
		c-1.01,0-1.73,0.17-2.16,0.5c-0.43,0.33-0.65,0.72-0.65,1.17c0,0.29,0.09,0.54,0.27,0.77c0.18,0.24,0.46,0.43,0.84,0.59
		c0.22,0.08,0.87,0.27,1.94,0.56c1.55,0.41,2.64,0.75,3.25,1.02c0.61,0.26,1.1,0.65,1.45,1.15c0.35,0.51,0.53,1.13,0.53,1.88
		c0,0.73-0.21,1.42-0.64,2.07s-1.04,1.15-1.85,1.5s-1.72,0.53-2.73,0.53c-1.68,0-2.97-0.35-3.85-1.05
		C614.03,446.54,613.47,445.51,613.22,444.13z"/>
	<path d="M626.61,432.63v-2.53h2.2v2.53H626.61z M626.61,448v-12.96h2.2V448H626.61z"/>
	<path d="M632.15,448v-12.96h1.98v1.84c0.95-1.42,2.33-2.14,4.12-2.14c0.78,0,1.5,0.14,2.16,0.42s1.15,0.65,1.47,1.1
		s0.55,1,0.68,1.62c0.08,0.41,0.12,1.12,0.12,2.14V448h-2.2v-7.89c0-0.89-0.09-1.56-0.26-2.01c-0.17-0.44-0.47-0.8-0.91-1.06
		c-0.44-0.26-0.95-0.4-1.53-0.4c-0.94,0-1.74,0.3-2.42,0.89c-0.68,0.59-1.02,1.72-1.02,3.38V448H632.15z"/>
	<path d="M645.66,449.07l2.14,0.32c0.09,0.66,0.34,1.14,0.75,1.44c0.54,0.41,1.29,0.61,2.23,0.61c1.02,0,1.8-0.2,2.36-0.61
		c0.55-0.41,0.93-0.98,1.12-1.71c0.11-0.45,0.17-1.39,0.16-2.82c-0.96,1.13-2.16,1.7-3.59,1.7c-1.78,0-3.16-0.64-4.14-1.93
		c-0.98-1.29-1.46-2.83-1.46-4.62c0-1.24,0.22-2.38,0.67-3.43c0.45-1.04,1.1-1.85,1.95-2.42c0.85-0.57,1.85-0.86,3-0.86
		c1.53,0,2.79,0.62,3.78,1.86v-1.56h2.03v11.21c0,2.02-0.21,3.45-0.62,4.29c-0.41,0.84-1.06,1.51-1.95,2s-1.99,0.73-3.29,0.73
		c-1.55,0-2.8-0.35-3.75-1.04S645.62,450.47,645.66,449.07z M647.47,441.29c0,1.7,0.34,2.94,1.01,3.72
		c0.67,0.78,1.52,1.17,2.54,1.17c1.01,0,1.86-0.39,2.54-1.17s1.03-2,1.03-3.66c0-1.59-0.35-2.78-1.06-3.59
		c-0.7-0.8-1.55-1.21-2.54-1.21c-0.98,0-1.81,0.4-2.49,1.19S647.47,439.72,647.47,441.29z"/>
	<path d="M467.34,474.13l2.17-0.34c0.12,0.87,0.46,1.54,1.02,2c0.56,0.46,1.34,0.7,2.34,0.7c1.01,0,1.76-0.21,2.25-0.62
		c0.49-0.41,0.73-0.89,0.73-1.45c0-0.5-0.21-0.89-0.65-1.17c-0.3-0.2-1.05-0.45-2.25-0.75c-1.61-0.41-2.73-0.76-3.35-1.05
		c-0.62-0.3-1.09-0.71-1.42-1.23c-0.32-0.52-0.48-1.1-0.48-1.74c0-0.58,0.13-1.11,0.4-1.61c0.26-0.49,0.62-0.9,1.08-1.23
		c0.34-0.25,0.81-0.47,1.4-0.64c0.59-0.18,1.22-0.26,1.9-0.26c1.02,0,1.91,0.15,2.68,0.44s1.34,0.69,1.7,1.19
		c0.37,0.5,0.62,1.17,0.76,2.01l-2.15,0.29c-0.1-0.67-0.38-1.19-0.85-1.56c-0.47-0.38-1.13-0.56-1.98-0.56
		c-1.01,0-1.73,0.17-2.16,0.5c-0.43,0.33-0.65,0.72-0.65,1.17c0,0.28,0.09,0.54,0.27,0.77c0.18,0.24,0.46,0.43,0.84,0.59
		c0.22,0.08,0.87,0.27,1.94,0.56c1.55,0.41,2.64,0.75,3.25,1.02c0.62,0.26,1.1,0.65,1.45,1.15c0.35,0.51,0.52,1.13,0.52,1.88
		c0,0.73-0.21,1.42-0.64,2.07c-0.43,0.65-1.04,1.15-1.85,1.5s-1.72,0.53-2.73,0.53c-1.68,0-2.97-0.35-3.85-1.05
		C468.15,476.54,467.59,475.51,467.34,474.13z"/>
	<path d="M489.22,478v-1.9c-1.01,1.46-2.38,2.2-4.11,2.2c-0.77,0-1.48-0.15-2.14-0.44c-0.66-0.29-1.16-0.66-1.48-1.11
		c-0.32-0.44-0.55-0.99-0.68-1.63c-0.09-0.43-0.13-1.12-0.13-2.05v-8.03h2.2v7.19c0,1.15,0.04,1.92,0.13,2.32
		c0.14,0.58,0.43,1.03,0.88,1.36c0.45,0.33,1,0.49,1.66,0.49c0.66,0,1.28-0.17,1.86-0.51c0.58-0.34,0.99-0.8,1.23-1.38
		c0.24-0.58,0.36-1.43,0.36-2.53v-6.95h2.2V478H489.22z"/>
	<path d="M494.6,478v-12.96h1.98V467c0.5-0.92,0.97-1.53,1.4-1.82c0.43-0.29,0.9-0.44,1.41-0.44c0.74,0,1.49,0.24,2.26,0.71
		l-0.76,2.04c-0.54-0.32-1.07-0.48-1.61-0.48c-0.48,0-0.91,0.14-1.29,0.43c-0.38,0.29-0.66,0.69-0.82,1.2
		c-0.24,0.78-0.37,1.64-0.37,2.56V478H494.6z"/>
	<path d="M503.47,478v-11.26h-1.94v-1.71h1.94v-1.38c0-0.87,0.08-1.52,0.23-1.94c0.21-0.57,0.58-1.03,1.12-1.38
		c0.53-0.35,1.28-0.53,2.24-0.53c0.62,0,1.3,0.07,2.05,0.22l-0.33,1.92c-0.46-0.08-0.89-0.12-1.29-0.12c-0.67,0-1.14,0.14-1.42,0.43
		c-0.28,0.29-0.41,0.82-0.41,1.6v1.2h2.53v1.71h-2.53V478H503.47z"/>
	<path d="M518.36,476.4c-0.81,0.69-1.6,1.18-2.35,1.46c-0.75,0.29-1.56,0.43-2.42,0.43c-1.42,0-2.52-0.35-3.28-1.04
		c-0.77-0.7-1.15-1.58-1.15-2.67c0-0.63,0.14-1.21,0.43-1.74s0.67-0.95,1.13-1.26c0.47-0.32,1-0.56,1.58-0.72
		c0.43-0.12,1.08-0.22,1.95-0.33c1.77-0.21,3.08-0.46,3.92-0.76c0.01-0.3,0.01-0.49,0.01-0.57c0-0.9-0.21-1.53-0.62-1.89
		c-0.56-0.5-1.4-0.74-2.5-0.74c-1.03,0-1.8,0.18-2.29,0.54c-0.49,0.36-0.86,1-1.09,1.92l-2.15-0.29c0.2-0.92,0.52-1.66,0.96-2.23
		c0.45-0.56,1.09-1,1.94-1.3c0.85-0.31,1.83-0.46,2.94-0.46c1.11,0,2.01,0.13,2.7,0.39c0.69,0.26,1.2,0.59,1.53,0.98
		c0.33,0.4,0.55,0.89,0.68,1.5c0.07,0.38,0.11,1.05,0.11,2.03v2.93c0,2.04,0.05,3.33,0.14,3.88c0.09,0.54,0.28,1.06,0.56,1.56h-2.29
		C518.57,477.54,518.42,477.01,518.36,476.4z M518.17,471.49c-0.8,0.32-1.99,0.6-3.59,0.83c-0.9,0.13-1.54,0.28-1.92,0.44
		c-0.37,0.16-0.66,0.4-0.87,0.71c-0.2,0.31-0.31,0.66-0.31,1.04c0,0.59,0.22,1.07,0.67,1.46s1.09,0.59,1.95,0.59
		c0.85,0,1.6-0.19,2.26-0.56c0.66-0.37,1.14-0.88,1.45-1.52c0.24-0.5,0.35-1.23,0.35-2.2V471.49z"/>
	<path d="M532.26,473.25l2.16,0.28c-0.24,1.49-0.84,2.66-1.81,3.5c-0.97,0.84-2.17,1.26-3.58,1.26c-1.77,0-3.2-0.58-4.28-1.74
		c-1.08-1.16-1.62-2.82-1.62-4.99c0-1.4,0.23-2.62,0.7-3.67c0.46-1.05,1.17-1.84,2.12-2.36c0.95-0.52,1.98-0.79,3.09-0.79
		c1.41,0,2.56,0.36,3.45,1.07c0.9,0.71,1.47,1.72,1.72,3.03l-2.14,0.33c-0.2-0.87-0.56-1.53-1.08-1.96s-1.14-0.66-1.87-0.66
		c-1.11,0-2.01,0.4-2.7,1.19c-0.69,0.79-1.04,2.05-1.04,3.77c0,1.74,0.33,3.01,1,3.8c0.67,0.79,1.54,1.18,2.61,1.18
		c0.86,0,1.58-0.27,2.16-0.79C531.74,475.16,532.1,474.35,532.26,473.25z"/>
	<path d="M545.17,473.82l2.27,0.28c-0.36,1.33-1.02,2.36-1.99,3.09c-0.97,0.73-2.21,1.1-3.71,1.1c-1.9,0-3.4-0.58-4.51-1.75
		c-1.11-1.17-1.67-2.81-1.67-4.91c0-2.18,0.56-3.87,1.69-5.08c1.12-1.2,2.58-1.81,4.37-1.81c1.73,0,3.15,0.59,4.25,1.77
		c1.1,1.18,1.65,2.84,1.65,4.98c0,0.13,0,0.32-0.01,0.59h-9.67c0.08,1.42,0.48,2.51,1.21,3.27c0.72,0.76,1.63,1.13,2.71,1.13
		c0.81,0,1.49-0.21,2.06-0.63C544.39,475.43,544.84,474.75,545.17,473.82z M537.96,470.27h7.24c-0.1-1.09-0.37-1.91-0.83-2.46
		c-0.7-0.85-1.61-1.27-2.72-1.27c-1.01,0-1.86,0.34-2.55,1.01C538.41,468.24,538.03,469.14,537.96,470.27z"/>
	<path d="M549.32,474.13l2.17-0.34c0.12,0.87,0.46,1.54,1.02,2c0.56,0.46,1.34,0.7,2.34,0.7c1.01,0,1.76-0.21,2.25-0.62
		c0.49-0.41,0.73-0.89,0.73-1.45c0-0.5-0.21-0.89-0.65-1.17c-0.3-0.2-1.05-0.45-2.25-0.75c-1.61-0.41-2.73-0.76-3.35-1.05
		c-0.62-0.3-1.09-0.71-1.42-1.23c-0.32-0.52-0.48-1.1-0.48-1.74c0-0.58,0.13-1.11,0.4-1.61c0.26-0.49,0.62-0.9,1.08-1.23
		c0.34-0.25,0.81-0.47,1.4-0.64c0.59-0.18,1.22-0.26,1.9-0.26c1.02,0,1.91,0.15,2.68,0.44s1.34,0.69,1.7,1.19
		c0.37,0.5,0.62,1.17,0.76,2.01l-2.15,0.29c-0.1-0.67-0.38-1.19-0.85-1.56c-0.47-0.38-1.13-0.56-1.98-0.56
		c-1.01,0-1.73,0.17-2.16,0.5c-0.43,0.33-0.65,0.72-0.65,1.17c0,0.28,0.09,0.54,0.27,0.77c0.18,0.24,0.46,0.43,0.84,0.59
		c0.22,0.08,0.87,0.27,1.94,0.56c1.55,0.41,2.64,0.75,3.25,1.02c0.62,0.26,1.1,0.65,1.45,1.15c0.35,0.51,0.52,1.13,0.52,1.88
		c0,0.73-0.21,1.42-0.64,2.07c-0.43,0.65-1.04,1.15-1.85,1.5s-1.72,0.53-2.73,0.53c-1.68,0-2.97-0.35-3.85-1.05
		C550.13,476.54,549.57,475.51,549.32,474.13z"/>
	<path d="M569.66,462.63v-2.53h2.2v2.53H569.66z M569.66,478v-12.96h2.2V478H569.66z"/>
	<path d="M575.2,478v-12.96h1.98v1.84c0.95-1.42,2.33-2.14,4.13-2.14c0.78,0,1.5,0.14,2.15,0.42c0.66,0.28,1.15,0.65,1.47,1.11
		c0.33,0.46,0.55,1,0.68,1.62c0.08,0.41,0.12,1.12,0.12,2.14V478h-2.2v-7.89c0-0.89-0.09-1.56-0.26-2.01s-0.47-0.8-0.91-1.06
		c-0.44-0.26-0.95-0.4-1.53-0.4c-0.94,0-1.74,0.3-2.42,0.89c-0.68,0.59-1.02,1.72-1.02,3.38V478H575.2z"/>
	<path d="M596.26,478v-17.9h3.56l4.24,12.67c0.39,1.18,0.68,2.06,0.85,2.65c0.2-0.65,0.52-1.61,0.95-2.87l4.29-12.45h3.19V478h-2.28
		v-14.98l-5.2,14.98h-2.14l-5.18-15.23V478H596.26z"/>
	<path d="M616.89,462.63v-2.53h2.2v2.53H616.89z M616.89,478v-12.96h2.2V478H616.89z"/>
	<path d="M627.23,476.04l0.32,1.94c-0.62,0.13-1.17,0.2-1.66,0.2c-0.8,0-1.42-0.12-1.86-0.38c-0.44-0.25-0.75-0.58-0.93-1
		c-0.18-0.41-0.27-1.28-0.27-2.59v-7.46h-1.61v-1.71h1.61v-3.21l2.18-1.32v4.53h2.21v1.71h-2.21v7.58c0,0.62,0.04,1.03,0.12,1.21
		c0.08,0.18,0.2,0.32,0.38,0.43s0.42,0.16,0.75,0.16C626.51,476.12,626.83,476.09,627.23,476.04z"/>
	<path d="M628.5,474.13l2.17-0.34c0.12,0.87,0.46,1.54,1.02,2c0.56,0.46,1.34,0.7,2.34,0.7c1.01,0,1.76-0.21,2.25-0.62
		c0.49-0.41,0.73-0.89,0.73-1.45c0-0.5-0.22-0.89-0.65-1.17c-0.3-0.2-1.05-0.45-2.25-0.75c-1.61-0.41-2.73-0.76-3.35-1.05
		s-1.09-0.71-1.42-1.23c-0.32-0.52-0.48-1.1-0.48-1.74c0-0.58,0.13-1.11,0.4-1.61c0.26-0.49,0.62-0.9,1.08-1.23
		c0.34-0.25,0.81-0.47,1.4-0.64c0.59-0.18,1.22-0.26,1.9-0.26c1.02,0,1.91,0.15,2.68,0.44c0.77,0.29,1.34,0.69,1.7,1.19
		c0.37,0.5,0.62,1.17,0.76,2.01l-2.15,0.29c-0.1-0.67-0.38-1.19-0.85-1.56c-0.47-0.38-1.13-0.56-1.98-0.56
		c-1.01,0-1.73,0.17-2.16,0.5c-0.43,0.33-0.65,0.72-0.65,1.17c0,0.28,0.09,0.54,0.27,0.77c0.18,0.24,0.46,0.43,0.84,0.59
		c0.22,0.08,0.87,0.27,1.94,0.56c1.55,0.41,2.64,0.75,3.25,1.02c0.61,0.26,1.1,0.65,1.45,1.15c0.35,0.51,0.53,1.13,0.53,1.88
		c0,0.73-0.21,1.42-0.64,2.07s-1.04,1.15-1.85,1.5s-1.72,0.53-2.73,0.53c-1.68,0-2.97-0.35-3.85-1.05
		C629.31,476.54,628.74,475.51,628.5,474.13z"/>
	<path d="M650.37,478v-1.9c-1.01,1.46-2.38,2.2-4.11,2.2c-0.76,0-1.48-0.15-2.14-0.44c-0.66-0.29-1.15-0.66-1.48-1.11
		c-0.32-0.44-0.55-0.99-0.68-1.63c-0.09-0.43-0.13-1.12-0.13-2.05v-8.03h2.2v7.19c0,1.15,0.04,1.92,0.13,2.32
		c0.14,0.58,0.43,1.03,0.88,1.36s1,0.49,1.66,0.49c0.66,0,1.28-0.17,1.86-0.51s0.99-0.8,1.23-1.38c0.24-0.58,0.36-1.43,0.36-2.53
		v-6.95h2.2V478H650.37z"/>
	<path d="M657.81,478h-2.04v-17.9h2.2v6.38c0.93-1.16,2.11-1.75,3.55-1.75c0.8,0,1.55,0.16,2.26,0.48c0.71,0.32,1.3,0.77,1.76,1.36
		c0.46,0.58,0.82,1.28,1.08,2.11c0.26,0.82,0.39,1.7,0.39,2.64c0,2.22-0.55,3.94-1.65,5.15c-1.1,1.21-2.42,1.82-3.96,1.82
		c-1.53,0-2.73-0.64-3.6-1.92V478z M657.78,471.42c0,1.55,0.21,2.68,0.63,3.37c0.69,1.13,1.63,1.7,2.81,1.7
		c0.96,0,1.79-0.42,2.49-1.25c0.7-0.83,1.05-2.08,1.05-3.73c0-1.69-0.33-2.94-1.01-3.75c-0.67-0.8-1.48-1.21-2.43-1.21
		c-0.96,0-1.79,0.42-2.49,1.25C658.13,468.63,657.78,469.84,657.78,471.42z"/>
	<path d="M678.14,476.4c-0.81,0.69-1.6,1.18-2.35,1.46c-0.75,0.29-1.56,0.43-2.42,0.43c-1.42,0-2.52-0.35-3.28-1.04
		c-0.76-0.7-1.15-1.58-1.15-2.67c0-0.63,0.14-1.21,0.43-1.74c0.29-0.53,0.67-0.95,1.13-1.26c0.47-0.32,0.99-0.56,1.58-0.72
		c0.43-0.12,1.08-0.22,1.95-0.33c1.77-0.21,3.08-0.46,3.92-0.76c0.01-0.3,0.01-0.49,0.01-0.57c0-0.9-0.21-1.53-0.62-1.89
		c-0.56-0.5-1.4-0.74-2.5-0.74c-1.03,0-1.8,0.18-2.29,0.54c-0.49,0.36-0.86,1-1.09,1.92l-2.15-0.29c0.2-0.92,0.52-1.66,0.96-2.23
		c0.45-0.56,1.09-1,1.94-1.3c0.85-0.31,1.83-0.46,2.94-0.46c1.11,0,2.01,0.13,2.7,0.39c0.69,0.26,1.2,0.59,1.53,0.98
		c0.32,0.4,0.55,0.89,0.68,1.5c0.07,0.38,0.11,1.05,0.11,2.03v2.93c0,2.04,0.05,3.33,0.14,3.88s0.28,1.06,0.55,1.56h-2.29
		C678.36,477.54,678.21,477.01,678.14,476.4z M677.96,471.49c-0.8,0.32-1.99,0.6-3.59,0.83c-0.9,0.13-1.54,0.28-1.92,0.44
		c-0.38,0.16-0.66,0.4-0.87,0.71c-0.2,0.31-0.3,0.66-0.3,1.04c0,0.59,0.22,1.07,0.66,1.46c0.44,0.39,1.09,0.59,1.95,0.59
		c0.85,0,1.6-0.19,2.26-0.56c0.66-0.37,1.14-0.88,1.45-1.52c0.24-0.5,0.35-1.23,0.35-2.2V471.49z"/>
</g>
<g>
	<path d="M832.23,453.26h-2.36c-1.25-1.88-2.19-3.83-2.84-5.86c-0.65-2.03-0.98-3.99-0.98-5.88c0-2.35,0.4-4.58,1.21-6.68
		c0.7-1.82,1.59-3.5,2.66-5.04h2.34c-1.12,2.47-1.88,4.56-2.3,6.29c-0.42,1.73-0.63,3.56-0.63,5.5c0,1.33,0.12,2.7,0.37,4.1
		c0.25,1.4,0.59,2.73,1.02,3.99C831.02,450.51,831.52,451.71,832.23,453.26z"/>
	<path d="M846.17,438.87l-3.38,0.61c-0.11-0.67-0.37-1.18-0.78-1.53c-0.4-0.34-0.93-0.51-1.57-0.51c-0.85,0-1.54,0.29-2.04,0.89
		c-0.51,0.59-0.76,1.58-0.76,2.96c0,1.54,0.26,2.62,0.78,3.26c0.52,0.63,1.21,0.95,2.08,0.95c0.65,0,1.18-0.19,1.6-0.56
		c0.42-0.37,0.71-1.01,0.88-1.91l3.37,0.57c-0.35,1.54-1.02,2.71-2.01,3.5c-0.99,0.79-2.32,1.18-3.99,1.18
		c-1.9,0-3.41-0.6-4.54-1.79c-1.13-1.2-1.69-2.85-1.69-4.97c0-2.14,0.57-3.81,1.7-5c1.13-1.19,2.66-1.79,4.59-1.79
		c1.58,0,2.83,0.34,3.77,1.02C845.1,436.44,845.77,437.48,846.17,438.87z"/>
	<path d="M847.82,453.26c0.68-1.45,1.15-2.56,1.43-3.33s0.53-1.66,0.77-2.67c0.24-1.01,0.41-1.97,0.53-2.88
		c0.11-0.91,0.17-1.84,0.17-2.79c0-1.94-0.21-3.77-0.62-5.5c-0.42-1.73-1.18-3.83-2.29-6.29h2.33c1.23,1.75,2.18,3.61,2.86,5.57
		s1.02,3.95,1.02,5.97c0,1.7-0.27,3.52-0.81,5.47c-0.61,2.18-1.62,4.33-3.01,6.46H847.82z"/>
	<path d="M864.18,448v-17.9h6.17c1.39,0,2.45,0.09,3.19,0.26c1.03,0.24,1.9,0.66,2.62,1.28c0.94,0.8,1.65,1.82,2.12,3.06
		c0.47,1.24,0.7,2.66,0.7,4.26c0,1.36-0.16,2.56-0.48,3.61c-0.32,1.05-0.72,1.92-1.22,2.61c-0.5,0.69-1.04,1.23-1.63,1.62
		s-1.3,0.69-2.14,0.9c-0.83,0.2-1.79,0.3-2.87,0.3H864.18z M866.55,445.89h3.82c1.18,0,2.11-0.11,2.78-0.33
		c0.67-0.22,1.21-0.53,1.61-0.93c0.56-0.56,1-1.32,1.31-2.27c0.31-0.95,0.47-2.1,0.47-3.45c0-1.87-0.31-3.31-0.92-4.32
		c-0.61-1-1.36-1.68-2.24-2.02c-0.63-0.24-1.66-0.37-3.06-0.37h-3.76V445.89z"/>
	<path d="M890.83,443.82l2.27,0.28c-0.36,1.33-1.02,2.36-1.99,3.09c-0.97,0.73-2.21,1.1-3.71,1.1c-1.9,0-3.4-0.58-4.51-1.75
		c-1.11-1.17-1.67-2.81-1.67-4.91c0-2.18,0.56-3.87,1.69-5.08c1.12-1.2,2.58-1.81,4.37-1.81c1.73,0,3.15,0.59,4.25,1.77
		c1.1,1.18,1.65,2.84,1.65,4.98c0,0.13,0,0.32-0.01,0.59h-9.67c0.08,1.42,0.48,2.51,1.21,3.27c0.72,0.76,1.63,1.13,2.71,1.13
		c0.81,0,1.49-0.21,2.06-0.63C890.04,445.43,890.49,444.75,890.83,443.82z M883.61,440.27h7.24c-0.1-1.09-0.37-1.91-0.83-2.46
		c-0.7-0.85-1.61-1.27-2.72-1.27c-1.01,0-1.86,0.34-2.55,1.01C884.07,438.24,883.69,439.14,883.61,440.27z"/>
	<path d="M900.65,446.04l0.32,1.94c-0.62,0.13-1.17,0.2-1.66,0.2c-0.8,0-1.42-0.12-1.86-0.38c-0.44-0.25-0.75-0.58-0.93-1
		c-0.18-0.41-0.27-1.28-0.27-2.59v-7.46h-1.61v-1.71h1.61v-3.21l2.19-1.32v4.53h2.21v1.71h-2.21v7.58c0,0.62,0.04,1.03,0.12,1.21
		c0.08,0.18,0.2,0.32,0.38,0.43c0.18,0.11,0.43,0.16,0.75,0.16C899.93,446.12,900.25,446.09,900.65,446.04z"/>
	<path d="M911.26,446.4c-0.81,0.69-1.6,1.18-2.35,1.46s-1.56,0.43-2.42,0.43c-1.42,0-2.52-0.35-3.28-1.04
		c-0.76-0.7-1.15-1.58-1.15-2.67c0-0.63,0.14-1.21,0.43-1.74s0.67-0.95,1.13-1.26c0.47-0.32,1-0.56,1.58-0.72
		c0.43-0.12,1.08-0.22,1.95-0.33c1.77-0.21,3.08-0.46,3.92-0.76c0.01-0.3,0.01-0.49,0.01-0.57c0-0.9-0.21-1.53-0.62-1.89
		c-0.56-0.5-1.4-0.75-2.5-0.75c-1.03,0-1.8,0.18-2.29,0.54c-0.49,0.36-0.86,1-1.09,1.92l-2.15-0.29c0.2-0.92,0.52-1.66,0.96-2.23
		c0.45-0.56,1.09-1,1.94-1.3c0.85-0.31,1.83-0.46,2.94-0.46c1.11,0,2.01,0.13,2.7,0.39c0.69,0.26,1.2,0.59,1.53,0.98
		c0.33,0.4,0.55,0.89,0.68,1.5c0.07,0.38,0.11,1.05,0.11,2.03v2.93c0,2.04,0.05,3.33,0.14,3.88s0.28,1.06,0.56,1.56h-2.29
		C911.47,447.54,911.33,447.01,911.26,446.4z M911.08,441.49c-0.8,0.32-1.99,0.6-3.59,0.83c-0.9,0.13-1.54,0.28-1.92,0.44
		c-0.38,0.16-0.66,0.4-0.87,0.71c-0.2,0.31-0.3,0.66-0.3,1.04c0,0.59,0.22,1.07,0.67,1.46c0.44,0.39,1.09,0.59,1.95,0.59
		c0.85,0,1.6-0.19,2.26-0.56c0.66-0.37,1.14-0.88,1.45-1.52c0.24-0.5,0.35-1.23,0.35-2.2V441.49z"/>
	<path d="M916.72,432.63v-2.53h2.2v2.53H916.72z M916.72,448v-12.96h2.2V448H916.72z"/>
	<path d="M922.21,448v-17.9h2.2V448H922.21z"/>
	<path d="M936.69,443.82l2.27,0.28c-0.36,1.33-1.02,2.36-1.99,3.09s-2.21,1.1-3.71,1.1c-1.9,0-3.4-0.58-4.51-1.75
		c-1.11-1.17-1.67-2.81-1.67-4.91c0-2.18,0.56-3.87,1.68-5.08c1.12-1.2,2.58-1.81,4.37-1.81c1.73,0,3.15,0.59,4.25,1.77
		c1.1,1.18,1.65,2.84,1.65,4.98c0,0.13,0,0.32-0.01,0.59h-9.67c0.08,1.42,0.48,2.51,1.21,3.27c0.72,0.76,1.63,1.13,2.71,1.13
		c0.81,0,1.49-0.21,2.06-0.63C935.9,445.43,936.35,444.75,936.69,443.82z M929.47,440.27h7.24c-0.1-1.09-0.38-1.91-0.83-2.46
		c-0.7-0.85-1.61-1.27-2.72-1.27c-1.01,0-1.86,0.34-2.54,1.01S929.55,439.14,929.47,440.27z"/>
	<path d="M950.13,448v-1.64c-0.82,1.29-2.03,1.93-3.63,1.93c-1.03,0-1.98-0.29-2.85-0.86c-0.87-0.57-1.54-1.37-2.01-2.39
		c-0.48-1.02-0.71-2.2-0.71-3.52c0-1.29,0.21-2.47,0.65-3.52c0.43-1.05,1.08-1.86,1.94-2.42c0.86-0.56,1.83-0.84,2.89-0.84
		c0.78,0,1.48,0.17,2.09,0.49c0.61,0.33,1.11,0.76,1.49,1.29v-6.42h2.18V448H950.13z M943.18,441.53c0,1.66,0.35,2.9,1.05,3.72
		c0.7,0.82,1.53,1.23,2.48,1.23c0.96,0,1.78-0.39,2.45-1.18c0.67-0.79,1.01-1.98,1.01-3.6c0-1.77-0.34-3.08-1.03-3.91
		s-1.53-1.25-2.53-1.25c-0.98,0-1.79,0.4-2.45,1.2C943.51,438.56,943.18,439.81,943.18,441.53z"/>
	<path d="M963.25,448v-17.9h2.37V448H963.25z"/>
	<path d="M969.07,439.28c0-2.97,0.8-5.29,2.39-6.98c1.59-1.68,3.65-2.52,6.18-2.52c1.65,0,3.14,0.39,4.47,1.18
		c1.33,0.79,2.34,1.89,3.03,3.3c0.7,1.41,1.04,3.01,1.04,4.8c0,1.81-0.37,3.44-1.1,4.87c-0.73,1.43-1.77,2.52-3.11,3.25
		c-1.34,0.74-2.79,1.11-4.35,1.11c-1.69,0-3.19-0.41-4.52-1.22s-2.33-1.92-3.01-3.33S969.07,440.85,969.07,439.28z M971.51,439.32
		c0,2.16,0.58,3.86,1.74,5.1c1.16,1.24,2.61,1.86,4.36,1.86c1.78,0,3.25-0.63,4.4-1.88c1.15-1.25,1.73-3.03,1.73-5.33
		c0-1.46-0.25-2.73-0.74-3.81c-0.49-1.09-1.21-1.93-2.16-2.53c-0.95-0.6-2.01-0.9-3.19-0.9c-1.68,0-3.12,0.58-4.33,1.73
		C972.12,434.7,971.51,436.63,971.51,439.32z"/>
	<path d="M989.28,448v-17.9h7.94c1.59,0,2.81,0.16,3.64,0.48c0.83,0.32,1.49,0.89,1.99,1.7c0.5,0.81,0.74,1.71,0.74,2.7
		c0,1.27-0.41,2.34-1.23,3.21s-2.09,1.42-3.81,1.66c0.63,0.3,1.1,0.6,1.43,0.89c0.69,0.63,1.35,1.43,1.97,2.38l3.11,4.87h-2.98
		l-2.37-3.72c-0.69-1.07-1.26-1.9-1.71-2.47c-0.45-0.57-0.85-0.97-1.2-1.2c-0.35-0.23-0.71-0.39-1.08-0.48
		c-0.27-0.06-0.71-0.09-1.32-0.09h-2.75V448H989.28z M991.64,438h5.09c1.08,0,1.93-0.11,2.54-0.34c0.61-0.22,1.07-0.58,1.39-1.07
		s0.48-1.03,0.48-1.61c0-0.85-0.31-1.54-0.92-2.09c-0.61-0.54-1.58-0.82-2.91-0.82h-5.66V438z"/>
	<path d="M1018.76,446.04l0.32,1.94c-0.62,0.13-1.17,0.2-1.66,0.2c-0.8,0-1.42-0.12-1.86-0.38c-0.44-0.25-0.75-0.58-0.93-1
		c-0.18-0.41-0.27-1.28-0.27-2.59v-7.46h-1.61v-1.71h1.61v-3.21l2.19-1.32v4.53h2.21v1.71h-2.21v7.58c0,0.62,0.04,1.03,0.12,1.21
		c0.08,0.18,0.2,0.32,0.38,0.43c0.17,0.11,0.42,0.16,0.75,0.16C1018.04,446.12,1018.36,446.09,1018.76,446.04z"/>
	<path d="M1020.88,448v-12.96h1.98V437c0.5-0.92,0.97-1.53,1.4-1.82c0.43-0.29,0.9-0.44,1.41-0.44c0.74,0,1.49,0.24,2.26,0.71
		l-0.76,2.04c-0.54-0.32-1.07-0.48-1.61-0.48c-0.48,0-0.91,0.14-1.29,0.43c-0.38,0.29-0.66,0.69-0.82,1.2
		c-0.24,0.78-0.37,1.64-0.37,2.56V448H1020.88z"/>
	<path d="M1037.69,446.4c-0.81,0.69-1.6,1.18-2.35,1.46c-0.75,0.29-1.56,0.43-2.42,0.43c-1.42,0-2.52-0.35-3.28-1.04
		c-0.77-0.7-1.15-1.58-1.15-2.67c0-0.63,0.14-1.21,0.43-1.74s0.67-0.95,1.13-1.26c0.47-0.32,1-0.56,1.58-0.72
		c0.43-0.12,1.08-0.22,1.95-0.33c1.77-0.21,3.08-0.46,3.92-0.76c0.01-0.3,0.01-0.49,0.01-0.57c0-0.9-0.21-1.53-0.62-1.89
		c-0.56-0.5-1.4-0.75-2.5-0.75c-1.03,0-1.8,0.18-2.29,0.54c-0.49,0.36-0.86,1-1.09,1.92l-2.15-0.29c0.2-0.92,0.52-1.66,0.96-2.23
		c0.45-0.56,1.09-1,1.94-1.3c0.85-0.31,1.83-0.46,2.94-0.46c1.11,0,2.01,0.13,2.7,0.39c0.69,0.26,1.2,0.59,1.53,0.98
		c0.33,0.4,0.55,0.89,0.68,1.5c0.07,0.38,0.11,1.05,0.11,2.03v2.93c0,2.04,0.05,3.33,0.14,3.88c0.09,0.54,0.28,1.06,0.56,1.56h-2.29
		C1037.9,447.54,1037.75,447.01,1037.69,446.4z M1037.51,441.49c-0.8,0.32-1.99,0.6-3.59,0.83c-0.9,0.13-1.54,0.28-1.92,0.44
		c-0.37,0.16-0.66,0.4-0.87,0.71c-0.2,0.31-0.31,0.66-0.31,1.04c0,0.59,0.22,1.07,0.67,1.46s1.09,0.59,1.95,0.59
		c0.85,0,1.6-0.19,2.26-0.56c0.66-0.37,1.14-0.88,1.45-1.52c0.24-0.5,0.35-1.23,0.35-2.2V441.49z"/>
	<path d="M1043.13,448v-12.96h1.98v1.84c0.95-1.42,2.33-2.14,4.12-2.14c0.78,0,1.5,0.14,2.16,0.42s1.15,0.65,1.47,1.1
		s0.55,1,0.68,1.62c0.08,0.41,0.12,1.12,0.12,2.14V448h-2.2v-7.89c0-0.89-0.09-1.56-0.26-2.01c-0.17-0.44-0.47-0.8-0.91-1.06
		c-0.44-0.26-0.95-0.4-1.53-0.4c-0.94,0-1.74,0.3-2.42,0.89c-0.68,0.59-1.02,1.72-1.02,3.38V448H1043.13z"/>
	<path d="M1056.16,444.13l2.17-0.34c0.12,0.87,0.46,1.54,1.02,2c0.56,0.46,1.34,0.7,2.34,0.7c1.01,0,1.76-0.21,2.25-0.62
		c0.49-0.41,0.73-0.89,0.73-1.45c0-0.5-0.21-0.89-0.65-1.17c-0.3-0.2-1.05-0.45-2.25-0.75c-1.61-0.41-2.73-0.76-3.35-1.05
		c-0.62-0.3-1.09-0.71-1.42-1.23c-0.32-0.52-0.48-1.1-0.48-1.74c0-0.58,0.13-1.11,0.4-1.61c0.26-0.49,0.62-0.9,1.08-1.23
		c0.34-0.25,0.81-0.47,1.4-0.64c0.59-0.18,1.22-0.26,1.9-0.26c1.02,0,1.91,0.15,2.68,0.44s1.34,0.69,1.7,1.19
		c0.37,0.5,0.62,1.17,0.76,2.01l-2.15,0.29c-0.1-0.67-0.38-1.19-0.85-1.56c-0.47-0.38-1.13-0.56-1.98-0.56
		c-1.01,0-1.73,0.17-2.16,0.5c-0.43,0.33-0.65,0.72-0.65,1.17c0,0.29,0.09,0.54,0.27,0.77c0.18,0.24,0.46,0.43,0.84,0.59
		c0.22,0.08,0.87,0.27,1.94,0.56c1.55,0.41,2.64,0.75,3.25,1.02c0.62,0.26,1.1,0.65,1.45,1.15c0.35,0.51,0.52,1.13,0.52,1.88
		c0,0.73-0.21,1.42-0.64,2.07c-0.43,0.65-1.04,1.15-1.85,1.5s-1.72,0.53-2.73,0.53c-1.68,0-2.97-0.35-3.85-1.05
		C1056.97,446.54,1056.4,445.51,1056.16,444.13z"/>
	<path d="M1069.55,432.63v-2.53h2.2v2.53H1069.55z M1069.55,448v-12.96h2.2V448H1069.55z"/>
	<path d="M1079.89,446.04l0.32,1.94c-0.62,0.13-1.17,0.2-1.66,0.2c-0.8,0-1.42-0.12-1.86-0.38c-0.44-0.25-0.75-0.58-0.93-1
		c-0.18-0.41-0.27-1.28-0.27-2.59v-7.46h-1.61v-1.71h1.61v-3.21l2.19-1.32v4.53h2.21v1.71h-2.21v7.58c0,0.62,0.04,1.03,0.12,1.21
		c0.08,0.18,0.2,0.32,0.38,0.43c0.17,0.11,0.42,0.16,0.75,0.16C1079.17,446.12,1079.49,446.09,1079.89,446.04z"/>
	<path d="M1082.05,432.63v-2.53h2.2v2.53H1082.05z M1082.05,448v-12.96h2.2V448H1082.05z"/>
	<path d="M1086.77,441.52c0-2.4,0.67-4.18,2-5.33c1.12-0.96,2.47-1.44,4.08-1.44c1.78,0,3.24,0.58,4.37,1.75s1.7,2.78,1.7,4.84
		c0,1.67-0.25,2.98-0.75,3.94c-0.5,0.96-1.23,1.7-2.19,2.23c-0.96,0.53-2,0.79-3.13,0.79c-1.82,0-3.28-0.58-4.4-1.75
		C1087.33,445.38,1086.77,443.71,1086.77,441.52z M1089.03,441.52c0,1.66,0.36,2.9,1.09,3.73c0.72,0.83,1.64,1.24,2.73,1.24
		c1.09,0,2-0.42,2.72-1.25s1.09-2.1,1.09-3.79c0-1.6-0.36-2.82-1.09-3.64s-1.63-1.24-2.72-1.24c-1.1,0-2.01,0.41-2.73,1.23
		C1089.39,438.62,1089.03,439.86,1089.03,441.52z"/>
	<path d="M1101.5,448v-12.96h1.98v1.84c0.95-1.42,2.33-2.14,4.13-2.14c0.78,0,1.5,0.14,2.16,0.42c0.65,0.28,1.14,0.65,1.47,1.1
		c0.32,0.46,0.55,1,0.68,1.62c0.08,0.41,0.12,1.12,0.12,2.14V448h-2.2v-7.89c0-0.89-0.08-1.56-0.26-2.01s-0.47-0.8-0.91-1.06
		c-0.43-0.26-0.95-0.4-1.53-0.4c-0.94,0-1.74,0.3-2.42,0.89c-0.68,0.59-1.02,1.72-1.02,3.38V448H1101.5z"/>
	<path d="M1114.52,444.13l2.17-0.34c0.12,0.87,0.46,1.54,1.02,2c0.56,0.46,1.34,0.7,2.34,0.7c1.01,0,1.76-0.21,2.25-0.62
		c0.49-0.41,0.73-0.89,0.73-1.45c0-0.5-0.22-0.89-0.65-1.17c-0.3-0.2-1.05-0.45-2.25-0.75c-1.61-0.41-2.73-0.76-3.35-1.05
		c-0.62-0.3-1.09-0.71-1.42-1.23c-0.32-0.52-0.48-1.1-0.48-1.74c0-0.58,0.13-1.11,0.4-1.61c0.26-0.49,0.62-0.9,1.08-1.23
		c0.34-0.25,0.81-0.47,1.4-0.64c0.59-0.18,1.22-0.26,1.9-0.26c1.02,0,1.91,0.15,2.68,0.44c0.77,0.29,1.34,0.69,1.7,1.19
		c0.37,0.5,0.62,1.17,0.76,2.01l-2.15,0.29c-0.1-0.67-0.38-1.19-0.85-1.56c-0.47-0.38-1.13-0.56-1.98-0.56
		c-1.01,0-1.73,0.17-2.16,0.5c-0.43,0.33-0.65,0.72-0.65,1.17c0,0.29,0.09,0.54,0.27,0.77c0.18,0.24,0.46,0.43,0.84,0.59
		c0.22,0.08,0.87,0.27,1.94,0.56c1.55,0.41,2.64,0.75,3.25,1.02c0.61,0.26,1.1,0.65,1.45,1.15c0.35,0.51,0.53,1.13,0.53,1.88
		c0,0.73-0.21,1.42-0.64,2.07c-0.43,0.65-1.04,1.15-1.85,1.5c-0.81,0.35-1.72,0.53-2.73,0.53c-1.69,0-2.97-0.35-3.85-1.05
		C1115.33,446.54,1114.76,445.51,1114.52,444.13z"/>
</g>
<g>
</g>
<g>
</g>
<g>
</g>
<g>
</g>
<g>
</g>
<g>
</g>
<g>
</g>
<g>
</g>
<g>
</g>
<g>
</g>
<g>
</g>
<g>
</g>
<g>
</g>
<g>
</g>
<g>
</g>
<g>
</g>
<g>
</g>
<g>
</g>
<g>
</g>
</svg>
