<?xml version="1.0" encoding="UTF-8"?>
<svg xmlns="http://www.w3.org/2000/svg" xmlns:xlink="http://www.w3.org/1999/xlink" width="248.667pt" height="133.333pt" viewBox="0 0 248.667 133.333" version="1.1">
<defs>
<filter id="alpha" filterUnits="objectBoundingBox" x="0%" y="0%" width="100%" height="100%">
  <feColorMatrix type="matrix" in="SourceGraphic" values="0 0 0 0 1 0 0 0 0 1 0 0 0 0 1 0 0 0 1 0"/>
</filter>
<mask id="mask0">
  <g filter="url(#alpha)">
<rect x="0" y="0" width="248.667" height="133.333" style="fill:rgb(0%,0%,0%);fill-opacity:0.600006;stroke:none;"/>
  </g>
</mask>
<clipPath id="clip2">
  <path d="M 0.511719 0.28125 L 237.175781 0.28125 L 237.175781 47.617188 L 0.511719 47.617188 Z M 0.511719 0.28125 "/>
</clipPath>
<clipPath id="clip3">
  <rect width="58" height="58"/>
</clipPath>
<g id="surface7" clip-path="url(#clip3)">
<path style="fill:none;stroke-width:0.72;stroke-linecap:butt;stroke-linejoin:miter;stroke:rgb(13.729858%,12.159729%,12.548828%);stroke-opacity:1;stroke-miterlimit:4;" d="M -0.00215517 -0.00203966 L 72.502155 -0.00203966 " transform="matrix(0.805556,0,0,0.805556,-0.201389,2.900081)"/>
<path style="fill:none;stroke-width:0.72;stroke-linecap:butt;stroke-linejoin:miter;stroke:rgb(13.729858%,12.159729%,12.548828%);stroke-opacity:1;stroke-miterlimit:4;" d="M -0.00215517 0 L 72.502155 0 " transform="matrix(0.805556,0,0,0.805556,-0.201389,14.5)"/>
<path style="fill:none;stroke-width:0.72;stroke-linecap:butt;stroke-linejoin:miter;stroke:rgb(13.729858%,12.159729%,12.548828%);stroke-opacity:1;stroke-miterlimit:4;" d="M -0.00215517 0.00203966 L 72.502155 0.00203966 " transform="matrix(0.805556,0,0,0.805556,-0.201389,26.099919)"/>
<path style="fill:none;stroke-width:0.72;stroke-linecap:butt;stroke-linejoin:miter;stroke:rgb(13.729858%,12.159729%,12.548828%);stroke-opacity:1;stroke-miterlimit:4;" d="M -0.00215517 -0.000769828 L 72.502155 -0.000769828 " transform="matrix(0.805556,0,0,0.805556,-0.201389,37.699839)"/>
<path style="fill:none;stroke-width:0.72;stroke-linecap:butt;stroke-linejoin:miter;stroke:rgb(13.729858%,12.159729%,12.548828%);stroke-opacity:1;stroke-miterlimit:4;" d="M -0.00215517 0.000769828 L 72.502155 0.000769828 " transform="matrix(0.805556,0,0,0.805556,-0.201389,49.300161)"/>
<path style="fill:none;stroke-width:0.72;stroke-linecap:butt;stroke-linejoin:miter;stroke:rgb(13.729858%,12.159729%,12.548828%);stroke-opacity:1;stroke-miterlimit:4;" d="M -0.00215517 -0.000769828 L 72.502155 -0.000769828 " transform="matrix(0.805556,0,0,0.805556,-0.201389,8.699839)"/>
<path style="fill:none;stroke-width:0.72;stroke-linecap:butt;stroke-linejoin:miter;stroke:rgb(13.729858%,12.159729%,12.548828%);stroke-opacity:1;stroke-miterlimit:4;" d="M -0.00215517 0.000769828 L 72.502155 0.000769828 " transform="matrix(0.805556,0,0,0.805556,-0.201389,20.300161)"/>
<path style="fill:none;stroke-width:0.72;stroke-linecap:butt;stroke-linejoin:miter;stroke:rgb(13.729858%,12.159729%,12.548828%);stroke-opacity:1;stroke-miterlimit:4;" d="M -0.00215517 -0.00203966 L 72.502155 -0.00203966 " transform="matrix(0.805556,0,0,0.805556,-0.201389,31.900081)"/>
<path style="fill:none;stroke-width:0.72;stroke-linecap:butt;stroke-linejoin:miter;stroke:rgb(13.729858%,12.159729%,12.548828%);stroke-opacity:1;stroke-miterlimit:4;" d="M -0.00215517 0 L 72.502155 0 " transform="matrix(0.805556,0,0,0.805556,-0.201389,43.5)"/>
<path style="fill:none;stroke-width:0.72;stroke-linecap:butt;stroke-linejoin:miter;stroke:rgb(13.729858%,12.159729%,12.548828%);stroke-opacity:1;stroke-miterlimit:4;" d="M -0.00215517 0.00203966 L 72.502155 0.00203966 " transform="matrix(0.805556,0,0,0.805556,-0.201389,55.099919)"/>
</g>
<pattern id="pattern0" patternUnits="userSpaceOnUse" width="58" height="58" patternTransform="matrix(0.760766,-0.638362,-0.638362,-0.760766,714.045,-7216.257)">
<use xlink:href="#surface7"/>
</pattern>
<clipPath id="clip1">
  <rect width="238" height="48"/>
</clipPath>
<g id="surface4" clip-path="url(#clip1)">
<g clip-path="url(#clip2)" clip-rule="nonzero">
<path style=" stroke:none;fill-rule:nonzero;fill:url(#pattern0);" d="M 0.511719 47.617188 L 237.175781 47.617188 L 237.175781 0.285156 L 0.511719 0.285156 Z M 0.511719 47.617188 "/>
</g>
</g>
</defs>
<g id="surface1">
<path style="fill-rule:nonzero;fill:rgb(79.84314%,85.618591%,67.497253%);fill-opacity:1;stroke-width:0.5;stroke-linecap:butt;stroke-linejoin:miter;stroke:rgb(13.729858%,12.159729%,12.548828%);stroke-opacity:1;stroke-miterlimit:10;" d="M -0.0009375 0.00195 C -0.0009375 12.080075 9.795938 21.87695 21.877969 21.87695 C 33.96 21.87695 43.756875 12.080075 43.756875 0.00195 " transform="matrix(1,0,0,-1,136.4775,82.2832)"/>
<path style="fill:none;stroke-width:0.6;stroke-linecap:butt;stroke-linejoin:miter;stroke:rgb(43.493652%,59.931946%,17.008972%);stroke-opacity:1;stroke-miterlimit:10;" d="M -0.00000625 -0.00005 L 18.296869 -3.18755 " transform="matrix(1,0,0,-1,140.0586,79.0937)"/>
<path style=" stroke:none;fill-rule:nonzero;fill:rgb(43.493652%,59.931946%,17.008972%);fill-opacity:1;" d="M 140.589844 80.203125 L 136.925781 78.503906 L 140.949219 78.140625 Z M 140.589844 80.203125 "/>
<path style="fill:none;stroke-width:0.6;stroke-linecap:butt;stroke-linejoin:miter;stroke:rgb(43.493652%,59.931946%,17.008972%);stroke-opacity:1;stroke-miterlimit:10;" d="M -0.0000375 -0.00099375 L 13.816369 -12.41115 " transform="matrix(1,0,0,-1,144.5391,69.8701)"/>
<path style=" stroke:none;fill-rule:nonzero;fill:rgb(43.493652%,59.931946%,17.008972%);fill-opacity:1;" d="M 144.402344 71.09375 L 142.195313 67.707031 L 145.796875 69.535156 Z M 144.402344 71.09375 "/>
<path style="fill:none;stroke-width:0.6;stroke-linecap:butt;stroke-linejoin:miter;stroke:rgb(43.493652%,59.931946%,17.008972%);stroke-opacity:1;stroke-miterlimit:10;" d="M 0.000975 0.0010125 L 5.122069 -17.854456 " transform="matrix(1,0,0,-1,153.2334,64.4307)"/>
<path style=" stroke:none;fill-rule:nonzero;fill:rgb(43.493652%,59.931946%,17.008972%);fill-opacity:1;" d="M 152.46875 65.394531 L 152.394531 61.351563 L 154.476563 64.816406 Z M 152.46875 65.394531 "/>
<path style="fill:none;stroke-width:0.6;stroke-linecap:butt;stroke-linejoin:miter;stroke:rgb(43.493652%,59.931946%,17.008972%);stroke-opacity:1;stroke-miterlimit:10;" d="M 0.00098125 0.00050625 L -5.131831 -17.84715 " transform="matrix(1,0,0,-1,163.4873,64.4341)"/>
<path style=" stroke:none;fill-rule:nonzero;fill:rgb(43.493652%,59.931946%,17.008972%);fill-opacity:1;" d="M 162.328125 64.84375 L 164.410156 61.378906 L 164.339844 65.421875 Z M 162.328125 64.84375 "/>
<path style="fill:none;stroke-width:0.6;stroke-linecap:butt;stroke-linejoin:miter;stroke:rgb(43.493652%,59.931946%,17.008972%);stroke-opacity:1;stroke-miterlimit:10;" d="M -0.00191875 -0.00000625 L -13.822231 -12.40235 " transform="matrix(1,0,0,-1,172.1777,69.8789)"/>
<path style=" stroke:none;fill-rule:nonzero;fill:rgb(43.493652%,59.931946%,17.008972%);fill-opacity:1;" d="M 170.976563 69.609375 L 174.582031 67.78125 L 172.375 71.167969 Z M 170.976563 69.609375 "/>
<path style="fill:none;stroke-width:0.6;stroke-linecap:butt;stroke-linejoin:miter;stroke:rgb(43.493652%,59.931946%,17.008972%);stroke-opacity:1;stroke-miterlimit:10;" d="M 0.00195 -0.00096875 L -18.298831 -3.180656 " transform="matrix(1,0,0,-1,176.6543,79.1045)"/>
<path style=" stroke:none;fill-rule:nonzero;fill:rgb(43.493652%,59.931946%,17.008972%);fill-opacity:1;" d="M 175.78125 78.238281 L 179.804688 78.601563 L 176.136719 80.300781 Z M 175.78125 78.238281 "/>
<path style="fill:none;stroke-width:1;stroke-linecap:butt;stroke-linejoin:miter;stroke:rgb(13.729858%,12.159729%,12.548828%);stroke-opacity:1;stroke-miterlimit:10;" d="M 244.175781 86.05175 L 7.511719 86.05175 L 7.511719 51.05175 L 244.175781 51.05175 Z M 244.175781 86.05175 " transform="matrix(1,0,0,-1,0,133.333)"/>
<use xlink:href="#surface4" transform="matrix(1,0,0,1,7,82)" mask="url(#mask0)"/>
<path style="fill:none;stroke-width:1;stroke-linecap:butt;stroke-linejoin:miter;stroke:rgb(13.729858%,12.159729%,12.548828%);stroke-opacity:1;stroke-miterlimit:10;" d="M 244.175781 51.05175 L 7.511719 51.05175 L 7.511719 3.715812 L 244.175781 3.715812 Z M 244.175781 51.05175 " transform="matrix(1,0,0,-1,0,133.333)"/>
<path style="fill:none;stroke-width:1;stroke-linecap:butt;stroke-linejoin:miter;stroke:rgb(13.729858%,12.159729%,12.548828%);stroke-opacity:1;stroke-miterlimit:10;" d="M -0.00101875 0.00195 L 40.10445 -31.193363 " transform="matrix(1,0,0,-1,113.6768,47.2832)"/>
<path style=" stroke:none;fill-rule:nonzero;fill:rgb(13.729858%,12.159729%,12.548828%);fill-opacity:1;" d="M 151.488281 79.160156 L 158.726563 82.21875 L 153.988281 75.953125 Z M 151.488281 79.160156 "/>
<path style="fill:none;stroke-width:1;stroke-linecap:butt;stroke-linejoin:miter;stroke:rgb(13.729858%,12.159729%,12.548828%);stroke-opacity:1;stroke-miterlimit:10;" d="M -0.00093125 -0.001025 L 14.788131 28.717725 " transform="matrix(1,0,0,-1,160.3564,81.5146)"/>
<path style=" stroke:none;fill-rule:nonzero;fill:rgb(13.729858%,12.159729%,12.548828%);fill-opacity:1;" d="M 176.238281 54.921875 L 177.90625 47.246094 L 172.625 53.058594 Z M 176.238281 54.921875 "/>
</g>
</svg>
