<svg id="Layer_1" data-name="Layer 1" xmlns="http://www.w3.org/2000/svg" viewBox="0 0 1286.04 529.1"><defs><style>.cls-1{fill:#b0d1cb;}.cls-1,.cls-4,.cls-7{stroke:#7f7f7f;}.cls-1,.cls-2,.cls-4,.cls-5,.cls-6,.cls-7,.cls-8{stroke-miterlimit:10;}.cls-1,.cls-2,.cls-7,.cls-8{stroke-width:3px;}.cls-2,.cls-8{fill:none;}.cls-2{stroke:#489989;}.cls-3{fill:#489989;}.cls-4{fill:#fff;stroke-width:5px;}.cls-5,.cls-6{stroke:#fff;stroke-width:0.5px;}.cls-6{fill:#707070;}.cls-7{fill:#88b4d8;}.cls-8{stroke:#317bad;}.cls-9{fill:#317bad;}.cls-10{font-size:55px;}.cls-10,.cls-14{font-family:LinLibertine, Linux Libertine;}.cls-11{letter-spacing:0.01em;}.cls-12{letter-spacing:-0.01em;}.cls-13{font-size:150px;font-family:LinLibertineB, Linux Libertine;}.cls-14{font-size:36px;}</style></defs><path class="cls-1" d="M823.68,273.2a178.08,178.08,0,1,1,356.09,6.61"/><line class="cls-2" x1="1003.38" y1="275.52" x2="1003.38" y2="118.08"/><polygon class="cls-3" points="1007.87 119.39 1003.38 111.62 998.89 119.39 1007.87 119.39"/><line class="cls-2" x1="1003.38" y1="275.52" x2="936.84" y2="132.83"/><polygon class="cls-3" points="941.47 132.12 934.12 126.97 933.33 135.91 941.47 132.12"/><line class="cls-2" x1="1003.38" y1="275.52" x2="851.31" y2="234.77"/><polygon class="cls-3" points="853.74 230.77 845.07 233.1 851.41 239.44 853.74 230.77"/><line class="cls-2" x1="1001.15" y1="275.52" x2="1067.69" y2="132.83"/><polygon class="cls-3" points="1071.2 135.91 1070.42 126.98 1063.07 132.12 1071.2 135.91"/><line class="cls-2" x1="1001.15" y1="275.52" x2="1121.76" y2="174.32"/><polygon class="cls-3" points="1123.63 178.6 1126.7 170.17 1117.87 171.72 1123.63 178.6"/><line class="cls-2" x1="1001.15" y1="275.52" x2="1153.23" y2="234.77"/><polygon class="cls-3" points="1153.12 239.44 1159.46 233.1 1150.8 230.77 1153.12 239.44"/><path class="cls-4" d="M1279.35,274.93l.58,192.51-552.51-.61-.58-192.5Z"/><polygon class="cls-5" points="1079.91 410.51 1076.96 373.01 1070.18 383.4 1017.89 279.53 1011.64 282.68 1063.93 386.55 1051.54 385.81 1079.91 410.51"/><polygon class="cls-5" points="975.31 301.48 891.72 408.36 897.24 412.67 980.82 305.79 985.44 317.3 995.68 281.11 963.02 299.77 975.31 301.48"/><polygon class="cls-6" points="1075.9 418.26 1072.41 414.68 1051.66 434.97 1049.48 426.38 1038.81 451.04 1063.69 440.91 1055.16 438.55 1075.9 418.26"/><polygon class="cls-6" points="997.25 438.3 971.74 446.75 995.87 458.58 991.95 450.63 1032.04 453.36 1032.38 448.37 992.29 445.64 997.25 438.3"/><polygon class="cls-6" points="932.35 417.03 905.69 413.68 922.37 434.74 922.25 425.88 958.11 446.08 960.56 441.72 924.71 421.53 932.35 417.03"/><path class="cls-5" d="M1230.71,152.26l-37.46,3.48,10.49,6.63-202,105.26a3.5,3.5,0,1,0,3.24,6.21l202-105.26-.56,12.39Z"/><path class="cls-5" d="M979,235.3l-2.1,12.22L845.33,137.4a3.5,3.5,0,1,0-4.49,5.37L972.35,252.89l-11.66,4.23,35.83,11.44Z"/><path class="cls-7" d="M265.13,300.15c-9.14-5.65-3.54-30.06-.68-42.11C297.17,120.46,313.53,51.67,365,21.68c9.72-5.66,44.59-26,72.33-12.22,24.12,12,30.37,43.48,31.59,49.58,15.73,79.24-77.14,152.85-170.48,226.85C289.53,292.93,273.3,305.21,265.13,300.15Z"/><path class="cls-5" d="M235.64,247.76,233.53,260,102,149.87a3.5,3.5,0,0,0-4.5,5.36L229,265.35l-11.66,4.23L253.2,281Z"/><line class="cls-8" x1="267.85" y1="296.99" x2="305.48" y2="130.54"/><polygon class="cls-9" points="309.56 132.81 306.9 124.24 300.81 130.83 309.56 132.81"/><line class="cls-8" x1="267.85" y1="296.99" x2="362.08" y2="38.39"/><polygon class="cls-9" points="365.85 41.16 364.29 32.32 357.41 38.09 365.85 41.16"/><line class="cls-8" x1="267.85" y1="296.99" x2="424.51" y2="19.16"/><polygon class="cls-9" points="427.77 22.51 427.68 13.53 419.96 18.1 427.77 22.51"/><line class="cls-8" x1="267.85" y1="296.99" x2="456.76" y2="55.52"/><polygon class="cls-9" points="459.48 59.32 460.74 50.44 452.41 53.79 459.48 59.32"/><line class="cls-8" x1="267.85" y1="296.99" x2="441.09" y2="133.76"/><polygon class="cls-9" points="443.21 137.93 445.79 129.34 437.06 131.4 443.21 137.93"/><path class="cls-4" d="M564,275.48V468H7.08V275.48c7.09,4.75,18.24,10.54,31.63,9.78,10.71-.61,12.85-4.82,25.47-6.11,9.06-.93,11,.93,35.66,5.09,17.77,3,26.66,4.49,33.62,4.08,16-.95,17.81-5.73,31.58-5.1,11.15.51,14.63,3.86,27.51,7.13,17.43,4.43,31.72,3.5,39.73,3.06,26.26-1.46,35.79-9.53,54.22-7,8.84,1.21,19.93,3.4,19.93,3.4A34.25,34.25,0,0,0,320,292.73c7.08,0,10.16-2.34,16.53-2.49,7.57-.18,8.41,3.06,16.75,4.75,11.41,2.32,14.56-2.57,28.75-2.49,12.81.08,11.4,4.08,22,3.85,17.21-.37,21.12-11,36-9.05,7.19.93,7.45,3.56,16.07,4.3,4.75.41,8.3-.08,21.51-3.17,23.28-5.45,26.36-7.26,32.15-5.21,7.31,2.59,7.56,7.28,13.58,7.47,6.83.22,9.61-5.7,18.57-10.41C546.46,277.87,553.56,275.3,564,275.48Z"/><text class="cls-10" transform="translate(76.63 520.27)">S<tspan class="cls-11" x="26.67" y="0">pe</tspan><tspan x="80.51" y="0">cular </tspan><tspan class="cls-12" x="207.03" y="0">r</tspan><tspan x="227.04" y="0">efl</tspan><tspan class="cls-11" x="281.28" y="0">e</tspan><tspan x="306.23" y="0">ction</tspan></text><text class="cls-10" transform="translate(807.37 520.27)">Diffuse <tspan class="cls-12" x="174.37" y="0">r</tspan><tspan x="194.38" y="0">efl</tspan><tspan class="cls-11" x="248.63" y="0">e</tspan><tspan x="273.58" y="0">ction</tspan></text><text class="cls-13" transform="translate(610.43 410.51)">+</text><text class="cls-14" transform="translate(1063.93 333.96)"><tspan class="cls-12">r</tspan><tspan x="13.1" y="0">efract in</tspan></text><text class="cls-14" transform="translate(776.44 333.96)"><tspan class="cls-12">r</tspan><tspan x="13.1" y="0">efract out</tspan></text><text class="cls-14" transform="translate(968.75 430.24)">SSS</text></svg>