<?xml version="1.0" encoding="utf-8"?>
<!-- Generator: Adobe Illustrator 26.1.0, SVG Export Plug-In . SVG Version: 6.00 Build 0)  -->
<svg version="1.1" id="Layer_1" xmlns="http://www.w3.org/2000/svg" xmlns:xlink="http://www.w3.org/1999/xlink" x="0px" y="0px"
	 viewBox="0 0 389.07 121.27" style="enable-background:new 0 0 389.07 121.27;" xml:space="preserve">
<style type="text/css">
	.st0{font-family:'MyriadPro-Regular';}
	.st1{font-size:12px;}
	.st2{fill:#0000FF;stroke:#0000FF;stroke-width:6;stroke-miterlimit:10;}
	.st3{fill:#C1272D;stroke:#C1272D;stroke-width:6;stroke-miterlimit:10;}
	.st4{fill:#FF0000;stroke:#FBB03B;stroke-width:6;stroke-miterlimit:10;}
	.st5{fill:#FFFF00;stroke:#8CC63F;stroke-width:6;stroke-miterlimit:10;}
	.st6{fill:none;stroke:#0000FF;stroke-width:3;stroke-miterlimit:10;}
	.st7{fill:none;stroke:#C1272D;stroke-width:3;stroke-miterlimit:10;}
	.st8{fill:none;stroke:#FBB03B;stroke-width:3;stroke-miterlimit:10;}
	.st9{fill:none;stroke:#8CC63F;stroke-width:3;stroke-miterlimit:10;}
</style>
<text transform="matrix(1 0 0 1 29.6672 111.9368)" class="st0 st1">llvm_spectral_polarized_double</text>
<g>
	<line class="st2" x1="29.67" y1="90.05" x2="50.68" y2="90.05"/>
	<line class="st3" x1="57.68" y1="90.05" x2="95.68" y2="90.05"/>
	<line class="st4" x1="103.68" y1="90.05" x2="148.68" y2="90.05"/>
	<line class="st5" x1="156.68" y1="90.05" x2="189.68" y2="90.05"/>
	<polyline class="st6" points="40.17,90.05 39.9,11.55 198.68,11.55 	"/>
	<polyline class="st7" points="76.68,89.05 76.68,29.05 198.68,29.05 	"/>
	<polyline class="st8" points="126.68,87.05 126.68,47.05 198.68,47.05 	"/>
	<polyline class="st9" points="172.68,90.05 172.68,65.05 198.68,65.05 	"/>
</g>
<text transform="matrix(1 0 0 1 204.0087 69.3226)" class="st0 st1">Precision specifier (optional)</text>
<text transform="matrix(1 0 0 1 204.0087 51.3226)" class="st0 st1">Account for polarization? (optional)</text>
<text transform="matrix(1 0 0 1 204.0087 33.3226)" class="st0 st1">Color representation</text>
<text transform="matrix(1 0 0 1 204.0087 15.3226)" class="st0 st1">Computational backend</text>
</svg>
