<?xml version="1.0" encoding="utf-8" standalone="no"?>
<!DOCTYPE svg PUBLIC "-//W3C//DTD SVG 1.1//EN"
  "http://www.w3.org/Graphics/SVG/1.1/DTD/svg11.dtd">
<!-- Created with matplotlib (https://matplotlib.org/) -->
<svg height="792pt" version="1.1" viewBox="0 0 792 792" width="792pt" xmlns="http://www.w3.org/2000/svg" xmlns:xlink="http://www.w3.org/1999/xlink">
 <defs>
  <style type="text/css">
*{stroke-linecap:butt;stroke-linejoin:round;}
  </style>
 </defs>
 <g id="figure_1">
  <g id="patch_1">
   <path d="M 0 792 
L 792 792 
L 792 0 
L 0 0 
z
" style="fill:#ffffff;"/>
  </g>
  <g id="axes_1">
   <g id="LineCollection_1">
    <path clip-path="url(#p8d323d53a2)" d="M 99 106.939317 
L 685.852683 106.939317 
" style="fill:none;stroke:#000000;stroke-width:1.5;"/>
   </g>
   <g id="line2d_1">
    <defs>
     <path d="M 0 10 
L 0 -10 
" id="me3a7a4eb72" style="stroke:#1f77b4;"/>
    </defs>
    <g clip-path="url(#p8d323d53a2)">
     <use style="fill:#1f77b4;stroke:#1f77b4;" x="603.698947" xlink:href="#me3a7a4eb72" y="106.939317"/>
     <use style="fill:#1f77b4;stroke:#1f77b4;" x="445.160202" xlink:href="#me3a7a4eb72" y="106.939317"/>
     <use style="fill:#1f77b4;stroke:#1f77b4;" x="653.960727" xlink:href="#me3a7a4eb72" y="106.939317"/>
     <use style="fill:#1f77b4;stroke:#1f77b4;" x="144.239535" xlink:href="#me3a7a4eb72" y="106.939317"/>
     <use style="fill:#1f77b4;stroke:#1f77b4;" x="358.587656" xlink:href="#me3a7a4eb72" y="106.939317"/>
     <use style="fill:#1f77b4;stroke:#1f77b4;" x="552.773754" xlink:href="#me3a7a4eb72" y="106.939317"/>
     <use style="fill:#1f77b4;stroke:#1f77b4;" x="284.529686" xlink:href="#me3a7a4eb72" y="106.939317"/>
     <use style="fill:#1f77b4;stroke:#1f77b4;" x="211.565392" xlink:href="#me3a7a4eb72" y="106.939317"/>
     <use style="fill:#1f77b4;stroke:#1f77b4;" x="495.55847" xlink:href="#me3a7a4eb72" y="106.939317"/>
     <use style="fill:#1f77b4;stroke:#1f77b4;" x="523.509116" xlink:href="#me3a7a4eb72" y="106.939317"/>
     <use style="fill:#1f77b4;stroke:#1f77b4;" x="508.547521" xlink:href="#me3a7a4eb72" y="106.939317"/>
     <use style="fill:#1f77b4;stroke:#1f77b4;" x="205.876541" xlink:href="#me3a7a4eb72" y="106.939317"/>
     <use style="fill:#1f77b4;stroke:#1f77b4;" x="588.545597" xlink:href="#me3a7a4eb72" y="106.939317"/>
     <use style="fill:#1f77b4;stroke:#1f77b4;" x="346.103739" xlink:href="#me3a7a4eb72" y="106.939317"/>
     <use style="fill:#1f77b4;stroke:#1f77b4;" x="230.148203" xlink:href="#me3a7a4eb72" y="106.939317"/>
     <use style="fill:#1f77b4;stroke:#1f77b4;" x="166.001749" xlink:href="#me3a7a4eb72" y="106.939317"/>
     <use style="fill:#1f77b4;stroke:#1f77b4;" x="322.324198" xlink:href="#me3a7a4eb72" y="106.939317"/>
     <use style="fill:#1f77b4;stroke:#1f77b4;" x="185.493213" xlink:href="#me3a7a4eb72" y="106.939317"/>
     <use style="fill:#1f77b4;stroke:#1f77b4;" x="469.592506" xlink:href="#me3a7a4eb72" y="106.939317"/>
     <use style="fill:#1f77b4;stroke:#1f77b4;" x="454.265833" xlink:href="#me3a7a4eb72" y="106.939317"/>
     <use style="fill:#1f77b4;stroke:#1f77b4;" x="418.614668" xlink:href="#me3a7a4eb72" y="106.939317"/>
     <use style="fill:#1f77b4;stroke:#1f77b4;" x="558.148684" xlink:href="#me3a7a4eb72" y="106.939317"/>
     <use style="fill:#1f77b4;stroke:#1f77b4;" x="218.873987" xlink:href="#me3a7a4eb72" y="106.939317"/>
     <use style="fill:#1f77b4;stroke:#1f77b4;" x="390.904154" xlink:href="#me3a7a4eb72" y="106.939317"/>
     <use style="fill:#1f77b4;stroke:#1f77b4;" x="295.156193" xlink:href="#me3a7a4eb72" y="106.939317"/>
     <use style="fill:#1f77b4;stroke:#1f77b4;" x="374.189072" xlink:href="#me3a7a4eb72" y="106.939317"/>
     <use style="fill:#1f77b4;stroke:#1f77b4;" x="600.982957" xlink:href="#me3a7a4eb72" y="106.939317"/>
     <use style="fill:#1f77b4;stroke:#1f77b4;" x="310.118768" xlink:href="#me3a7a4eb72" y="106.939317"/>
     <use style="fill:#1f77b4;stroke:#1f77b4;" x="154.656674" xlink:href="#me3a7a4eb72" y="106.939317"/>
     <use style="fill:#1f77b4;stroke:#1f77b4;" x="127.750683" xlink:href="#me3a7a4eb72" y="106.939317"/>
     <use style="fill:#1f77b4;stroke:#1f77b4;" x="261.864354" xlink:href="#me3a7a4eb72" y="106.939317"/>
     <use style="fill:#1f77b4;stroke:#1f77b4;" x="100.734302" xlink:href="#me3a7a4eb72" y="106.939317"/>
     <use style="fill:#1f77b4;stroke:#1f77b4;" x="238.912018" xlink:href="#me3a7a4eb72" y="106.939317"/>
     <use style="fill:#1f77b4;stroke:#1f77b4;" x="410.565547" xlink:href="#me3a7a4eb72" y="106.939317"/>
     <use style="fill:#1f77b4;stroke:#1f77b4;" x="400.961148" xlink:href="#me3a7a4eb72" y="106.939317"/>
     <use style="fill:#1f77b4;stroke:#1f77b4;" x="579.369168" xlink:href="#me3a7a4eb72" y="106.939317"/>
     <use style="fill:#1f77b4;stroke:#1f77b4;" x="539.006871" xlink:href="#me3a7a4eb72" y="106.939317"/>
     <use style="fill:#1f77b4;stroke:#1f77b4;" x="112.150618" xlink:href="#me3a7a4eb72" y="106.939317"/>
     <use style="fill:#1f77b4;stroke:#1f77b4;" x="175.917707" xlink:href="#me3a7a4eb72" y="106.939317"/>
     <use style="fill:#1f77b4;stroke:#1f77b4;" x="513.933575" xlink:href="#me3a7a4eb72" y="106.939317"/>
     <use style="fill:#1f77b4;stroke:#1f77b4;" x="664.549754" xlink:href="#me3a7a4eb72" y="106.939317"/>
     <use style="fill:#1f77b4;stroke:#1f77b4;" x="490.486983" xlink:href="#me3a7a4eb72" y="106.939317"/>
     <use style="fill:#1f77b4;stroke:#1f77b4;" x="427.323811" xlink:href="#me3a7a4eb72" y="106.939317"/>
     <use style="fill:#1f77b4;stroke:#1f77b4;" x="120.093374" xlink:href="#me3a7a4eb72" y="106.939317"/>
     <use style="fill:#1f77b4;stroke:#1f77b4;" x="544.741772" xlink:href="#me3a7a4eb72" y="106.939317"/>
     <use style="fill:#1f77b4;stroke:#1f77b4;" x="570.430807" xlink:href="#me3a7a4eb72" y="106.939317"/>
     <use style="fill:#1f77b4;stroke:#1f77b4;" x="483.282329" xlink:href="#me3a7a4eb72" y="106.939317"/>
     <use style="fill:#1f77b4;stroke:#1f77b4;" x="330.416012" xlink:href="#me3a7a4eb72" y="106.939317"/>
     <use style="fill:#1f77b4;stroke:#1f77b4;" x="373.011132" xlink:href="#me3a7a4eb72" y="106.939317"/>
     <use style="fill:#1f77b4;stroke:#1f77b4;" x="675.783516" xlink:href="#me3a7a4eb72" y="106.939317"/>
     <use style="fill:#1f77b4;stroke:#1f77b4;" x="630.308248" xlink:href="#me3a7a4eb72" y="106.939317"/>
     <use style="fill:#1f77b4;stroke:#1f77b4;" x="612.647487" xlink:href="#me3a7a4eb72" y="106.939317"/>
     <use style="fill:#1f77b4;stroke:#1f77b4;" x="305.376243" xlink:href="#me3a7a4eb72" y="106.939317"/>
     <use style="fill:#1f77b4;stroke:#1f77b4;" x="680.559534" xlink:href="#me3a7a4eb72" y="106.939317"/>
     <use style="fill:#1f77b4;stroke:#1f77b4;" x="645.903106" xlink:href="#me3a7a4eb72" y="106.939317"/>
     <use style="fill:#1f77b4;stroke:#1f77b4;" x="457.076198" xlink:href="#me3a7a4eb72" y="106.939317"/>
     <use style="fill:#1f77b4;stroke:#1f77b4;" x="354.586864" xlink:href="#me3a7a4eb72" y="106.939317"/>
     <use style="fill:#1f77b4;stroke:#1f77b4;" x="273.354251" xlink:href="#me3a7a4eb72" y="106.939317"/>
     <use style="fill:#1f77b4;stroke:#1f77b4;" x="269.669461" xlink:href="#me3a7a4eb72" y="106.939317"/>
     <use style="fill:#1f77b4;stroke:#1f77b4;" x="153.014088" xlink:href="#me3a7a4eb72" y="106.939317"/>
     <use style="fill:#1f77b4;stroke:#1f77b4;" x="254.158641" xlink:href="#me3a7a4eb72" y="106.939317"/>
     <use style="fill:#1f77b4;stroke:#1f77b4;" x="197.553306" xlink:href="#me3a7a4eb72" y="106.939317"/>
     <use style="fill:#1f77b4;stroke:#1f77b4;" x="431.058045" xlink:href="#me3a7a4eb72" y="106.939317"/>
     <use style="fill:#1f77b4;stroke:#1f77b4;" x="633.70147" xlink:href="#me3a7a4eb72" y="106.939317"/>
    </g>
   </g>
  </g>
  <g id="axes_2"/>
  <g id="axes_3">
   <g id="patch_2">
    <path d="M 99 704.88 
L 685.852683 704.88 
L 685.852683 121.813463 
L 99 121.813463 
z
" style="fill:#ffffff;"/>
   </g>
   <g id="PathCollection_1">
    <defs>
     <path d="M 0 3 
C 0.795609 3 1.55874 2.683901 2.12132 2.12132 
C 2.683901 1.55874 3 0.795609 3 0 
C 3 -0.795609 2.683901 -1.55874 2.12132 -2.12132 
C 1.55874 -2.683901 0.795609 -3 0 -3 
C -0.795609 -3 -1.55874 -2.683901 -2.12132 -2.12132 
C -2.683901 -1.55874 -3 -0.795609 -3 0 
C -3 0.795609 -2.683901 1.55874 -2.12132 2.12132 
C -1.55874 2.683901 -0.795609 3 0 3 
z
" id="m2f17412fe7" style="stroke:#1f77b4;"/>
    </defs>
    <g clip-path="url(#pb26b22dfcc)">
     <use style="fill:#1f77b4;stroke:#1f77b4;" x="603.698947" xlink:href="#m2f17412fe7" y="690.373419"/>
     <use style="fill:#1f77b4;stroke:#1f77b4;" x="445.160202" xlink:href="#m2f17412fe7" y="422.976885"/>
     <use style="fill:#1f77b4;stroke:#1f77b4;" x="653.960727" xlink:href="#m2f17412fe7" y="227.917939"/>
     <use style="fill:#1f77b4;stroke:#1f77b4;" x="144.239535" xlink:href="#m2f17412fe7" y="194.849487"/>
     <use style="fill:#1f77b4;stroke:#1f77b4;" x="358.587656" xlink:href="#m2f17412fe7" y="232.204571"/>
     <use style="fill:#1f77b4;stroke:#1f77b4;" x="552.773754" xlink:href="#m2f17412fe7" y="177.758806"/>
     <use style="fill:#1f77b4;stroke:#1f77b4;" x="284.529686" xlink:href="#m2f17412fe7" y="217.404283"/>
     <use style="fill:#1f77b4;stroke:#1f77b4;" x="211.565392" xlink:href="#m2f17412fe7" y="249.12649"/>
     <use style="fill:#1f77b4;stroke:#1f77b4;" x="495.55847" xlink:href="#m2f17412fe7" y="554.785898"/>
     <use style="fill:#1f77b4;stroke:#1f77b4;" x="523.509116" xlink:href="#m2f17412fe7" y="334.598245"/>
     <use style="fill:#1f77b4;stroke:#1f77b4;" x="508.547521" xlink:href="#m2f17412fe7" y="260.319784"/>
     <use style="fill:#1f77b4;stroke:#1f77b4;" x="205.876541" xlink:href="#m2f17412fe7" y="533.793288"/>
     <use style="fill:#1f77b4;stroke:#1f77b4;" x="588.545597" xlink:href="#m2f17412fe7" y="470.386566"/>
     <use style="fill:#1f77b4;stroke:#1f77b4;" x="346.103739" xlink:href="#m2f17412fe7" y="595.774684"/>
     <use style="fill:#1f77b4;stroke:#1f77b4;" x="230.148203" xlink:href="#m2f17412fe7" y="321.552138"/>
     <use style="fill:#1f77b4;stroke:#1f77b4;" x="166.001749" xlink:href="#m2f17412fe7" y="632.740798"/>
     <use style="fill:#1f77b4;stroke:#1f77b4;" x="322.324198" xlink:href="#m2f17412fe7" y="379.802644"/>
     <use style="fill:#1f77b4;stroke:#1f77b4;" x="185.493213" xlink:href="#m2f17412fe7" y="170.14863"/>
     <use style="fill:#1f77b4;stroke:#1f77b4;" x="469.592506" xlink:href="#m2f17412fe7" y="411.655836"/>
     <use style="fill:#1f77b4;stroke:#1f77b4;" x="454.265833" xlink:href="#m2f17412fe7" y="280.647021"/>
     <use style="fill:#1f77b4;stroke:#1f77b4;" x="418.614668" xlink:href="#m2f17412fe7" y="568.526492"/>
     <use style="fill:#1f77b4;stroke:#1f77b4;" x="558.148684" xlink:href="#m2f17412fe7" y="619.511663"/>
     <use style="fill:#1f77b4;stroke:#1f77b4;" x="218.873987" xlink:href="#m2f17412fe7" y="463.777202"/>
     <use style="fill:#1f77b4;stroke:#1f77b4;" x="390.904154" xlink:href="#m2f17412fe7" y="669.577239"/>
     <use style="fill:#1f77b4;stroke:#1f77b4;" x="295.156193" xlink:href="#m2f17412fe7" y="437.722505"/>
     <use style="fill:#1f77b4;stroke:#1f77b4;" x="374.189072" xlink:href="#m2f17412fe7" y="311.570975"/>
     <use style="fill:#1f77b4;stroke:#1f77b4;" x="600.982957" xlink:href="#m2f17412fe7" y="323.768923"/>
     <use style="fill:#1f77b4;stroke:#1f77b4;" x="310.118768" xlink:href="#m2f17412fe7" y="650.518343"/>
     <use style="fill:#1f77b4;stroke:#1f77b4;" x="154.656674" xlink:href="#m2f17412fe7" y="273.193652"/>
     <use style="fill:#1f77b4;stroke:#1f77b4;" x="127.750683" xlink:href="#m2f17412fe7" y="491.658785"/>
     <use style="fill:#1f77b4;stroke:#1f77b4;" x="261.864354" xlink:href="#m2f17412fe7" y="146.105308"/>
     <use style="fill:#1f77b4;stroke:#1f77b4;" x="100.734302" xlink:href="#m2f17412fe7" y="346.054241"/>
     <use style="fill:#1f77b4;stroke:#1f77b4;" x="238.912018" xlink:href="#m2f17412fe7" y="684.079766"/>
     <use style="fill:#1f77b4;stroke:#1f77b4;" x="410.565547" xlink:href="#m2f17412fe7" y="136.843159"/>
     <use style="fill:#1f77b4;stroke:#1f77b4;" x="400.961148" xlink:href="#m2f17412fe7" y="352.109095"/>
     <use style="fill:#1f77b4;stroke:#1f77b4;" x="579.369168" xlink:href="#m2f17412fe7" y="251.313838"/>
     <use style="fill:#1f77b4;stroke:#1f77b4;" x="539.006871" xlink:href="#m2f17412fe7" y="696.86624"/>
     <use style="fill:#1f77b4;stroke:#1f77b4;" x="112.150618" xlink:href="#m2f17412fe7" y="129.212652"/>
     <use style="fill:#1f77b4;stroke:#1f77b4;" x="175.917707" xlink:href="#m2f17412fe7" y="394.968817"/>
     <use style="fill:#1f77b4;stroke:#1f77b4;" x="513.933575" xlink:href="#m2f17412fe7" y="484.026296"/>
     <use style="fill:#1f77b4;stroke:#1f77b4;" x="664.549754" xlink:href="#m2f17412fe7" y="446.526603"/>
     <use style="fill:#1f77b4;stroke:#1f77b4;" x="490.486983" xlink:href="#m2f17412fe7" y="627.451876"/>
     <use style="fill:#1f77b4;stroke:#1f77b4;" x="427.323811" xlink:href="#m2f17412fe7" y="497.375853"/>
     <use style="fill:#1f77b4;stroke:#1f77b4;" x="120.093374" xlink:href="#m2f17412fe7" y="560.169255"/>
     <use style="fill:#1f77b4;stroke:#1f77b4;" x="544.741772" xlink:href="#m2f17412fe7" y="396.739923"/>
     <use style="fill:#1f77b4;stroke:#1f77b4;" x="570.430807" xlink:href="#m2f17412fe7" y="548.450514"/>
     <use style="fill:#1f77b4;stroke:#1f77b4;" x="483.282329" xlink:href="#m2f17412fe7" y="187.354831"/>
     <use style="fill:#1f77b4;stroke:#1f77b4;" x="330.416012" xlink:href="#m2f17412fe7" y="166.36349"/>
     <use style="fill:#1f77b4;stroke:#1f77b4;" x="373.011132" xlink:href="#m2f17412fe7" y="458.493458"/>
     <use style="fill:#1f77b4;stroke:#1f77b4;" x="675.783516" xlink:href="#m2f17412fe7" y="295.238997"/>
     <use style="fill:#1f77b4;stroke:#1f77b4;" x="630.308248" xlink:href="#m2f17412fe7" y="153.531604"/>
     <use style="fill:#1f77b4;stroke:#1f77b4;" x="612.647487" xlink:href="#m2f17412fe7" y="369.326592"/>
     <use style="fill:#1f77b4;stroke:#1f77b4;" x="305.376243" xlink:href="#m2f17412fe7" y="286.029014"/>
     <use style="fill:#1f77b4;stroke:#1f77b4;" x="680.559534" xlink:href="#m2f17412fe7" y="662.284983"/>
     <use style="fill:#1f77b4;stroke:#1f77b4;" x="645.903106" xlink:href="#m2f17412fe7" y="517.413368"/>
     <use style="fill:#1f77b4;stroke:#1f77b4;" x="457.076198" xlink:href="#m2f17412fe7" y="646.034636"/>
     <use style="fill:#1f77b4;stroke:#1f77b4;" x="354.586864" xlink:href="#m2f17412fe7" y="525.868384"/>
     <use style="fill:#1f77b4;stroke:#1f77b4;" x="273.354251" xlink:href="#m2f17412fe7" y="509.860778"/>
     <use style="fill:#1f77b4;stroke:#1f77b4;" x="269.669461" xlink:href="#m2f17412fe7" y="584.573935"/>
     <use style="fill:#1f77b4;stroke:#1f77b4;" x="153.014088" xlink:href="#m2f17412fe7" y="413.993563"/>
     <use style="fill:#1f77b4;stroke:#1f77b4;" x="254.158641" xlink:href="#m2f17412fe7" y="361.982905"/>
     <use style="fill:#1f77b4;stroke:#1f77b4;" x="197.553306" xlink:href="#m2f17412fe7" y="608.267975"/>
     <use style="fill:#1f77b4;stroke:#1f77b4;" x="431.058045" xlink:href="#m2f17412fe7" y="204.327663"/>
     <use style="fill:#1f77b4;stroke:#1f77b4;" x="633.70147" xlink:href="#m2f17412fe7" y="593.058595"/>
    </g>
   </g>
   <g id="matplotlib.axis_1">
    <g id="xtick_1">
     <g id="line2d_2">
      <defs>
       <path d="M 0 0 
L 0 3.5 
" id="ma6753666e3" style="stroke:#000000;stroke-width:0.8;"/>
      </defs>
      <g>
       <use style="stroke:#000000;stroke-width:0.8;" x="99" xlink:href="#ma6753666e3" y="704.88"/>
      </g>
     </g>
     <g id="text_1">
      <!-- 0.0 -->
      <defs>
       <path d="M 31.78125 66.40625 
Q 24.171875 66.40625 20.328125 58.90625 
Q 16.5 51.421875 16.5 36.375 
Q 16.5 21.390625 20.328125 13.890625 
Q 24.171875 6.390625 31.78125 6.390625 
Q 39.453125 6.390625 43.28125 13.890625 
Q 47.125 21.390625 47.125 36.375 
Q 47.125 51.421875 43.28125 58.90625 
Q 39.453125 66.40625 31.78125 66.40625 
z
M 31.78125 74.21875 
Q 44.046875 74.21875 50.515625 64.515625 
Q 56.984375 54.828125 56.984375 36.375 
Q 56.984375 17.96875 50.515625 8.265625 
Q 44.046875 -1.421875 31.78125 -1.421875 
Q 19.53125 -1.421875 13.0625 8.265625 
Q 6.59375 17.96875 6.59375 36.375 
Q 6.59375 54.828125 13.0625 64.515625 
Q 19.53125 74.21875 31.78125 74.21875 
z
" id="DejaVuSans-48"/>
       <path d="M 10.6875 12.40625 
L 21 12.40625 
L 21 0 
L 10.6875 0 
z
" id="DejaVuSans-46"/>
      </defs>
      <g transform="translate(91.048438 719.478438)scale(0.1 -0.1)">
       <use xlink:href="#DejaVuSans-48"/>
       <use x="63.623047" xlink:href="#DejaVuSans-46"/>
       <use x="95.410156" xlink:href="#DejaVuSans-48"/>
      </g>
     </g>
    </g>
    <g id="xtick_2">
     <g id="line2d_3">
      <g>
       <use style="stroke:#000000;stroke-width:0.8;" x="216.370537" xlink:href="#ma6753666e3" y="704.88"/>
      </g>
     </g>
     <g id="text_2">
      <!-- 0.2 -->
      <defs>
       <path d="M 19.1875 8.296875 
L 53.609375 8.296875 
L 53.609375 0 
L 7.328125 0 
L 7.328125 8.296875 
Q 12.9375 14.109375 22.625 23.890625 
Q 32.328125 33.6875 34.8125 36.53125 
Q 39.546875 41.84375 41.421875 45.53125 
Q 43.3125 49.21875 43.3125 52.78125 
Q 43.3125 58.59375 39.234375 62.25 
Q 35.15625 65.921875 28.609375 65.921875 
Q 23.96875 65.921875 18.8125 64.3125 
Q 13.671875 62.703125 7.8125 59.421875 
L 7.8125 69.390625 
Q 13.765625 71.78125 18.9375 73 
Q 24.125 74.21875 28.421875 74.21875 
Q 39.75 74.21875 46.484375 68.546875 
Q 53.21875 62.890625 53.21875 53.421875 
Q 53.21875 48.921875 51.53125 44.890625 
Q 49.859375 40.875 45.40625 35.40625 
Q 44.1875 33.984375 37.640625 27.21875 
Q 31.109375 20.453125 19.1875 8.296875 
z
" id="DejaVuSans-50"/>
      </defs>
      <g transform="translate(208.418974 719.478438)scale(0.1 -0.1)">
       <use xlink:href="#DejaVuSans-48"/>
       <use x="63.623047" xlink:href="#DejaVuSans-46"/>
       <use x="95.410156" xlink:href="#DejaVuSans-50"/>
      </g>
     </g>
    </g>
    <g id="xtick_3">
     <g id="line2d_4">
      <g>
       <use style="stroke:#000000;stroke-width:0.8;" x="333.741073" xlink:href="#ma6753666e3" y="704.88"/>
      </g>
     </g>
     <g id="text_3">
      <!-- 0.4 -->
      <defs>
       <path d="M 37.796875 64.3125 
L 12.890625 25.390625 
L 37.796875 25.390625 
z
M 35.203125 72.90625 
L 47.609375 72.90625 
L 47.609375 25.390625 
L 58.015625 25.390625 
L 58.015625 17.1875 
L 47.609375 17.1875 
L 47.609375 0 
L 37.796875 0 
L 37.796875 17.1875 
L 4.890625 17.1875 
L 4.890625 26.703125 
z
" id="DejaVuSans-52"/>
      </defs>
      <g transform="translate(325.789511 719.478438)scale(0.1 -0.1)">
       <use xlink:href="#DejaVuSans-48"/>
       <use x="63.623047" xlink:href="#DejaVuSans-46"/>
       <use x="95.410156" xlink:href="#DejaVuSans-52"/>
      </g>
     </g>
    </g>
    <g id="xtick_4">
     <g id="line2d_5">
      <g>
       <use style="stroke:#000000;stroke-width:0.8;" x="451.11161" xlink:href="#ma6753666e3" y="704.88"/>
      </g>
     </g>
     <g id="text_4">
      <!-- 0.6 -->
      <defs>
       <path d="M 33.015625 40.375 
Q 26.375 40.375 22.484375 35.828125 
Q 18.609375 31.296875 18.609375 23.390625 
Q 18.609375 15.53125 22.484375 10.953125 
Q 26.375 6.390625 33.015625 6.390625 
Q 39.65625 6.390625 43.53125 10.953125 
Q 47.40625 15.53125 47.40625 23.390625 
Q 47.40625 31.296875 43.53125 35.828125 
Q 39.65625 40.375 33.015625 40.375 
z
M 52.59375 71.296875 
L 52.59375 62.3125 
Q 48.875 64.0625 45.09375 64.984375 
Q 41.3125 65.921875 37.59375 65.921875 
Q 27.828125 65.921875 22.671875 59.328125 
Q 17.53125 52.734375 16.796875 39.40625 
Q 19.671875 43.65625 24.015625 45.921875 
Q 28.375 48.1875 33.59375 48.1875 
Q 44.578125 48.1875 50.953125 41.515625 
Q 57.328125 34.859375 57.328125 23.390625 
Q 57.328125 12.15625 50.6875 5.359375 
Q 44.046875 -1.421875 33.015625 -1.421875 
Q 20.359375 -1.421875 13.671875 8.265625 
Q 6.984375 17.96875 6.984375 36.375 
Q 6.984375 53.65625 15.1875 63.9375 
Q 23.390625 74.21875 37.203125 74.21875 
Q 40.921875 74.21875 44.703125 73.484375 
Q 48.484375 72.75 52.59375 71.296875 
z
" id="DejaVuSans-54"/>
      </defs>
      <g transform="translate(443.160047 719.478438)scale(0.1 -0.1)">
       <use xlink:href="#DejaVuSans-48"/>
       <use x="63.623047" xlink:href="#DejaVuSans-46"/>
       <use x="95.410156" xlink:href="#DejaVuSans-54"/>
      </g>
     </g>
    </g>
    <g id="xtick_5">
     <g id="line2d_6">
      <g>
       <use style="stroke:#000000;stroke-width:0.8;" x="568.482146" xlink:href="#ma6753666e3" y="704.88"/>
      </g>
     </g>
     <g id="text_5">
      <!-- 0.8 -->
      <defs>
       <path d="M 31.78125 34.625 
Q 24.75 34.625 20.71875 30.859375 
Q 16.703125 27.09375 16.703125 20.515625 
Q 16.703125 13.921875 20.71875 10.15625 
Q 24.75 6.390625 31.78125 6.390625 
Q 38.8125 6.390625 42.859375 10.171875 
Q 46.921875 13.96875 46.921875 20.515625 
Q 46.921875 27.09375 42.890625 30.859375 
Q 38.875 34.625 31.78125 34.625 
z
M 21.921875 38.8125 
Q 15.578125 40.375 12.03125 44.71875 
Q 8.5 49.078125 8.5 55.328125 
Q 8.5 64.0625 14.71875 69.140625 
Q 20.953125 74.21875 31.78125 74.21875 
Q 42.671875 74.21875 48.875 69.140625 
Q 55.078125 64.0625 55.078125 55.328125 
Q 55.078125 49.078125 51.53125 44.71875 
Q 48 40.375 41.703125 38.8125 
Q 48.828125 37.15625 52.796875 32.3125 
Q 56.78125 27.484375 56.78125 20.515625 
Q 56.78125 9.90625 50.3125 4.234375 
Q 43.84375 -1.421875 31.78125 -1.421875 
Q 19.734375 -1.421875 13.25 4.234375 
Q 6.78125 9.90625 6.78125 20.515625 
Q 6.78125 27.484375 10.78125 32.3125 
Q 14.796875 37.15625 21.921875 38.8125 
z
M 18.3125 54.390625 
Q 18.3125 48.734375 21.84375 45.5625 
Q 25.390625 42.390625 31.78125 42.390625 
Q 38.140625 42.390625 41.71875 45.5625 
Q 45.3125 48.734375 45.3125 54.390625 
Q 45.3125 60.0625 41.71875 63.234375 
Q 38.140625 66.40625 31.78125 66.40625 
Q 25.390625 66.40625 21.84375 63.234375 
Q 18.3125 60.0625 18.3125 54.390625 
z
" id="DejaVuSans-56"/>
      </defs>
      <g transform="translate(560.530584 719.478438)scale(0.1 -0.1)">
       <use xlink:href="#DejaVuSans-48"/>
       <use x="63.623047" xlink:href="#DejaVuSans-46"/>
       <use x="95.410156" xlink:href="#DejaVuSans-56"/>
      </g>
     </g>
    </g>
    <g id="xtick_6">
     <g id="line2d_7">
      <g>
       <use style="stroke:#000000;stroke-width:0.8;" x="685.852683" xlink:href="#ma6753666e3" y="704.88"/>
      </g>
     </g>
     <g id="text_6">
      <!-- 1.0 -->
      <defs>
       <path d="M 12.40625 8.296875 
L 28.515625 8.296875 
L 28.515625 63.921875 
L 10.984375 60.40625 
L 10.984375 69.390625 
L 28.421875 72.90625 
L 38.28125 72.90625 
L 38.28125 8.296875 
L 54.390625 8.296875 
L 54.390625 0 
L 12.40625 0 
z
" id="DejaVuSans-49"/>
      </defs>
      <g transform="translate(677.90112 719.478438)scale(0.1 -0.1)">
       <use xlink:href="#DejaVuSans-49"/>
       <use x="63.623047" xlink:href="#DejaVuSans-46"/>
       <use x="95.410156" xlink:href="#DejaVuSans-48"/>
      </g>
     </g>
    </g>
    <g id="xtick_7">
     <g id="line2d_8">
      <path clip-path="url(#pb26b22dfcc)" d="M 172.356585 704.88 
L 172.356585 121.813463 
" style="fill:none;stroke:#b0b0b0;stroke-linecap:square;stroke-opacity:0.3;stroke-width:0.8;"/>
     </g>
     <g id="line2d_9">
      <defs>
       <path d="M 0 0 
L 0 2 
" id="m8328eea7e7" style="stroke:#000000;stroke-width:0.6;"/>
      </defs>
      <g>
       <use style="stroke:#000000;stroke-width:0.6;" x="172.356585" xlink:href="#m8328eea7e7" y="704.88"/>
      </g>
     </g>
    </g>
    <g id="xtick_8">
     <g id="line2d_10">
      <path clip-path="url(#pb26b22dfcc)" d="M 245.713171 704.88 
L 245.713171 121.813463 
" style="fill:none;stroke:#b0b0b0;stroke-linecap:square;stroke-opacity:0.3;stroke-width:0.8;"/>
     </g>
     <g id="line2d_11">
      <g>
       <use style="stroke:#000000;stroke-width:0.6;" x="245.713171" xlink:href="#m8328eea7e7" y="704.88"/>
      </g>
     </g>
    </g>
    <g id="xtick_9">
     <g id="line2d_12">
      <path clip-path="url(#pb26b22dfcc)" d="M 319.069756 704.88 
L 319.069756 121.813463 
" style="fill:none;stroke:#b0b0b0;stroke-linecap:square;stroke-opacity:0.3;stroke-width:0.8;"/>
     </g>
     <g id="line2d_13">
      <g>
       <use style="stroke:#000000;stroke-width:0.6;" x="319.069756" xlink:href="#m8328eea7e7" y="704.88"/>
      </g>
     </g>
    </g>
    <g id="xtick_10">
     <g id="line2d_14">
      <path clip-path="url(#pb26b22dfcc)" d="M 392.426341 704.88 
L 392.426341 121.813463 
" style="fill:none;stroke:#b0b0b0;stroke-linecap:square;stroke-opacity:0.3;stroke-width:0.8;"/>
     </g>
     <g id="line2d_15">
      <g>
       <use style="stroke:#000000;stroke-width:0.6;" x="392.426341" xlink:href="#m8328eea7e7" y="704.88"/>
      </g>
     </g>
    </g>
    <g id="xtick_11">
     <g id="line2d_16">
      <path clip-path="url(#pb26b22dfcc)" d="M 465.782927 704.88 
L 465.782927 121.813463 
" style="fill:none;stroke:#b0b0b0;stroke-linecap:square;stroke-opacity:0.3;stroke-width:0.8;"/>
     </g>
     <g id="line2d_17">
      <g>
       <use style="stroke:#000000;stroke-width:0.6;" x="465.782927" xlink:href="#m8328eea7e7" y="704.88"/>
      </g>
     </g>
    </g>
    <g id="xtick_12">
     <g id="line2d_18">
      <path clip-path="url(#pb26b22dfcc)" d="M 539.139512 704.88 
L 539.139512 121.813463 
" style="fill:none;stroke:#b0b0b0;stroke-linecap:square;stroke-opacity:0.3;stroke-width:0.8;"/>
     </g>
     <g id="line2d_19">
      <g>
       <use style="stroke:#000000;stroke-width:0.6;" x="539.139512" xlink:href="#m8328eea7e7" y="704.88"/>
      </g>
     </g>
    </g>
    <g id="xtick_13">
     <g id="line2d_20">
      <path clip-path="url(#pb26b22dfcc)" d="M 612.496098 704.88 
L 612.496098 121.813463 
" style="fill:none;stroke:#b0b0b0;stroke-linecap:square;stroke-opacity:0.3;stroke-width:0.8;"/>
     </g>
     <g id="line2d_21">
      <g>
       <use style="stroke:#000000;stroke-width:0.6;" x="612.496098" xlink:href="#m8328eea7e7" y="704.88"/>
      </g>
     </g>
    </g>
   </g>
   <g id="matplotlib.axis_2">
    <g id="ytick_1">
     <g id="line2d_22">
      <defs>
       <path d="M 0 0 
L -3.5 0 
" id="mf0e61e0994" style="stroke:#000000;stroke-width:0.8;"/>
      </defs>
      <g>
       <use style="stroke:#000000;stroke-width:0.8;" x="99" xlink:href="#mf0e61e0994" y="704.88"/>
      </g>
     </g>
     <g id="text_7">
      <!-- 0.0 -->
      <g transform="translate(76.096875 708.679219)scale(0.1 -0.1)">
       <use xlink:href="#DejaVuSans-48"/>
       <use x="63.623047" xlink:href="#DejaVuSans-46"/>
       <use x="95.410156" xlink:href="#DejaVuSans-48"/>
      </g>
     </g>
    </g>
    <g id="ytick_2">
     <g id="line2d_23">
      <g>
       <use style="stroke:#000000;stroke-width:0.8;" x="99" xlink:href="#mf0e61e0994" y="588.266693"/>
      </g>
     </g>
     <g id="text_8">
      <!-- 0.2 -->
      <g transform="translate(76.096875 592.065911)scale(0.1 -0.1)">
       <use xlink:href="#DejaVuSans-48"/>
       <use x="63.623047" xlink:href="#DejaVuSans-46"/>
       <use x="95.410156" xlink:href="#DejaVuSans-50"/>
      </g>
     </g>
    </g>
    <g id="ytick_3">
     <g id="line2d_24">
      <g>
       <use style="stroke:#000000;stroke-width:0.8;" x="99" xlink:href="#mf0e61e0994" y="471.653385"/>
      </g>
     </g>
     <g id="text_9">
      <!-- 0.4 -->
      <g transform="translate(76.096875 475.452604)scale(0.1 -0.1)">
       <use xlink:href="#DejaVuSans-48"/>
       <use x="63.623047" xlink:href="#DejaVuSans-46"/>
       <use x="95.410156" xlink:href="#DejaVuSans-52"/>
      </g>
     </g>
    </g>
    <g id="ytick_4">
     <g id="line2d_25">
      <g>
       <use style="stroke:#000000;stroke-width:0.8;" x="99" xlink:href="#mf0e61e0994" y="355.040078"/>
      </g>
     </g>
     <g id="text_10">
      <!-- 0.6 -->
      <g transform="translate(76.096875 358.839297)scale(0.1 -0.1)">
       <use xlink:href="#DejaVuSans-48"/>
       <use x="63.623047" xlink:href="#DejaVuSans-46"/>
       <use x="95.410156" xlink:href="#DejaVuSans-54"/>
      </g>
     </g>
    </g>
    <g id="ytick_5">
     <g id="line2d_26">
      <g>
       <use style="stroke:#000000;stroke-width:0.8;" x="99" xlink:href="#mf0e61e0994" y="238.426771"/>
      </g>
     </g>
     <g id="text_11">
      <!-- 0.8 -->
      <g transform="translate(76.096875 242.225989)scale(0.1 -0.1)">
       <use xlink:href="#DejaVuSans-48"/>
       <use x="63.623047" xlink:href="#DejaVuSans-46"/>
       <use x="95.410156" xlink:href="#DejaVuSans-56"/>
      </g>
     </g>
    </g>
    <g id="ytick_6">
     <g id="line2d_27">
      <g>
       <use style="stroke:#000000;stroke-width:0.8;" x="99" xlink:href="#mf0e61e0994" y="121.813463"/>
      </g>
     </g>
     <g id="text_12">
      <!-- 1.0 -->
      <g transform="translate(76.096875 125.612682)scale(0.1 -0.1)">
       <use xlink:href="#DejaVuSans-49"/>
       <use x="63.623047" xlink:href="#DejaVuSans-46"/>
       <use x="95.410156" xlink:href="#DejaVuSans-48"/>
      </g>
     </g>
    </g>
    <g id="ytick_7">
     <g id="line2d_28">
      <path clip-path="url(#pb26b22dfcc)" d="M 99 631.996683 
L 685.852683 631.996683 
" style="fill:none;stroke:#b0b0b0;stroke-linecap:square;stroke-opacity:0.3;stroke-width:0.8;"/>
     </g>
     <g id="line2d_29">
      <defs>
       <path d="M 0 0 
L -2 0 
" id="m63452ee9f6" style="stroke:#000000;stroke-width:0.6;"/>
      </defs>
      <g>
       <use style="stroke:#000000;stroke-width:0.6;" x="99" xlink:href="#m63452ee9f6" y="631.996683"/>
      </g>
     </g>
    </g>
    <g id="ytick_8">
     <g id="line2d_30">
      <path clip-path="url(#pb26b22dfcc)" d="M 99 559.113366 
L 685.852683 559.113366 
" style="fill:none;stroke:#b0b0b0;stroke-linecap:square;stroke-opacity:0.3;stroke-width:0.8;"/>
     </g>
     <g id="line2d_31">
      <g>
       <use style="stroke:#000000;stroke-width:0.6;" x="99" xlink:href="#m63452ee9f6" y="559.113366"/>
      </g>
     </g>
    </g>
    <g id="ytick_9">
     <g id="line2d_32">
      <path clip-path="url(#pb26b22dfcc)" d="M 99 486.230049 
L 685.852683 486.230049 
" style="fill:none;stroke:#b0b0b0;stroke-linecap:square;stroke-opacity:0.3;stroke-width:0.8;"/>
     </g>
     <g id="line2d_33">
      <g>
       <use style="stroke:#000000;stroke-width:0.6;" x="99" xlink:href="#m63452ee9f6" y="486.230049"/>
      </g>
     </g>
    </g>
    <g id="ytick_10">
     <g id="line2d_34">
      <path clip-path="url(#pb26b22dfcc)" d="M 99 413.346732 
L 685.852683 413.346732 
" style="fill:none;stroke:#b0b0b0;stroke-linecap:square;stroke-opacity:0.3;stroke-width:0.8;"/>
     </g>
     <g id="line2d_35">
      <g>
       <use style="stroke:#000000;stroke-width:0.6;" x="99" xlink:href="#m63452ee9f6" y="413.346732"/>
      </g>
     </g>
    </g>
    <g id="ytick_11">
     <g id="line2d_36">
      <path clip-path="url(#pb26b22dfcc)" d="M 99 340.463415 
L 685.852683 340.463415 
" style="fill:none;stroke:#b0b0b0;stroke-linecap:square;stroke-opacity:0.3;stroke-width:0.8;"/>
     </g>
     <g id="line2d_37">
      <g>
       <use style="stroke:#000000;stroke-width:0.6;" x="99" xlink:href="#m63452ee9f6" y="340.463415"/>
      </g>
     </g>
    </g>
    <g id="ytick_12">
     <g id="line2d_38">
      <path clip-path="url(#pb26b22dfcc)" d="M 99 267.580098 
L 685.852683 267.580098 
" style="fill:none;stroke:#b0b0b0;stroke-linecap:square;stroke-opacity:0.3;stroke-width:0.8;"/>
     </g>
     <g id="line2d_39">
      <g>
       <use style="stroke:#000000;stroke-width:0.6;" x="99" xlink:href="#m63452ee9f6" y="267.580098"/>
      </g>
     </g>
    </g>
    <g id="ytick_13">
     <g id="line2d_40">
      <path clip-path="url(#pb26b22dfcc)" d="M 99 194.69678 
L 685.852683 194.69678 
" style="fill:none;stroke:#b0b0b0;stroke-linecap:square;stroke-opacity:0.3;stroke-width:0.8;"/>
     </g>
     <g id="line2d_41">
      <g>
       <use style="stroke:#000000;stroke-width:0.6;" x="99" xlink:href="#m63452ee9f6" y="194.69678"/>
      </g>
     </g>
    </g>
   </g>
   <g id="patch_3">
    <path d="M 99 704.88 
L 99 121.813463 
" style="fill:none;stroke:#000000;stroke-linecap:square;stroke-linejoin:miter;stroke-width:0.8;"/>
   </g>
   <g id="patch_4">
    <path d="M 685.852683 704.88 
L 685.852683 121.813463 
" style="fill:none;stroke:#000000;stroke-linecap:square;stroke-linejoin:miter;stroke-width:0.8;"/>
   </g>
   <g id="patch_5">
    <path d="M 99 704.88 
L 685.852683 704.88 
" style="fill:none;stroke:#000000;stroke-linecap:square;stroke-linejoin:miter;stroke-width:0.8;"/>
   </g>
   <g id="patch_6">
    <path d="M 99 121.813463 
L 685.852683 121.813463 
" style="fill:none;stroke:#000000;stroke-linecap:square;stroke-linejoin:miter;stroke-width:0.8;"/>
   </g>
  </g>
  <g id="axes_4">
   <g id="LineCollection_2">
    <path clip-path="url(#p3f7e0c8f7c)" d="M 700.823415 704.88 
L 700.823415 121.813463 
" style="fill:none;stroke:#000000;stroke-width:1.5;"/>
   </g>
   <g id="line2d_42">
    <defs>
     <path d="M 10 0 
L -10 -0 
" id="m61a308abe2" style="stroke:#1f77b4;"/>
    </defs>
    <g clip-path="url(#p3f7e0c8f7c)">
     <use style="fill:#1f77b4;stroke:#1f77b4;" x="700.823415" xlink:href="#m61a308abe2" y="690.373419"/>
     <use style="fill:#1f77b4;stroke:#1f77b4;" x="700.823415" xlink:href="#m61a308abe2" y="422.976885"/>
     <use style="fill:#1f77b4;stroke:#1f77b4;" x="700.823415" xlink:href="#m61a308abe2" y="227.917939"/>
     <use style="fill:#1f77b4;stroke:#1f77b4;" x="700.823415" xlink:href="#m61a308abe2" y="194.849487"/>
     <use style="fill:#1f77b4;stroke:#1f77b4;" x="700.823415" xlink:href="#m61a308abe2" y="232.204571"/>
     <use style="fill:#1f77b4;stroke:#1f77b4;" x="700.823415" xlink:href="#m61a308abe2" y="177.758806"/>
     <use style="fill:#1f77b4;stroke:#1f77b4;" x="700.823415" xlink:href="#m61a308abe2" y="217.404283"/>
     <use style="fill:#1f77b4;stroke:#1f77b4;" x="700.823415" xlink:href="#m61a308abe2" y="249.12649"/>
     <use style="fill:#1f77b4;stroke:#1f77b4;" x="700.823415" xlink:href="#m61a308abe2" y="554.785898"/>
     <use style="fill:#1f77b4;stroke:#1f77b4;" x="700.823415" xlink:href="#m61a308abe2" y="334.598245"/>
     <use style="fill:#1f77b4;stroke:#1f77b4;" x="700.823415" xlink:href="#m61a308abe2" y="260.319784"/>
     <use style="fill:#1f77b4;stroke:#1f77b4;" x="700.823415" xlink:href="#m61a308abe2" y="533.793288"/>
     <use style="fill:#1f77b4;stroke:#1f77b4;" x="700.823415" xlink:href="#m61a308abe2" y="470.386566"/>
     <use style="fill:#1f77b4;stroke:#1f77b4;" x="700.823415" xlink:href="#m61a308abe2" y="595.774684"/>
     <use style="fill:#1f77b4;stroke:#1f77b4;" x="700.823415" xlink:href="#m61a308abe2" y="321.552138"/>
     <use style="fill:#1f77b4;stroke:#1f77b4;" x="700.823415" xlink:href="#m61a308abe2" y="632.740798"/>
     <use style="fill:#1f77b4;stroke:#1f77b4;" x="700.823415" xlink:href="#m61a308abe2" y="379.802644"/>
     <use style="fill:#1f77b4;stroke:#1f77b4;" x="700.823415" xlink:href="#m61a308abe2" y="170.14863"/>
     <use style="fill:#1f77b4;stroke:#1f77b4;" x="700.823415" xlink:href="#m61a308abe2" y="411.655836"/>
     <use style="fill:#1f77b4;stroke:#1f77b4;" x="700.823415" xlink:href="#m61a308abe2" y="280.647021"/>
     <use style="fill:#1f77b4;stroke:#1f77b4;" x="700.823415" xlink:href="#m61a308abe2" y="568.526492"/>
     <use style="fill:#1f77b4;stroke:#1f77b4;" x="700.823415" xlink:href="#m61a308abe2" y="619.511663"/>
     <use style="fill:#1f77b4;stroke:#1f77b4;" x="700.823415" xlink:href="#m61a308abe2" y="463.777202"/>
     <use style="fill:#1f77b4;stroke:#1f77b4;" x="700.823415" xlink:href="#m61a308abe2" y="669.577239"/>
     <use style="fill:#1f77b4;stroke:#1f77b4;" x="700.823415" xlink:href="#m61a308abe2" y="437.722505"/>
     <use style="fill:#1f77b4;stroke:#1f77b4;" x="700.823415" xlink:href="#m61a308abe2" y="311.570975"/>
     <use style="fill:#1f77b4;stroke:#1f77b4;" x="700.823415" xlink:href="#m61a308abe2" y="323.768923"/>
     <use style="fill:#1f77b4;stroke:#1f77b4;" x="700.823415" xlink:href="#m61a308abe2" y="650.518343"/>
     <use style="fill:#1f77b4;stroke:#1f77b4;" x="700.823415" xlink:href="#m61a308abe2" y="273.193652"/>
     <use style="fill:#1f77b4;stroke:#1f77b4;" x="700.823415" xlink:href="#m61a308abe2" y="491.658785"/>
     <use style="fill:#1f77b4;stroke:#1f77b4;" x="700.823415" xlink:href="#m61a308abe2" y="146.105308"/>
     <use style="fill:#1f77b4;stroke:#1f77b4;" x="700.823415" xlink:href="#m61a308abe2" y="346.054241"/>
     <use style="fill:#1f77b4;stroke:#1f77b4;" x="700.823415" xlink:href="#m61a308abe2" y="684.079766"/>
     <use style="fill:#1f77b4;stroke:#1f77b4;" x="700.823415" xlink:href="#m61a308abe2" y="136.843159"/>
     <use style="fill:#1f77b4;stroke:#1f77b4;" x="700.823415" xlink:href="#m61a308abe2" y="352.109095"/>
     <use style="fill:#1f77b4;stroke:#1f77b4;" x="700.823415" xlink:href="#m61a308abe2" y="251.313838"/>
     <use style="fill:#1f77b4;stroke:#1f77b4;" x="700.823415" xlink:href="#m61a308abe2" y="696.86624"/>
     <use style="fill:#1f77b4;stroke:#1f77b4;" x="700.823415" xlink:href="#m61a308abe2" y="129.212652"/>
     <use style="fill:#1f77b4;stroke:#1f77b4;" x="700.823415" xlink:href="#m61a308abe2" y="394.968817"/>
     <use style="fill:#1f77b4;stroke:#1f77b4;" x="700.823415" xlink:href="#m61a308abe2" y="484.026296"/>
     <use style="fill:#1f77b4;stroke:#1f77b4;" x="700.823415" xlink:href="#m61a308abe2" y="446.526603"/>
     <use style="fill:#1f77b4;stroke:#1f77b4;" x="700.823415" xlink:href="#m61a308abe2" y="627.451876"/>
     <use style="fill:#1f77b4;stroke:#1f77b4;" x="700.823415" xlink:href="#m61a308abe2" y="497.375853"/>
     <use style="fill:#1f77b4;stroke:#1f77b4;" x="700.823415" xlink:href="#m61a308abe2" y="560.169255"/>
     <use style="fill:#1f77b4;stroke:#1f77b4;" x="700.823415" xlink:href="#m61a308abe2" y="396.739923"/>
     <use style="fill:#1f77b4;stroke:#1f77b4;" x="700.823415" xlink:href="#m61a308abe2" y="548.450514"/>
     <use style="fill:#1f77b4;stroke:#1f77b4;" x="700.823415" xlink:href="#m61a308abe2" y="187.354831"/>
     <use style="fill:#1f77b4;stroke:#1f77b4;" x="700.823415" xlink:href="#m61a308abe2" y="166.36349"/>
     <use style="fill:#1f77b4;stroke:#1f77b4;" x="700.823415" xlink:href="#m61a308abe2" y="458.493458"/>
     <use style="fill:#1f77b4;stroke:#1f77b4;" x="700.823415" xlink:href="#m61a308abe2" y="295.238997"/>
     <use style="fill:#1f77b4;stroke:#1f77b4;" x="700.823415" xlink:href="#m61a308abe2" y="153.531604"/>
     <use style="fill:#1f77b4;stroke:#1f77b4;" x="700.823415" xlink:href="#m61a308abe2" y="369.326592"/>
     <use style="fill:#1f77b4;stroke:#1f77b4;" x="700.823415" xlink:href="#m61a308abe2" y="286.029014"/>
     <use style="fill:#1f77b4;stroke:#1f77b4;" x="700.823415" xlink:href="#m61a308abe2" y="662.284983"/>
     <use style="fill:#1f77b4;stroke:#1f77b4;" x="700.823415" xlink:href="#m61a308abe2" y="517.413368"/>
     <use style="fill:#1f77b4;stroke:#1f77b4;" x="700.823415" xlink:href="#m61a308abe2" y="646.034636"/>
     <use style="fill:#1f77b4;stroke:#1f77b4;" x="700.823415" xlink:href="#m61a308abe2" y="525.868384"/>
     <use style="fill:#1f77b4;stroke:#1f77b4;" x="700.823415" xlink:href="#m61a308abe2" y="509.860778"/>
     <use style="fill:#1f77b4;stroke:#1f77b4;" x="700.823415" xlink:href="#m61a308abe2" y="584.573935"/>
     <use style="fill:#1f77b4;stroke:#1f77b4;" x="700.823415" xlink:href="#m61a308abe2" y="413.993563"/>
     <use style="fill:#1f77b4;stroke:#1f77b4;" x="700.823415" xlink:href="#m61a308abe2" y="361.982905"/>
     <use style="fill:#1f77b4;stroke:#1f77b4;" x="700.823415" xlink:href="#m61a308abe2" y="608.267975"/>
     <use style="fill:#1f77b4;stroke:#1f77b4;" x="700.823415" xlink:href="#m61a308abe2" y="204.327663"/>
     <use style="fill:#1f77b4;stroke:#1f77b4;" x="700.823415" xlink:href="#m61a308abe2" y="593.058595"/>
    </g>
   </g>
  </g>
 </g>
 <defs>
  <clipPath id="p8d323d53a2">
   <rect height="11.899317" width="586.852683" x="99" y="95.04"/>
  </clipPath>
  <clipPath id="pb26b22dfcc">
   <rect height="583.066537" width="586.852683" x="99" y="121.813463"/>
  </clipPath>
  <clipPath id="p3f7e0c8f7c">
   <rect height="583.066537" width="11.976585" x="700.823415" y="121.813463"/>
  </clipPath>
 </defs>
</svg>
