<?xml version="1.0" encoding="utf-8" standalone="no"?>
<!DOCTYPE svg PUBLIC "-//W3C//DTD SVG 1.1//EN"
  "http://www.w3.org/Graphics/SVG/1.1/DTD/svg11.dtd">
<!-- Created with matplotlib (https://matplotlib.org/) -->
<svg height="792pt" version="1.1" viewBox="0 0 792 792" width="792pt" xmlns="http://www.w3.org/2000/svg" xmlns:xlink="http://www.w3.org/1999/xlink">
 <defs>
  <style type="text/css">
*{stroke-linecap:butt;stroke-linejoin:round;}
  </style>
 </defs>
 <g id="figure_1">
  <g id="patch_1">
   <path d="M 0 792 
L 792 792 
L 792 0 
L 0 0 
z
" style="fill:#ffffff;"/>
  </g>
  <g id="axes_1">
   <g id="LineCollection_1">
    <path clip-path="url(#pbe31b0567e)" d="M 99 106.939317 
L 685.852683 106.939317 
" style="fill:none;stroke:#000000;stroke-width:1.5;"/>
   </g>
   <g id="line2d_1">
    <defs>
     <path d="M 0 10 
L 0 -10 
" id="mfdf4c93f35" style="stroke:#1f77b4;"/>
    </defs>
    <g clip-path="url(#pbe31b0567e)">
     <use style="fill:#1f77b4;stroke:#1f77b4;" x="175.33603" xlink:href="#mfdf4c93f35" y="106.939317"/>
     <use style="fill:#1f77b4;stroke:#1f77b4;" x="227.444621" xlink:href="#mfdf4c93f35" y="106.939317"/>
     <use style="fill:#1f77b4;stroke:#1f77b4;" x="284.003827" xlink:href="#mfdf4c93f35" y="106.939317"/>
     <use style="fill:#1f77b4;stroke:#1f77b4;" x="534.272864" xlink:href="#mfdf4c93f35" y="106.939317"/>
     <use style="fill:#1f77b4;stroke:#1f77b4;" x="488.499713" xlink:href="#mfdf4c93f35" y="106.939317"/>
     <use style="fill:#1f77b4;stroke:#1f77b4;" x="134.717206" xlink:href="#mfdf4c93f35" y="106.939317"/>
     <use style="fill:#1f77b4;stroke:#1f77b4;" x="556.245294" xlink:href="#mfdf4c93f35" y="106.939317"/>
     <use style="fill:#1f77b4;stroke:#1f77b4;" x="119.244111" xlink:href="#mfdf4c93f35" y="106.939317"/>
     <use style="fill:#1f77b4;stroke:#1f77b4;" x="263.847864" xlink:href="#mfdf4c93f35" y="106.939317"/>
     <use style="fill:#1f77b4;stroke:#1f77b4;" x="194.026542" xlink:href="#mfdf4c93f35" y="106.939317"/>
     <use style="fill:#1f77b4;stroke:#1f77b4;" x="514.473233" xlink:href="#mfdf4c93f35" y="106.939317"/>
     <use style="fill:#1f77b4;stroke:#1f77b4;" x="587.229401" xlink:href="#mfdf4c93f35" y="106.939317"/>
     <use style="fill:#1f77b4;stroke:#1f77b4;" x="274.178797" xlink:href="#mfdf4c93f35" y="106.939317"/>
     <use style="fill:#1f77b4;stroke:#1f77b4;" x="241.915354" xlink:href="#mfdf4c93f35" y="106.939317"/>
     <use style="fill:#1f77b4;stroke:#1f77b4;" x="121.193437" xlink:href="#mfdf4c93f35" y="106.939317"/>
     <use style="fill:#1f77b4;stroke:#1f77b4;" x="635.013993" xlink:href="#mfdf4c93f35" y="106.939317"/>
     <use style="fill:#1f77b4;stroke:#1f77b4;" x="565.175085" xlink:href="#mfdf4c93f35" y="106.939317"/>
     <use style="fill:#1f77b4;stroke:#1f77b4;" x="130.736421" xlink:href="#mfdf4c93f35" y="106.939317"/>
     <use style="fill:#1f77b4;stroke:#1f77b4;" x="349.546386" xlink:href="#mfdf4c93f35" y="106.939317"/>
     <use style="fill:#1f77b4;stroke:#1f77b4;" x="447.002763" xlink:href="#mfdf4c93f35" y="106.939317"/>
     <use style="fill:#1f77b4;stroke:#1f77b4;" x="528.57651" xlink:href="#mfdf4c93f35" y="106.939317"/>
     <use style="fill:#1f77b4;stroke:#1f77b4;" x="324.429838" xlink:href="#mfdf4c93f35" y="106.939317"/>
     <use style="fill:#1f77b4;stroke:#1f77b4;" x="617.852419" xlink:href="#mfdf4c93f35" y="106.939317"/>
     <use style="fill:#1f77b4;stroke:#1f77b4;" x="673.675183" xlink:href="#mfdf4c93f35" y="106.939317"/>
     <use style="fill:#1f77b4;stroke:#1f77b4;" x="494.54425" xlink:href="#mfdf4c93f35" y="106.939317"/>
     <use style="fill:#1f77b4;stroke:#1f77b4;" x="613.311112" xlink:href="#mfdf4c93f35" y="106.939317"/>
     <use style="fill:#1f77b4;stroke:#1f77b4;" x="373.677869" xlink:href="#mfdf4c93f35" y="106.939317"/>
     <use style="fill:#1f77b4;stroke:#1f77b4;" x="174.105298" xlink:href="#mfdf4c93f35" y="106.939317"/>
     <use style="fill:#1f77b4;stroke:#1f77b4;" x="397.540223" xlink:href="#mfdf4c93f35" y="106.939317"/>
     <use style="fill:#1f77b4;stroke:#1f77b4;" x="402.362028" xlink:href="#mfdf4c93f35" y="106.939317"/>
     <use style="fill:#1f77b4;stroke:#1f77b4;" x="448.279292" xlink:href="#mfdf4c93f35" y="106.939317"/>
     <use style="fill:#1f77b4;stroke:#1f77b4;" x="186.231002" xlink:href="#mfdf4c93f35" y="106.939317"/>
     <use style="fill:#1f77b4;stroke:#1f77b4;" x="117.94732" xlink:href="#mfdf4c93f35" y="106.939317"/>
     <use style="fill:#1f77b4;stroke:#1f77b4;" x="610.896466" xlink:href="#mfdf4c93f35" y="106.939317"/>
     <use style="fill:#1f77b4;stroke:#1f77b4;" x="460.704654" xlink:href="#mfdf4c93f35" y="106.939317"/>
     <use style="fill:#1f77b4;stroke:#1f77b4;" x="347.480623" xlink:href="#mfdf4c93f35" y="106.939317"/>
     <use style="fill:#1f77b4;stroke:#1f77b4;" x="464.721799" xlink:href="#mfdf4c93f35" y="106.939317"/>
     <use style="fill:#1f77b4;stroke:#1f77b4;" x="277.561525" xlink:href="#mfdf4c93f35" y="106.939317"/>
     <use style="fill:#1f77b4;stroke:#1f77b4;" x="127.488975" xlink:href="#mfdf4c93f35" y="106.939317"/>
     <use style="fill:#1f77b4;stroke:#1f77b4;" x="190.778868" xlink:href="#mfdf4c93f35" y="106.939317"/>
     <use style="fill:#1f77b4;stroke:#1f77b4;" x="588.785798" xlink:href="#mfdf4c93f35" y="106.939317"/>
     <use style="fill:#1f77b4;stroke:#1f77b4;" x="369.989126" xlink:href="#mfdf4c93f35" y="106.939317"/>
     <use style="fill:#1f77b4;stroke:#1f77b4;" x="304.823275" xlink:href="#mfdf4c93f35" y="106.939317"/>
     <use style="fill:#1f77b4;stroke:#1f77b4;" x="121.033819" xlink:href="#mfdf4c93f35" y="106.939317"/>
     <use style="fill:#1f77b4;stroke:#1f77b4;" x="510.600937" xlink:href="#mfdf4c93f35" y="106.939317"/>
     <use style="fill:#1f77b4;stroke:#1f77b4;" x="569.400146" xlink:href="#mfdf4c93f35" y="106.939317"/>
     <use style="fill:#1f77b4;stroke:#1f77b4;" x="385.708264" xlink:href="#mfdf4c93f35" y="106.939317"/>
     <use style="fill:#1f77b4;stroke:#1f77b4;" x="629.909486" xlink:href="#mfdf4c93f35" y="106.939317"/>
     <use style="fill:#1f77b4;stroke:#1f77b4;" x="677.244245" xlink:href="#mfdf4c93f35" y="106.939317"/>
     <use style="fill:#1f77b4;stroke:#1f77b4;" x="165.159679" xlink:href="#mfdf4c93f35" y="106.939317"/>
     <use style="fill:#1f77b4;stroke:#1f77b4;" x="388.210375" xlink:href="#mfdf4c93f35" y="106.939317"/>
     <use style="fill:#1f77b4;stroke:#1f77b4;" x="540.35056" xlink:href="#mfdf4c93f35" y="106.939317"/>
     <use style="fill:#1f77b4;stroke:#1f77b4;" x="429.591404" xlink:href="#mfdf4c93f35" y="106.939317"/>
     <use style="fill:#1f77b4;stroke:#1f77b4;" x="643.507419" xlink:href="#mfdf4c93f35" y="106.939317"/>
     <use style="fill:#1f77b4;stroke:#1f77b4;" x="219.542876" xlink:href="#mfdf4c93f35" y="106.939317"/>
     <use style="fill:#1f77b4;stroke:#1f77b4;" x="322.772474" xlink:href="#mfdf4c93f35" y="106.939317"/>
     <use style="fill:#1f77b4;stroke:#1f77b4;" x="529.849996" xlink:href="#mfdf4c93f35" y="106.939317"/>
     <use style="fill:#1f77b4;stroke:#1f77b4;" x="246.772059" xlink:href="#mfdf4c93f35" y="106.939317"/>
     <use style="fill:#1f77b4;stroke:#1f77b4;" x="290.650355" xlink:href="#mfdf4c93f35" y="106.939317"/>
     <use style="fill:#1f77b4;stroke:#1f77b4;" x="604.469293" xlink:href="#mfdf4c93f35" y="106.939317"/>
     <use style="fill:#1f77b4;stroke:#1f77b4;" x="459.9901" xlink:href="#mfdf4c93f35" y="106.939317"/>
     <use style="fill:#1f77b4;stroke:#1f77b4;" x="667.35669" xlink:href="#mfdf4c93f35" y="106.939317"/>
     <use style="fill:#1f77b4;stroke:#1f77b4;" x="481.410315" xlink:href="#mfdf4c93f35" y="106.939317"/>
     <use style="fill:#1f77b4;stroke:#1f77b4;" x="268.642875" xlink:href="#mfdf4c93f35" y="106.939317"/>
    </g>
   </g>
  </g>
  <g id="axes_2"/>
  <g id="axes_3">
   <g id="patch_2">
    <path d="M 99 704.88 
L 685.852683 704.88 
L 685.852683 121.813463 
L 99 121.813463 
z
" style="fill:#ffffff;"/>
   </g>
   <g id="PathCollection_1">
    <defs>
     <path d="M 0 3 
C 0.795609 3 1.55874 2.683901 2.12132 2.12132 
C 2.683901 1.55874 3 0.795609 3 0 
C 3 -0.795609 2.683901 -1.55874 2.12132 -2.12132 
C 1.55874 -2.683901 0.795609 -3 0 -3 
C -0.795609 -3 -1.55874 -2.683901 -2.12132 -2.12132 
C -2.683901 -1.55874 -3 -0.795609 -3 0 
C -3 0.795609 -2.683901 1.55874 -2.12132 2.12132 
C -1.55874 2.683901 -0.795609 3 0 3 
z
" id="mc1f7b7c013" style="stroke:#1f77b4;"/>
    </defs>
    <g clip-path="url(#pd37a7e6a65)">
     <use style="fill:#1f77b4;stroke:#1f77b4;" x="175.33603" xlink:href="#mc1f7b7c013" y="297.294074"/>
     <use style="fill:#1f77b4;stroke:#1f77b4;" x="227.444621" xlink:href="#mc1f7b7c013" y="344.621251"/>
     <use style="fill:#1f77b4;stroke:#1f77b4;" x="284.003827" xlink:href="#mc1f7b7c013" y="679.116042"/>
     <use style="fill:#1f77b4;stroke:#1f77b4;" x="534.272864" xlink:href="#mc1f7b7c013" y="195.91833"/>
     <use style="fill:#1f77b4;stroke:#1f77b4;" x="488.499713" xlink:href="#mc1f7b7c013" y="494.759003"/>
     <use style="fill:#1f77b4;stroke:#1f77b4;" x="134.717206" xlink:href="#mc1f7b7c013" y="569.376258"/>
     <use style="fill:#1f77b4;stroke:#1f77b4;" x="556.245294" xlink:href="#mc1f7b7c013" y="376.356768"/>
     <use style="fill:#1f77b4;stroke:#1f77b4;" x="119.244111" xlink:href="#mc1f7b7c013" y="192.834481"/>
     <use style="fill:#1f77b4;stroke:#1f77b4;" x="263.847864" xlink:href="#mc1f7b7c013" y="378.72692"/>
     <use style="fill:#1f77b4;stroke:#1f77b4;" x="194.026542" xlink:href="#mc1f7b7c013" y="512.191902"/>
     <use style="fill:#1f77b4;stroke:#1f77b4;" x="514.473233" xlink:href="#mc1f7b7c013" y="136.614273"/>
     <use style="fill:#1f77b4;stroke:#1f77b4;" x="587.229401" xlink:href="#mc1f7b7c013" y="210.786144"/>
     <use style="fill:#1f77b4;stroke:#1f77b4;" x="274.178797" xlink:href="#mc1f7b7c013" y="578.1321"/>
     <use style="fill:#1f77b4;stroke:#1f77b4;" x="241.915354" xlink:href="#mc1f7b7c013" y="415.104024"/>
     <use style="fill:#1f77b4;stroke:#1f77b4;" x="121.193437" xlink:href="#mc1f7b7c013" y="480.706523"/>
     <use style="fill:#1f77b4;stroke:#1f77b4;" x="635.013993" xlink:href="#mc1f7b7c013" y="565.066288"/>
     <use style="fill:#1f77b4;stroke:#1f77b4;" x="565.175085" xlink:href="#mc1f7b7c013" y="436.527316"/>
     <use style="fill:#1f77b4;stroke:#1f77b4;" x="130.736421" xlink:href="#mc1f7b7c013" y="508.494792"/>
     <use style="fill:#1f77b4;stroke:#1f77b4;" x="349.546386" xlink:href="#mc1f7b7c013" y="326.936181"/>
     <use style="fill:#1f77b4;stroke:#1f77b4;" x="447.002763" xlink:href="#mc1f7b7c013" y="590.765483"/>
     <use style="fill:#1f77b4;stroke:#1f77b4;" x="528.57651" xlink:href="#mc1f7b7c013" y="270.001789"/>
     <use style="fill:#1f77b4;stroke:#1f77b4;" x="324.429838" xlink:href="#mc1f7b7c013" y="532.116555"/>
     <use style="fill:#1f77b4;stroke:#1f77b4;" x="617.852419" xlink:href="#mc1f7b7c013" y="525.257227"/>
     <use style="fill:#1f77b4;stroke:#1f77b4;" x="673.675183" xlink:href="#mc1f7b7c013" y="203.80796"/>
     <use style="fill:#1f77b4;stroke:#1f77b4;" x="494.54425" xlink:href="#mc1f7b7c013" y="389.70304"/>
     <use style="fill:#1f77b4;stroke:#1f77b4;" x="613.311112" xlink:href="#mc1f7b7c013" y="692.390418"/>
     <use style="fill:#1f77b4;stroke:#1f77b4;" x="373.677869" xlink:href="#mc1f7b7c013" y="206.907587"/>
     <use style="fill:#1f77b4;stroke:#1f77b4;" x="174.105298" xlink:href="#mc1f7b7c013" y="634.403318"/>
     <use style="fill:#1f77b4;stroke:#1f77b4;" x="397.540223" xlink:href="#mc1f7b7c013" y="385.371784"/>
     <use style="fill:#1f77b4;stroke:#1f77b4;" x="402.362028" xlink:href="#mc1f7b7c013" y="311.009915"/>
     <use style="fill:#1f77b4;stroke:#1f77b4;" x="448.279292" xlink:href="#mc1f7b7c013" y="461.914798"/>
     <use style="fill:#1f77b4;stroke:#1f77b4;" x="186.231002" xlink:href="#mc1f7b7c013" y="166.540107"/>
     <use style="fill:#1f77b4;stroke:#1f77b4;" x="117.94732" xlink:href="#mc1f7b7c013" y="392.711509"/>
     <use style="fill:#1f77b4;stroke:#1f77b4;" x="610.896466" xlink:href="#mc1f7b7c013" y="679.351054"/>
     <use style="fill:#1f77b4;stroke:#1f77b4;" x="460.704654" xlink:href="#mc1f7b7c013" y="214.978977"/>
     <use style="fill:#1f77b4;stroke:#1f77b4;" x="347.480623" xlink:href="#mc1f7b7c013" y="428.983188"/>
     <use style="fill:#1f77b4;stroke:#1f77b4;" x="464.721799" xlink:href="#mc1f7b7c013" y="495.003285"/>
     <use style="fill:#1f77b4;stroke:#1f77b4;" x="277.561525" xlink:href="#mc1f7b7c013" y="326.773674"/>
     <use style="fill:#1f77b4;stroke:#1f77b4;" x="127.488975" xlink:href="#mc1f7b7c013" y="703.623462"/>
     <use style="fill:#1f77b4;stroke:#1f77b4;" x="190.778868" xlink:href="#mc1f7b7c013" y="249.950077"/>
     <use style="fill:#1f77b4;stroke:#1f77b4;" x="588.785798" xlink:href="#mc1f7b7c013" y="314.369047"/>
     <use style="fill:#1f77b4;stroke:#1f77b4;" x="369.989126" xlink:href="#mc1f7b7c013" y="595.638233"/>
     <use style="fill:#1f77b4;stroke:#1f77b4;" x="304.823275" xlink:href="#mc1f7b7c013" y="138.096578"/>
     <use style="fill:#1f77b4;stroke:#1f77b4;" x="121.033819" xlink:href="#mc1f7b7c013" y="276.027207"/>
     <use style="fill:#1f77b4;stroke:#1f77b4;" x="510.600937" xlink:href="#mc1f7b7c013" y="426.258829"/>
     <use style="fill:#1f77b4;stroke:#1f77b4;" x="569.400146" xlink:href="#mc1f7b7c013" y="546.693812"/>
     <use style="fill:#1f77b4;stroke:#1f77b4;" x="385.708264" xlink:href="#mc1f7b7c013" y="135.96129"/>
     <use style="fill:#1f77b4;stroke:#1f77b4;" x="629.909486" xlink:href="#mc1f7b7c013" y="478.213604"/>
     <use style="fill:#1f77b4;stroke:#1f77b4;" x="677.244245" xlink:href="#mc1f7b7c013" y="191.453934"/>
     <use style="fill:#1f77b4;stroke:#1f77b4;" x="165.159679" xlink:href="#mc1f7b7c013" y="197.318166"/>
     <use style="fill:#1f77b4;stroke:#1f77b4;" x="388.210375" xlink:href="#mc1f7b7c013" y="375.55848"/>
     <use style="fill:#1f77b4;stroke:#1f77b4;" x="540.35056" xlink:href="#mc1f7b7c013" y="134.068824"/>
     <use style="fill:#1f77b4;stroke:#1f77b4;" x="429.591404" xlink:href="#mc1f7b7c013" y="123.638125"/>
     <use style="fill:#1f77b4;stroke:#1f77b4;" x="643.507419" xlink:href="#mc1f7b7c013" y="364.119861"/>
     <use style="fill:#1f77b4;stroke:#1f77b4;" x="219.542876" xlink:href="#mc1f7b7c013" y="589.930001"/>
     <use style="fill:#1f77b4;stroke:#1f77b4;" x="322.772474" xlink:href="#mc1f7b7c013" y="671.417001"/>
     <use style="fill:#1f77b4;stroke:#1f77b4;" x="529.849996" xlink:href="#mc1f7b7c013" y="657.57014"/>
     <use style="fill:#1f77b4;stroke:#1f77b4;" x="246.772059" xlink:href="#mc1f7b7c013" y="456.625928"/>
     <use style="fill:#1f77b4;stroke:#1f77b4;" x="290.650355" xlink:href="#mc1f7b7c013" y="544.147999"/>
     <use style="fill:#1f77b4;stroke:#1f77b4;" x="604.469293" xlink:href="#mc1f7b7c013" y="564.288036"/>
     <use style="fill:#1f77b4;stroke:#1f77b4;" x="459.9901" xlink:href="#mc1f7b7c013" y="658.386003"/>
     <use style="fill:#1f77b4;stroke:#1f77b4;" x="667.35669" xlink:href="#mc1f7b7c013" y="296.400389"/>
     <use style="fill:#1f77b4;stroke:#1f77b4;" x="481.410315" xlink:href="#mc1f7b7c013" y="563.277023"/>
     <use style="fill:#1f77b4;stroke:#1f77b4;" x="268.642875" xlink:href="#mc1f7b7c013" y="247.608666"/>
    </g>
   </g>
   <g id="matplotlib.axis_1">
    <g id="xtick_1">
     <g id="line2d_2">
      <defs>
       <path d="M 0 0 
L 0 3.5 
" id="m096428f42a" style="stroke:#000000;stroke-width:0.8;"/>
      </defs>
      <g>
       <use style="stroke:#000000;stroke-width:0.8;" x="99" xlink:href="#m096428f42a" y="704.88"/>
      </g>
     </g>
     <g id="text_1">
      <!-- 0.0 -->
      <defs>
       <path d="M 31.78125 66.40625 
Q 24.171875 66.40625 20.328125 58.90625 
Q 16.5 51.421875 16.5 36.375 
Q 16.5 21.390625 20.328125 13.890625 
Q 24.171875 6.390625 31.78125 6.390625 
Q 39.453125 6.390625 43.28125 13.890625 
Q 47.125 21.390625 47.125 36.375 
Q 47.125 51.421875 43.28125 58.90625 
Q 39.453125 66.40625 31.78125 66.40625 
z
M 31.78125 74.21875 
Q 44.046875 74.21875 50.515625 64.515625 
Q 56.984375 54.828125 56.984375 36.375 
Q 56.984375 17.96875 50.515625 8.265625 
Q 44.046875 -1.421875 31.78125 -1.421875 
Q 19.53125 -1.421875 13.0625 8.265625 
Q 6.59375 17.96875 6.59375 36.375 
Q 6.59375 54.828125 13.0625 64.515625 
Q 19.53125 74.21875 31.78125 74.21875 
z
" id="DejaVuSans-48"/>
       <path d="M 10.6875 12.40625 
L 21 12.40625 
L 21 0 
L 10.6875 0 
z
" id="DejaVuSans-46"/>
      </defs>
      <g transform="translate(91.048438 719.478438)scale(0.1 -0.1)">
       <use xlink:href="#DejaVuSans-48"/>
       <use x="63.623047" xlink:href="#DejaVuSans-46"/>
       <use x="95.410156" xlink:href="#DejaVuSans-48"/>
      </g>
     </g>
    </g>
    <g id="xtick_2">
     <g id="line2d_3">
      <g>
       <use style="stroke:#000000;stroke-width:0.8;" x="216.370537" xlink:href="#m096428f42a" y="704.88"/>
      </g>
     </g>
     <g id="text_2">
      <!-- 0.2 -->
      <defs>
       <path d="M 19.1875 8.296875 
L 53.609375 8.296875 
L 53.609375 0 
L 7.328125 0 
L 7.328125 8.296875 
Q 12.9375 14.109375 22.625 23.890625 
Q 32.328125 33.6875 34.8125 36.53125 
Q 39.546875 41.84375 41.421875 45.53125 
Q 43.3125 49.21875 43.3125 52.78125 
Q 43.3125 58.59375 39.234375 62.25 
Q 35.15625 65.921875 28.609375 65.921875 
Q 23.96875 65.921875 18.8125 64.3125 
Q 13.671875 62.703125 7.8125 59.421875 
L 7.8125 69.390625 
Q 13.765625 71.78125 18.9375 73 
Q 24.125 74.21875 28.421875 74.21875 
Q 39.75 74.21875 46.484375 68.546875 
Q 53.21875 62.890625 53.21875 53.421875 
Q 53.21875 48.921875 51.53125 44.890625 
Q 49.859375 40.875 45.40625 35.40625 
Q 44.1875 33.984375 37.640625 27.21875 
Q 31.109375 20.453125 19.1875 8.296875 
z
" id="DejaVuSans-50"/>
      </defs>
      <g transform="translate(208.418974 719.478438)scale(0.1 -0.1)">
       <use xlink:href="#DejaVuSans-48"/>
       <use x="63.623047" xlink:href="#DejaVuSans-46"/>
       <use x="95.410156" xlink:href="#DejaVuSans-50"/>
      </g>
     </g>
    </g>
    <g id="xtick_3">
     <g id="line2d_4">
      <g>
       <use style="stroke:#000000;stroke-width:0.8;" x="333.741073" xlink:href="#m096428f42a" y="704.88"/>
      </g>
     </g>
     <g id="text_3">
      <!-- 0.4 -->
      <defs>
       <path d="M 37.796875 64.3125 
L 12.890625 25.390625 
L 37.796875 25.390625 
z
M 35.203125 72.90625 
L 47.609375 72.90625 
L 47.609375 25.390625 
L 58.015625 25.390625 
L 58.015625 17.1875 
L 47.609375 17.1875 
L 47.609375 0 
L 37.796875 0 
L 37.796875 17.1875 
L 4.890625 17.1875 
L 4.890625 26.703125 
z
" id="DejaVuSans-52"/>
      </defs>
      <g transform="translate(325.789511 719.478438)scale(0.1 -0.1)">
       <use xlink:href="#DejaVuSans-48"/>
       <use x="63.623047" xlink:href="#DejaVuSans-46"/>
       <use x="95.410156" xlink:href="#DejaVuSans-52"/>
      </g>
     </g>
    </g>
    <g id="xtick_4">
     <g id="line2d_5">
      <g>
       <use style="stroke:#000000;stroke-width:0.8;" x="451.11161" xlink:href="#m096428f42a" y="704.88"/>
      </g>
     </g>
     <g id="text_4">
      <!-- 0.6 -->
      <defs>
       <path d="M 33.015625 40.375 
Q 26.375 40.375 22.484375 35.828125 
Q 18.609375 31.296875 18.609375 23.390625 
Q 18.609375 15.53125 22.484375 10.953125 
Q 26.375 6.390625 33.015625 6.390625 
Q 39.65625 6.390625 43.53125 10.953125 
Q 47.40625 15.53125 47.40625 23.390625 
Q 47.40625 31.296875 43.53125 35.828125 
Q 39.65625 40.375 33.015625 40.375 
z
M 52.59375 71.296875 
L 52.59375 62.3125 
Q 48.875 64.0625 45.09375 64.984375 
Q 41.3125 65.921875 37.59375 65.921875 
Q 27.828125 65.921875 22.671875 59.328125 
Q 17.53125 52.734375 16.796875 39.40625 
Q 19.671875 43.65625 24.015625 45.921875 
Q 28.375 48.1875 33.59375 48.1875 
Q 44.578125 48.1875 50.953125 41.515625 
Q 57.328125 34.859375 57.328125 23.390625 
Q 57.328125 12.15625 50.6875 5.359375 
Q 44.046875 -1.421875 33.015625 -1.421875 
Q 20.359375 -1.421875 13.671875 8.265625 
Q 6.984375 17.96875 6.984375 36.375 
Q 6.984375 53.65625 15.1875 63.9375 
Q 23.390625 74.21875 37.203125 74.21875 
Q 40.921875 74.21875 44.703125 73.484375 
Q 48.484375 72.75 52.59375 71.296875 
z
" id="DejaVuSans-54"/>
      </defs>
      <g transform="translate(443.160047 719.478438)scale(0.1 -0.1)">
       <use xlink:href="#DejaVuSans-48"/>
       <use x="63.623047" xlink:href="#DejaVuSans-46"/>
       <use x="95.410156" xlink:href="#DejaVuSans-54"/>
      </g>
     </g>
    </g>
    <g id="xtick_5">
     <g id="line2d_6">
      <g>
       <use style="stroke:#000000;stroke-width:0.8;" x="568.482146" xlink:href="#m096428f42a" y="704.88"/>
      </g>
     </g>
     <g id="text_5">
      <!-- 0.8 -->
      <defs>
       <path d="M 31.78125 34.625 
Q 24.75 34.625 20.71875 30.859375 
Q 16.703125 27.09375 16.703125 20.515625 
Q 16.703125 13.921875 20.71875 10.15625 
Q 24.75 6.390625 31.78125 6.390625 
Q 38.8125 6.390625 42.859375 10.171875 
Q 46.921875 13.96875 46.921875 20.515625 
Q 46.921875 27.09375 42.890625 30.859375 
Q 38.875 34.625 31.78125 34.625 
z
M 21.921875 38.8125 
Q 15.578125 40.375 12.03125 44.71875 
Q 8.5 49.078125 8.5 55.328125 
Q 8.5 64.0625 14.71875 69.140625 
Q 20.953125 74.21875 31.78125 74.21875 
Q 42.671875 74.21875 48.875 69.140625 
Q 55.078125 64.0625 55.078125 55.328125 
Q 55.078125 49.078125 51.53125 44.71875 
Q 48 40.375 41.703125 38.8125 
Q 48.828125 37.15625 52.796875 32.3125 
Q 56.78125 27.484375 56.78125 20.515625 
Q 56.78125 9.90625 50.3125 4.234375 
Q 43.84375 -1.421875 31.78125 -1.421875 
Q 19.734375 -1.421875 13.25 4.234375 
Q 6.78125 9.90625 6.78125 20.515625 
Q 6.78125 27.484375 10.78125 32.3125 
Q 14.796875 37.15625 21.921875 38.8125 
z
M 18.3125 54.390625 
Q 18.3125 48.734375 21.84375 45.5625 
Q 25.390625 42.390625 31.78125 42.390625 
Q 38.140625 42.390625 41.71875 45.5625 
Q 45.3125 48.734375 45.3125 54.390625 
Q 45.3125 60.0625 41.71875 63.234375 
Q 38.140625 66.40625 31.78125 66.40625 
Q 25.390625 66.40625 21.84375 63.234375 
Q 18.3125 60.0625 18.3125 54.390625 
z
" id="DejaVuSans-56"/>
      </defs>
      <g transform="translate(560.530584 719.478438)scale(0.1 -0.1)">
       <use xlink:href="#DejaVuSans-48"/>
       <use x="63.623047" xlink:href="#DejaVuSans-46"/>
       <use x="95.410156" xlink:href="#DejaVuSans-56"/>
      </g>
     </g>
    </g>
    <g id="xtick_6">
     <g id="line2d_7">
      <g>
       <use style="stroke:#000000;stroke-width:0.8;" x="685.852683" xlink:href="#m096428f42a" y="704.88"/>
      </g>
     </g>
     <g id="text_6">
      <!-- 1.0 -->
      <defs>
       <path d="M 12.40625 8.296875 
L 28.515625 8.296875 
L 28.515625 63.921875 
L 10.984375 60.40625 
L 10.984375 69.390625 
L 28.421875 72.90625 
L 38.28125 72.90625 
L 38.28125 8.296875 
L 54.390625 8.296875 
L 54.390625 0 
L 12.40625 0 
z
" id="DejaVuSans-49"/>
      </defs>
      <g transform="translate(677.90112 719.478438)scale(0.1 -0.1)">
       <use xlink:href="#DejaVuSans-49"/>
       <use x="63.623047" xlink:href="#DejaVuSans-46"/>
       <use x="95.410156" xlink:href="#DejaVuSans-48"/>
      </g>
     </g>
    </g>
    <g id="xtick_7">
     <g id="line2d_8">
      <path clip-path="url(#pd37a7e6a65)" d="M 172.356585 704.88 
L 172.356585 121.813463 
" style="fill:none;stroke:#b0b0b0;stroke-linecap:square;stroke-opacity:0.3;stroke-width:0.8;"/>
     </g>
     <g id="line2d_9">
      <defs>
       <path d="M 0 0 
L 0 2 
" id="meb56315e6a" style="stroke:#000000;stroke-width:0.6;"/>
      </defs>
      <g>
       <use style="stroke:#000000;stroke-width:0.6;" x="172.356585" xlink:href="#meb56315e6a" y="704.88"/>
      </g>
     </g>
    </g>
    <g id="xtick_8">
     <g id="line2d_10">
      <path clip-path="url(#pd37a7e6a65)" d="M 245.713171 704.88 
L 245.713171 121.813463 
" style="fill:none;stroke:#b0b0b0;stroke-linecap:square;stroke-opacity:0.3;stroke-width:0.8;"/>
     </g>
     <g id="line2d_11">
      <g>
       <use style="stroke:#000000;stroke-width:0.6;" x="245.713171" xlink:href="#meb56315e6a" y="704.88"/>
      </g>
     </g>
    </g>
    <g id="xtick_9">
     <g id="line2d_12">
      <path clip-path="url(#pd37a7e6a65)" d="M 319.069756 704.88 
L 319.069756 121.813463 
" style="fill:none;stroke:#b0b0b0;stroke-linecap:square;stroke-opacity:0.3;stroke-width:0.8;"/>
     </g>
     <g id="line2d_13">
      <g>
       <use style="stroke:#000000;stroke-width:0.6;" x="319.069756" xlink:href="#meb56315e6a" y="704.88"/>
      </g>
     </g>
    </g>
    <g id="xtick_10">
     <g id="line2d_14">
      <path clip-path="url(#pd37a7e6a65)" d="M 392.426341 704.88 
L 392.426341 121.813463 
" style="fill:none;stroke:#b0b0b0;stroke-linecap:square;stroke-opacity:0.3;stroke-width:0.8;"/>
     </g>
     <g id="line2d_15">
      <g>
       <use style="stroke:#000000;stroke-width:0.6;" x="392.426341" xlink:href="#meb56315e6a" y="704.88"/>
      </g>
     </g>
    </g>
    <g id="xtick_11">
     <g id="line2d_16">
      <path clip-path="url(#pd37a7e6a65)" d="M 465.782927 704.88 
L 465.782927 121.813463 
" style="fill:none;stroke:#b0b0b0;stroke-linecap:square;stroke-opacity:0.3;stroke-width:0.8;"/>
     </g>
     <g id="line2d_17">
      <g>
       <use style="stroke:#000000;stroke-width:0.6;" x="465.782927" xlink:href="#meb56315e6a" y="704.88"/>
      </g>
     </g>
    </g>
    <g id="xtick_12">
     <g id="line2d_18">
      <path clip-path="url(#pd37a7e6a65)" d="M 539.139512 704.88 
L 539.139512 121.813463 
" style="fill:none;stroke:#b0b0b0;stroke-linecap:square;stroke-opacity:0.3;stroke-width:0.8;"/>
     </g>
     <g id="line2d_19">
      <g>
       <use style="stroke:#000000;stroke-width:0.6;" x="539.139512" xlink:href="#meb56315e6a" y="704.88"/>
      </g>
     </g>
    </g>
    <g id="xtick_13">
     <g id="line2d_20">
      <path clip-path="url(#pd37a7e6a65)" d="M 612.496098 704.88 
L 612.496098 121.813463 
" style="fill:none;stroke:#b0b0b0;stroke-linecap:square;stroke-opacity:0.3;stroke-width:0.8;"/>
     </g>
     <g id="line2d_21">
      <g>
       <use style="stroke:#000000;stroke-width:0.6;" x="612.496098" xlink:href="#meb56315e6a" y="704.88"/>
      </g>
     </g>
    </g>
   </g>
   <g id="matplotlib.axis_2">
    <g id="ytick_1">
     <g id="line2d_22">
      <defs>
       <path d="M 0 0 
L -3.5 0 
" id="m6128bde0fe" style="stroke:#000000;stroke-width:0.8;"/>
      </defs>
      <g>
       <use style="stroke:#000000;stroke-width:0.8;" x="99" xlink:href="#m6128bde0fe" y="704.88"/>
      </g>
     </g>
     <g id="text_7">
      <!-- 0.0 -->
      <g transform="translate(76.096875 708.679219)scale(0.1 -0.1)">
       <use xlink:href="#DejaVuSans-48"/>
       <use x="63.623047" xlink:href="#DejaVuSans-46"/>
       <use x="95.410156" xlink:href="#DejaVuSans-48"/>
      </g>
     </g>
    </g>
    <g id="ytick_2">
     <g id="line2d_23">
      <g>
       <use style="stroke:#000000;stroke-width:0.8;" x="99" xlink:href="#m6128bde0fe" y="588.266693"/>
      </g>
     </g>
     <g id="text_8">
      <!-- 0.2 -->
      <g transform="translate(76.096875 592.065911)scale(0.1 -0.1)">
       <use xlink:href="#DejaVuSans-48"/>
       <use x="63.623047" xlink:href="#DejaVuSans-46"/>
       <use x="95.410156" xlink:href="#DejaVuSans-50"/>
      </g>
     </g>
    </g>
    <g id="ytick_3">
     <g id="line2d_24">
      <g>
       <use style="stroke:#000000;stroke-width:0.8;" x="99" xlink:href="#m6128bde0fe" y="471.653385"/>
      </g>
     </g>
     <g id="text_9">
      <!-- 0.4 -->
      <g transform="translate(76.096875 475.452604)scale(0.1 -0.1)">
       <use xlink:href="#DejaVuSans-48"/>
       <use x="63.623047" xlink:href="#DejaVuSans-46"/>
       <use x="95.410156" xlink:href="#DejaVuSans-52"/>
      </g>
     </g>
    </g>
    <g id="ytick_4">
     <g id="line2d_25">
      <g>
       <use style="stroke:#000000;stroke-width:0.8;" x="99" xlink:href="#m6128bde0fe" y="355.040078"/>
      </g>
     </g>
     <g id="text_10">
      <!-- 0.6 -->
      <g transform="translate(76.096875 358.839297)scale(0.1 -0.1)">
       <use xlink:href="#DejaVuSans-48"/>
       <use x="63.623047" xlink:href="#DejaVuSans-46"/>
       <use x="95.410156" xlink:href="#DejaVuSans-54"/>
      </g>
     </g>
    </g>
    <g id="ytick_5">
     <g id="line2d_26">
      <g>
       <use style="stroke:#000000;stroke-width:0.8;" x="99" xlink:href="#m6128bde0fe" y="238.426771"/>
      </g>
     </g>
     <g id="text_11">
      <!-- 0.8 -->
      <g transform="translate(76.096875 242.225989)scale(0.1 -0.1)">
       <use xlink:href="#DejaVuSans-48"/>
       <use x="63.623047" xlink:href="#DejaVuSans-46"/>
       <use x="95.410156" xlink:href="#DejaVuSans-56"/>
      </g>
     </g>
    </g>
    <g id="ytick_6">
     <g id="line2d_27">
      <g>
       <use style="stroke:#000000;stroke-width:0.8;" x="99" xlink:href="#m6128bde0fe" y="121.813463"/>
      </g>
     </g>
     <g id="text_12">
      <!-- 1.0 -->
      <g transform="translate(76.096875 125.612682)scale(0.1 -0.1)">
       <use xlink:href="#DejaVuSans-49"/>
       <use x="63.623047" xlink:href="#DejaVuSans-46"/>
       <use x="95.410156" xlink:href="#DejaVuSans-48"/>
      </g>
     </g>
    </g>
    <g id="ytick_7">
     <g id="line2d_28">
      <path clip-path="url(#pd37a7e6a65)" d="M 99 631.996683 
L 685.852683 631.996683 
" style="fill:none;stroke:#b0b0b0;stroke-linecap:square;stroke-opacity:0.3;stroke-width:0.8;"/>
     </g>
     <g id="line2d_29">
      <defs>
       <path d="M 0 0 
L -2 0 
" id="mafa7448aab" style="stroke:#000000;stroke-width:0.6;"/>
      </defs>
      <g>
       <use style="stroke:#000000;stroke-width:0.6;" x="99" xlink:href="#mafa7448aab" y="631.996683"/>
      </g>
     </g>
    </g>
    <g id="ytick_8">
     <g id="line2d_30">
      <path clip-path="url(#pd37a7e6a65)" d="M 99 559.113366 
L 685.852683 559.113366 
" style="fill:none;stroke:#b0b0b0;stroke-linecap:square;stroke-opacity:0.3;stroke-width:0.8;"/>
     </g>
     <g id="line2d_31">
      <g>
       <use style="stroke:#000000;stroke-width:0.6;" x="99" xlink:href="#mafa7448aab" y="559.113366"/>
      </g>
     </g>
    </g>
    <g id="ytick_9">
     <g id="line2d_32">
      <path clip-path="url(#pd37a7e6a65)" d="M 99 486.230049 
L 685.852683 486.230049 
" style="fill:none;stroke:#b0b0b0;stroke-linecap:square;stroke-opacity:0.3;stroke-width:0.8;"/>
     </g>
     <g id="line2d_33">
      <g>
       <use style="stroke:#000000;stroke-width:0.6;" x="99" xlink:href="#mafa7448aab" y="486.230049"/>
      </g>
     </g>
    </g>
    <g id="ytick_10">
     <g id="line2d_34">
      <path clip-path="url(#pd37a7e6a65)" d="M 99 413.346732 
L 685.852683 413.346732 
" style="fill:none;stroke:#b0b0b0;stroke-linecap:square;stroke-opacity:0.3;stroke-width:0.8;"/>
     </g>
     <g id="line2d_35">
      <g>
       <use style="stroke:#000000;stroke-width:0.6;" x="99" xlink:href="#mafa7448aab" y="413.346732"/>
      </g>
     </g>
    </g>
    <g id="ytick_11">
     <g id="line2d_36">
      <path clip-path="url(#pd37a7e6a65)" d="M 99 340.463415 
L 685.852683 340.463415 
" style="fill:none;stroke:#b0b0b0;stroke-linecap:square;stroke-opacity:0.3;stroke-width:0.8;"/>
     </g>
     <g id="line2d_37">
      <g>
       <use style="stroke:#000000;stroke-width:0.6;" x="99" xlink:href="#mafa7448aab" y="340.463415"/>
      </g>
     </g>
    </g>
    <g id="ytick_12">
     <g id="line2d_38">
      <path clip-path="url(#pd37a7e6a65)" d="M 99 267.580098 
L 685.852683 267.580098 
" style="fill:none;stroke:#b0b0b0;stroke-linecap:square;stroke-opacity:0.3;stroke-width:0.8;"/>
     </g>
     <g id="line2d_39">
      <g>
       <use style="stroke:#000000;stroke-width:0.6;" x="99" xlink:href="#mafa7448aab" y="267.580098"/>
      </g>
     </g>
    </g>
    <g id="ytick_13">
     <g id="line2d_40">
      <path clip-path="url(#pd37a7e6a65)" d="M 99 194.69678 
L 685.852683 194.69678 
" style="fill:none;stroke:#b0b0b0;stroke-linecap:square;stroke-opacity:0.3;stroke-width:0.8;"/>
     </g>
     <g id="line2d_41">
      <g>
       <use style="stroke:#000000;stroke-width:0.6;" x="99" xlink:href="#mafa7448aab" y="194.69678"/>
      </g>
     </g>
    </g>
   </g>
   <g id="patch_3">
    <path d="M 99 704.88 
L 99 121.813463 
" style="fill:none;stroke:#000000;stroke-linecap:square;stroke-linejoin:miter;stroke-width:0.8;"/>
   </g>
   <g id="patch_4">
    <path d="M 685.852683 704.88 
L 685.852683 121.813463 
" style="fill:none;stroke:#000000;stroke-linecap:square;stroke-linejoin:miter;stroke-width:0.8;"/>
   </g>
   <g id="patch_5">
    <path d="M 99 704.88 
L 685.852683 704.88 
" style="fill:none;stroke:#000000;stroke-linecap:square;stroke-linejoin:miter;stroke-width:0.8;"/>
   </g>
   <g id="patch_6">
    <path d="M 99 121.813463 
L 685.852683 121.813463 
" style="fill:none;stroke:#000000;stroke-linecap:square;stroke-linejoin:miter;stroke-width:0.8;"/>
   </g>
  </g>
  <g id="axes_4">
   <g id="LineCollection_2">
    <path clip-path="url(#p9611a21d0f)" d="M 700.823415 704.88 
L 700.823415 121.813463 
" style="fill:none;stroke:#000000;stroke-width:1.5;"/>
   </g>
   <g id="line2d_42">
    <defs>
     <path d="M 10 0 
L -10 -0 
" id="m61e607663e" style="stroke:#1f77b4;"/>
    </defs>
    <g clip-path="url(#p9611a21d0f)">
     <use style="fill:#1f77b4;stroke:#1f77b4;" x="700.823415" xlink:href="#m61e607663e" y="297.294074"/>
     <use style="fill:#1f77b4;stroke:#1f77b4;" x="700.823415" xlink:href="#m61e607663e" y="344.621251"/>
     <use style="fill:#1f77b4;stroke:#1f77b4;" x="700.823415" xlink:href="#m61e607663e" y="679.116042"/>
     <use style="fill:#1f77b4;stroke:#1f77b4;" x="700.823415" xlink:href="#m61e607663e" y="195.91833"/>
     <use style="fill:#1f77b4;stroke:#1f77b4;" x="700.823415" xlink:href="#m61e607663e" y="494.759003"/>
     <use style="fill:#1f77b4;stroke:#1f77b4;" x="700.823415" xlink:href="#m61e607663e" y="569.376258"/>
     <use style="fill:#1f77b4;stroke:#1f77b4;" x="700.823415" xlink:href="#m61e607663e" y="376.356768"/>
     <use style="fill:#1f77b4;stroke:#1f77b4;" x="700.823415" xlink:href="#m61e607663e" y="192.834481"/>
     <use style="fill:#1f77b4;stroke:#1f77b4;" x="700.823415" xlink:href="#m61e607663e" y="378.72692"/>
     <use style="fill:#1f77b4;stroke:#1f77b4;" x="700.823415" xlink:href="#m61e607663e" y="512.191902"/>
     <use style="fill:#1f77b4;stroke:#1f77b4;" x="700.823415" xlink:href="#m61e607663e" y="136.614273"/>
     <use style="fill:#1f77b4;stroke:#1f77b4;" x="700.823415" xlink:href="#m61e607663e" y="210.786144"/>
     <use style="fill:#1f77b4;stroke:#1f77b4;" x="700.823415" xlink:href="#m61e607663e" y="578.1321"/>
     <use style="fill:#1f77b4;stroke:#1f77b4;" x="700.823415" xlink:href="#m61e607663e" y="415.104024"/>
     <use style="fill:#1f77b4;stroke:#1f77b4;" x="700.823415" xlink:href="#m61e607663e" y="480.706523"/>
     <use style="fill:#1f77b4;stroke:#1f77b4;" x="700.823415" xlink:href="#m61e607663e" y="565.066288"/>
     <use style="fill:#1f77b4;stroke:#1f77b4;" x="700.823415" xlink:href="#m61e607663e" y="436.527316"/>
     <use style="fill:#1f77b4;stroke:#1f77b4;" x="700.823415" xlink:href="#m61e607663e" y="508.494792"/>
     <use style="fill:#1f77b4;stroke:#1f77b4;" x="700.823415" xlink:href="#m61e607663e" y="326.936181"/>
     <use style="fill:#1f77b4;stroke:#1f77b4;" x="700.823415" xlink:href="#m61e607663e" y="590.765483"/>
     <use style="fill:#1f77b4;stroke:#1f77b4;" x="700.823415" xlink:href="#m61e607663e" y="270.001789"/>
     <use style="fill:#1f77b4;stroke:#1f77b4;" x="700.823415" xlink:href="#m61e607663e" y="532.116555"/>
     <use style="fill:#1f77b4;stroke:#1f77b4;" x="700.823415" xlink:href="#m61e607663e" y="525.257227"/>
     <use style="fill:#1f77b4;stroke:#1f77b4;" x="700.823415" xlink:href="#m61e607663e" y="203.80796"/>
     <use style="fill:#1f77b4;stroke:#1f77b4;" x="700.823415" xlink:href="#m61e607663e" y="389.70304"/>
     <use style="fill:#1f77b4;stroke:#1f77b4;" x="700.823415" xlink:href="#m61e607663e" y="692.390418"/>
     <use style="fill:#1f77b4;stroke:#1f77b4;" x="700.823415" xlink:href="#m61e607663e" y="206.907587"/>
     <use style="fill:#1f77b4;stroke:#1f77b4;" x="700.823415" xlink:href="#m61e607663e" y="634.403318"/>
     <use style="fill:#1f77b4;stroke:#1f77b4;" x="700.823415" xlink:href="#m61e607663e" y="385.371784"/>
     <use style="fill:#1f77b4;stroke:#1f77b4;" x="700.823415" xlink:href="#m61e607663e" y="311.009915"/>
     <use style="fill:#1f77b4;stroke:#1f77b4;" x="700.823415" xlink:href="#m61e607663e" y="461.914798"/>
     <use style="fill:#1f77b4;stroke:#1f77b4;" x="700.823415" xlink:href="#m61e607663e" y="166.540107"/>
     <use style="fill:#1f77b4;stroke:#1f77b4;" x="700.823415" xlink:href="#m61e607663e" y="392.711509"/>
     <use style="fill:#1f77b4;stroke:#1f77b4;" x="700.823415" xlink:href="#m61e607663e" y="679.351054"/>
     <use style="fill:#1f77b4;stroke:#1f77b4;" x="700.823415" xlink:href="#m61e607663e" y="214.978977"/>
     <use style="fill:#1f77b4;stroke:#1f77b4;" x="700.823415" xlink:href="#m61e607663e" y="428.983188"/>
     <use style="fill:#1f77b4;stroke:#1f77b4;" x="700.823415" xlink:href="#m61e607663e" y="495.003285"/>
     <use style="fill:#1f77b4;stroke:#1f77b4;" x="700.823415" xlink:href="#m61e607663e" y="326.773674"/>
     <use style="fill:#1f77b4;stroke:#1f77b4;" x="700.823415" xlink:href="#m61e607663e" y="703.623462"/>
     <use style="fill:#1f77b4;stroke:#1f77b4;" x="700.823415" xlink:href="#m61e607663e" y="249.950077"/>
     <use style="fill:#1f77b4;stroke:#1f77b4;" x="700.823415" xlink:href="#m61e607663e" y="314.369047"/>
     <use style="fill:#1f77b4;stroke:#1f77b4;" x="700.823415" xlink:href="#m61e607663e" y="595.638233"/>
     <use style="fill:#1f77b4;stroke:#1f77b4;" x="700.823415" xlink:href="#m61e607663e" y="138.096578"/>
     <use style="fill:#1f77b4;stroke:#1f77b4;" x="700.823415" xlink:href="#m61e607663e" y="276.027207"/>
     <use style="fill:#1f77b4;stroke:#1f77b4;" x="700.823415" xlink:href="#m61e607663e" y="426.258829"/>
     <use style="fill:#1f77b4;stroke:#1f77b4;" x="700.823415" xlink:href="#m61e607663e" y="546.693812"/>
     <use style="fill:#1f77b4;stroke:#1f77b4;" x="700.823415" xlink:href="#m61e607663e" y="135.96129"/>
     <use style="fill:#1f77b4;stroke:#1f77b4;" x="700.823415" xlink:href="#m61e607663e" y="478.213604"/>
     <use style="fill:#1f77b4;stroke:#1f77b4;" x="700.823415" xlink:href="#m61e607663e" y="191.453934"/>
     <use style="fill:#1f77b4;stroke:#1f77b4;" x="700.823415" xlink:href="#m61e607663e" y="197.318166"/>
     <use style="fill:#1f77b4;stroke:#1f77b4;" x="700.823415" xlink:href="#m61e607663e" y="375.55848"/>
     <use style="fill:#1f77b4;stroke:#1f77b4;" x="700.823415" xlink:href="#m61e607663e" y="134.068824"/>
     <use style="fill:#1f77b4;stroke:#1f77b4;" x="700.823415" xlink:href="#m61e607663e" y="123.638125"/>
     <use style="fill:#1f77b4;stroke:#1f77b4;" x="700.823415" xlink:href="#m61e607663e" y="364.119861"/>
     <use style="fill:#1f77b4;stroke:#1f77b4;" x="700.823415" xlink:href="#m61e607663e" y="589.930001"/>
     <use style="fill:#1f77b4;stroke:#1f77b4;" x="700.823415" xlink:href="#m61e607663e" y="671.417001"/>
     <use style="fill:#1f77b4;stroke:#1f77b4;" x="700.823415" xlink:href="#m61e607663e" y="657.57014"/>
     <use style="fill:#1f77b4;stroke:#1f77b4;" x="700.823415" xlink:href="#m61e607663e" y="456.625928"/>
     <use style="fill:#1f77b4;stroke:#1f77b4;" x="700.823415" xlink:href="#m61e607663e" y="544.147999"/>
     <use style="fill:#1f77b4;stroke:#1f77b4;" x="700.823415" xlink:href="#m61e607663e" y="564.288036"/>
     <use style="fill:#1f77b4;stroke:#1f77b4;" x="700.823415" xlink:href="#m61e607663e" y="658.386003"/>
     <use style="fill:#1f77b4;stroke:#1f77b4;" x="700.823415" xlink:href="#m61e607663e" y="296.400389"/>
     <use style="fill:#1f77b4;stroke:#1f77b4;" x="700.823415" xlink:href="#m61e607663e" y="563.277023"/>
     <use style="fill:#1f77b4;stroke:#1f77b4;" x="700.823415" xlink:href="#m61e607663e" y="247.608666"/>
    </g>
   </g>
  </g>
 </g>
 <defs>
  <clipPath id="pbe31b0567e">
   <rect height="11.899317" width="586.852683" x="99" y="95.04"/>
  </clipPath>
  <clipPath id="pd37a7e6a65">
   <rect height="583.066537" width="586.852683" x="99" y="121.813463"/>
  </clipPath>
  <clipPath id="p9611a21d0f">
   <rect height="583.066537" width="11.976585" x="700.823415" y="121.813463"/>
  </clipPath>
 </defs>
</svg>
